%TF.GenerationSoftware,KiCad,Pcbnew,9.0.2*%
%TF.CreationDate,2026-04-16T01:12:58+09:00*%
%TF.ProjectId,PCB_matrix3216,5043425f-6d61-4747-9269-78333231362e,rev?*%
%TF.SameCoordinates,Original*%
%TF.FileFunction,Soldermask,Bot*%
%TF.FilePolarity,Negative*%
%FSLAX46Y46*%
G04 Gerber Fmt 4.6, Leading zero omitted, Abs format (unit mm)*
G04 Created by KiCad (PCBNEW 9.0.2) date 2026-04-16 01:12:58*
%MOMM*%
%LPD*%
G01*
G04 APERTURE LIST*
G04 Aperture macros list*
%AMRoundRect*
0 Rectangle with rounded corners*
0 $1 Rounding radius*
0 $2 $3 $4 $5 $6 $7 $8 $9 X,Y pos of 4 corners*
0 Add a 4 corners polygon primitive as box body*
4,1,4,$2,$3,$4,$5,$6,$7,$8,$9,$2,$3,0*
0 Add four circle primitives for the rounded corners*
1,1,$1+$1,$2,$3*
1,1,$1+$1,$4,$5*
1,1,$1+$1,$6,$7*
1,1,$1+$1,$8,$9*
0 Add four rect primitives between the rounded corners*
20,1,$1+$1,$2,$3,$4,$5,0*
20,1,$1+$1,$4,$5,$6,$7,0*
20,1,$1+$1,$6,$7,$8,$9,0*
20,1,$1+$1,$8,$9,$2,$3,0*%
G04 Aperture macros list end*
%ADD10C,1.700000*%
%ADD11R,1.700000X1.700000*%
%ADD12C,2.000000*%
%ADD13RoundRect,0.250000X-0.600000X0.600000X-0.600000X-0.600000X0.600000X-0.600000X0.600000X0.600000X0*%
%ADD14C,3.200000*%
%ADD15R,4.400000X3.300000*%
%ADD16R,6.200000X3.900000*%
G04 APERTURE END LIST*
D10*
%TO.C,J2*%
X151440000Y-82423000D03*
X151440000Y-84963000D03*
X151440000Y-87503000D03*
X151440000Y-90043000D03*
X151440000Y-92583000D03*
D11*
X151440000Y-95123000D03*
D10*
X148900000Y-95123000D03*
X148900000Y-92583000D03*
X148900000Y-90043000D03*
X148900000Y-87503000D03*
X148900000Y-84963000D03*
X148900000Y-82423000D03*
%TD*%
D12*
%TO.C,REF\u002A\u002A*%
X206121000Y-79375000D03*
%TD*%
D10*
%TO.C,U1*%
X181610000Y-63916000D03*
X181610000Y-66456000D03*
X184150000Y-63916000D03*
X184150000Y-66456000D03*
X186690000Y-63916000D03*
X186690000Y-66456000D03*
X189230000Y-63916000D03*
X189230000Y-66456000D03*
D13*
X191770000Y-63916000D03*
D10*
X191770000Y-66456000D03*
%TD*%
%TO.C,U2*%
X152300000Y-63897000D03*
X152300000Y-66437000D03*
X154840000Y-63897000D03*
X154840000Y-66437000D03*
X157380000Y-63897000D03*
X157380000Y-66437000D03*
X159920000Y-63897000D03*
X159920000Y-66437000D03*
D13*
X162460000Y-63897000D03*
D10*
X162460000Y-66437000D03*
%TD*%
D14*
%TO.C,REF\u002A\u002A*%
X176609800Y-65426600D03*
%TD*%
%TO.C,REF\u002A\u002A*%
X168664000Y-65426600D03*
%TD*%
D11*
%TO.C,REF\u002A\u002A*%
X159385000Y-102235000D03*
D10*
X159385000Y-99695000D03*
X161925000Y-102235000D03*
X161925000Y-99695000D03*
X164465000Y-102235000D03*
X164465000Y-99695000D03*
X167005000Y-102235000D03*
X167005000Y-99695000D03*
X169545000Y-102235000D03*
X169545000Y-99695000D03*
X172085000Y-102235000D03*
X172085000Y-99695000D03*
%TD*%
D14*
%TO.C,REF\u002A\u002A*%
X176609800Y-113426600D03*
%TD*%
%TO.C,REF\u002A\u002A*%
X168664000Y-113426600D03*
%TD*%
D11*
%TO.C,REF\u002A\u002A*%
X159385000Y-107315000D03*
D10*
X159385000Y-104775000D03*
X161925000Y-107315000D03*
X161925000Y-104775000D03*
X164465000Y-107315000D03*
X164465000Y-104775000D03*
X167005000Y-107315000D03*
X167005000Y-104775000D03*
X169545000Y-107315000D03*
X169545000Y-104775000D03*
X172085000Y-107315000D03*
X172085000Y-104775000D03*
%TD*%
D11*
%TO.C,J3*%
X151384000Y-77851000D03*
D10*
X151384000Y-75311000D03*
X151384000Y-72771000D03*
X148844000Y-72771000D03*
X148844000Y-75311000D03*
X148844000Y-77851000D03*
%TD*%
D11*
%TO.C,J4*%
X211799000Y-77836000D03*
D10*
X211799000Y-75296000D03*
X211799000Y-72756000D03*
X214339000Y-72756000D03*
X214339000Y-75296000D03*
X214339000Y-77836000D03*
%TD*%
D12*
%TO.C,J1*%
X181706000Y-97282000D03*
D15*
X194506000Y-96582000D03*
D16*
X185506000Y-103732000D03*
X185506000Y-90832000D03*
%TD*%
M02*
