%TF.GenerationSoftware,KiCad,Pcbnew,9.0.2*%
%TF.CreationDate,2026-04-16T01:12:58+09:00*%
%TF.ProjectId,PCB_matrix3216,5043425f-6d61-4747-9269-78333231362e,rev?*%
%TF.SameCoordinates,Original*%
%TF.FileFunction,Legend,Top*%
%TF.FilePolarity,Positive*%
%FSLAX46Y46*%
G04 Gerber Fmt 4.6, Leading zero omitted, Abs format (unit mm)*
G04 Created by KiCad (PCBNEW 9.0.2) date 2026-04-16 01:12:58*
%MOMM*%
%LPD*%
G01*
G04 APERTURE LIST*
%ADD10C,0.100000*%
%ADD11C,0.150000*%
%ADD12C,0.254000*%
%ADD13C,0.120000*%
%ADD14C,0.200000*%
%ADD15C,0.400000*%
G04 APERTURE END LIST*
D10*
X162763200Y-96393000D02*
X153289000Y-96393000D01*
X159258000Y-89281000D02*
X164592000Y-89281000D01*
X204825600Y-66344800D02*
X204825600Y-61137800D01*
X209105500Y-66878200D02*
X195770500Y-66878200D01*
X158369000Y-96393000D02*
X158369000Y-80772000D01*
X162661600Y-80772000D02*
X153289000Y-80772000D01*
X154894646Y-94630419D02*
X155513693Y-94630419D01*
X155513693Y-94630419D02*
X155180360Y-95011371D01*
X155180360Y-95011371D02*
X155323217Y-95011371D01*
X155323217Y-95011371D02*
X155418455Y-95058990D01*
X155418455Y-95058990D02*
X155466074Y-95106609D01*
X155466074Y-95106609D02*
X155513693Y-95201847D01*
X155513693Y-95201847D02*
X155513693Y-95439942D01*
X155513693Y-95439942D02*
X155466074Y-95535180D01*
X155466074Y-95535180D02*
X155418455Y-95582800D01*
X155418455Y-95582800D02*
X155323217Y-95630419D01*
X155323217Y-95630419D02*
X155037503Y-95630419D01*
X155037503Y-95630419D02*
X154942265Y-95582800D01*
X154942265Y-95582800D02*
X154894646Y-95535180D01*
X155799408Y-94630419D02*
X156132741Y-95630419D01*
X156132741Y-95630419D02*
X156466074Y-94630419D01*
X156704170Y-94630419D02*
X157323217Y-94630419D01*
X157323217Y-94630419D02*
X156989884Y-95011371D01*
X156989884Y-95011371D02*
X157132741Y-95011371D01*
X157132741Y-95011371D02*
X157227979Y-95058990D01*
X157227979Y-95058990D02*
X157275598Y-95106609D01*
X157275598Y-95106609D02*
X157323217Y-95201847D01*
X157323217Y-95201847D02*
X157323217Y-95439942D01*
X157323217Y-95439942D02*
X157275598Y-95535180D01*
X157275598Y-95535180D02*
X157227979Y-95582800D01*
X157227979Y-95582800D02*
X157132741Y-95630419D01*
X157132741Y-95630419D02*
X156847027Y-95630419D01*
X156847027Y-95630419D02*
X156751789Y-95582800D01*
X156751789Y-95582800D02*
X156704170Y-95535180D01*
X198135419Y-65259925D02*
X198135419Y-65736115D01*
X198135419Y-65736115D02*
X198611609Y-65783734D01*
X198611609Y-65783734D02*
X198563990Y-65736115D01*
X198563990Y-65736115D02*
X198516371Y-65640877D01*
X198516371Y-65640877D02*
X198516371Y-65402782D01*
X198516371Y-65402782D02*
X198563990Y-65307544D01*
X198563990Y-65307544D02*
X198611609Y-65259925D01*
X198611609Y-65259925D02*
X198706847Y-65212306D01*
X198706847Y-65212306D02*
X198944942Y-65212306D01*
X198944942Y-65212306D02*
X199040180Y-65259925D01*
X199040180Y-65259925D02*
X199087800Y-65307544D01*
X199087800Y-65307544D02*
X199135419Y-65402782D01*
X199135419Y-65402782D02*
X199135419Y-65640877D01*
X199135419Y-65640877D02*
X199087800Y-65736115D01*
X199087800Y-65736115D02*
X199040180Y-65783734D01*
X198135419Y-64926591D02*
X199135419Y-64593258D01*
X199135419Y-64593258D02*
X198135419Y-64259925D01*
X201297600Y-65783734D02*
X201345219Y-65640877D01*
X201345219Y-65640877D02*
X201345219Y-65402782D01*
X201345219Y-65402782D02*
X201297600Y-65307544D01*
X201297600Y-65307544D02*
X201249980Y-65259925D01*
X201249980Y-65259925D02*
X201154742Y-65212306D01*
X201154742Y-65212306D02*
X201059504Y-65212306D01*
X201059504Y-65212306D02*
X200964266Y-65259925D01*
X200964266Y-65259925D02*
X200916647Y-65307544D01*
X200916647Y-65307544D02*
X200869028Y-65402782D01*
X200869028Y-65402782D02*
X200821409Y-65593258D01*
X200821409Y-65593258D02*
X200773790Y-65688496D01*
X200773790Y-65688496D02*
X200726171Y-65736115D01*
X200726171Y-65736115D02*
X200630933Y-65783734D01*
X200630933Y-65783734D02*
X200535695Y-65783734D01*
X200535695Y-65783734D02*
X200440457Y-65736115D01*
X200440457Y-65736115D02*
X200392838Y-65688496D01*
X200392838Y-65688496D02*
X200345219Y-65593258D01*
X200345219Y-65593258D02*
X200345219Y-65355163D01*
X200345219Y-65355163D02*
X200392838Y-65212306D01*
X201345219Y-64783734D02*
X200345219Y-64783734D01*
X201345219Y-64307544D02*
X200345219Y-64307544D01*
X200345219Y-64307544D02*
X201345219Y-63736116D01*
X201345219Y-63736116D02*
X200345219Y-63736116D01*
X200440457Y-63307544D02*
X200392838Y-63259925D01*
X200392838Y-63259925D02*
X200345219Y-63164687D01*
X200345219Y-63164687D02*
X200345219Y-62926592D01*
X200345219Y-62926592D02*
X200392838Y-62831354D01*
X200392838Y-62831354D02*
X200440457Y-62783735D01*
X200440457Y-62783735D02*
X200535695Y-62736116D01*
X200535695Y-62736116D02*
X200630933Y-62736116D01*
X200630933Y-62736116D02*
X200773790Y-62783735D01*
X200773790Y-62783735D02*
X201345219Y-63355163D01*
X201345219Y-63355163D02*
X201345219Y-62736116D01*
X157561646Y-96789419D02*
X158180693Y-96789419D01*
X158180693Y-96789419D02*
X157847360Y-97170371D01*
X157847360Y-97170371D02*
X157990217Y-97170371D01*
X157990217Y-97170371D02*
X158085455Y-97217990D01*
X158085455Y-97217990D02*
X158133074Y-97265609D01*
X158133074Y-97265609D02*
X158180693Y-97360847D01*
X158180693Y-97360847D02*
X158180693Y-97598942D01*
X158180693Y-97598942D02*
X158133074Y-97694180D01*
X158133074Y-97694180D02*
X158085455Y-97741800D01*
X158085455Y-97741800D02*
X157990217Y-97789419D01*
X157990217Y-97789419D02*
X157704503Y-97789419D01*
X157704503Y-97789419D02*
X157609265Y-97741800D01*
X157609265Y-97741800D02*
X157561646Y-97694180D01*
X158466408Y-96789419D02*
X158799741Y-97789419D01*
X158799741Y-97789419D02*
X159133074Y-96789419D01*
X159371170Y-96789419D02*
X159990217Y-96789419D01*
X159990217Y-96789419D02*
X159656884Y-97170371D01*
X159656884Y-97170371D02*
X159799741Y-97170371D01*
X159799741Y-97170371D02*
X159894979Y-97217990D01*
X159894979Y-97217990D02*
X159942598Y-97265609D01*
X159942598Y-97265609D02*
X159990217Y-97360847D01*
X159990217Y-97360847D02*
X159990217Y-97598942D01*
X159990217Y-97598942D02*
X159942598Y-97694180D01*
X159942598Y-97694180D02*
X159894979Y-97741800D01*
X159894979Y-97741800D02*
X159799741Y-97789419D01*
X159799741Y-97789419D02*
X159514027Y-97789419D01*
X159514027Y-97789419D02*
X159418789Y-97741800D01*
X159418789Y-97741800D02*
X159371170Y-97694180D01*
X209954895Y-96263734D02*
X209154895Y-96263734D01*
X209154895Y-96263734D02*
X209954895Y-95806591D01*
X209954895Y-95806591D02*
X209154895Y-95806591D01*
X209154895Y-95197068D02*
X209726323Y-95197068D01*
X209726323Y-95197068D02*
X209840609Y-95235163D01*
X209840609Y-95235163D02*
X209916800Y-95311354D01*
X209916800Y-95311354D02*
X209954895Y-95425639D01*
X209954895Y-95425639D02*
X209954895Y-95501830D01*
X209954895Y-94816115D02*
X209154895Y-94816115D01*
X209154895Y-94816115D02*
X209726323Y-94549449D01*
X209726323Y-94549449D02*
X209154895Y-94282782D01*
X209154895Y-94282782D02*
X209954895Y-94282782D01*
X209231085Y-93939925D02*
X209192990Y-93901829D01*
X209192990Y-93901829D02*
X209154895Y-93825639D01*
X209154895Y-93825639D02*
X209154895Y-93635163D01*
X209154895Y-93635163D02*
X209192990Y-93558972D01*
X209192990Y-93558972D02*
X209231085Y-93520877D01*
X209231085Y-93520877D02*
X209307276Y-93482782D01*
X209307276Y-93482782D02*
X209383466Y-93482782D01*
X209383466Y-93482782D02*
X209497752Y-93520877D01*
X209497752Y-93520877D02*
X209954895Y-93978020D01*
X209954895Y-93978020D02*
X209954895Y-93482782D01*
X209497752Y-93025639D02*
X209459657Y-93101829D01*
X209459657Y-93101829D02*
X209421561Y-93139924D01*
X209421561Y-93139924D02*
X209345371Y-93178020D01*
X209345371Y-93178020D02*
X209307276Y-93178020D01*
X209307276Y-93178020D02*
X209231085Y-93139924D01*
X209231085Y-93139924D02*
X209192990Y-93101829D01*
X209192990Y-93101829D02*
X209154895Y-93025639D01*
X209154895Y-93025639D02*
X209154895Y-92873258D01*
X209154895Y-92873258D02*
X209192990Y-92797067D01*
X209192990Y-92797067D02*
X209231085Y-92758972D01*
X209231085Y-92758972D02*
X209307276Y-92720877D01*
X209307276Y-92720877D02*
X209345371Y-92720877D01*
X209345371Y-92720877D02*
X209421561Y-92758972D01*
X209421561Y-92758972D02*
X209459657Y-92797067D01*
X209459657Y-92797067D02*
X209497752Y-92873258D01*
X209497752Y-92873258D02*
X209497752Y-93025639D01*
X209497752Y-93025639D02*
X209535847Y-93101829D01*
X209535847Y-93101829D02*
X209573942Y-93139924D01*
X209573942Y-93139924D02*
X209650133Y-93178020D01*
X209650133Y-93178020D02*
X209802514Y-93178020D01*
X209802514Y-93178020D02*
X209878704Y-93139924D01*
X209878704Y-93139924D02*
X209916800Y-93101829D01*
X209916800Y-93101829D02*
X209954895Y-93025639D01*
X209954895Y-93025639D02*
X209954895Y-92873258D01*
X209954895Y-92873258D02*
X209916800Y-92797067D01*
X209916800Y-92797067D02*
X209878704Y-92758972D01*
X209878704Y-92758972D02*
X209802514Y-92720877D01*
X209802514Y-92720877D02*
X209650133Y-92720877D01*
X209650133Y-92720877D02*
X209573942Y-92758972D01*
X209573942Y-92758972D02*
X209535847Y-92797067D01*
X209535847Y-92797067D02*
X209497752Y-92873258D01*
X209421561Y-92035162D02*
X209954895Y-92035162D01*
X209116800Y-92225638D02*
X209688228Y-92416115D01*
X209688228Y-92416115D02*
X209688228Y-91920876D01*
X209154895Y-91235162D02*
X209154895Y-91616114D01*
X209154895Y-91616114D02*
X209535847Y-91654210D01*
X209535847Y-91654210D02*
X209497752Y-91616114D01*
X209497752Y-91616114D02*
X209459657Y-91539924D01*
X209459657Y-91539924D02*
X209459657Y-91349448D01*
X209459657Y-91349448D02*
X209497752Y-91273257D01*
X209497752Y-91273257D02*
X209535847Y-91235162D01*
X209535847Y-91235162D02*
X209612038Y-91197067D01*
X209612038Y-91197067D02*
X209802514Y-91197067D01*
X209802514Y-91197067D02*
X209878704Y-91235162D01*
X209878704Y-91235162D02*
X209916800Y-91273257D01*
X209916800Y-91273257D02*
X209954895Y-91349448D01*
X209954895Y-91349448D02*
X209954895Y-91539924D01*
X209954895Y-91539924D02*
X209916800Y-91616114D01*
X209916800Y-91616114D02*
X209878704Y-91654210D01*
X209954895Y-90854209D02*
X209154895Y-90854209D01*
X209154895Y-90854209D02*
X209154895Y-90663733D01*
X209154895Y-90663733D02*
X209192990Y-90549447D01*
X209192990Y-90549447D02*
X209269180Y-90473257D01*
X209269180Y-90473257D02*
X209345371Y-90435162D01*
X209345371Y-90435162D02*
X209497752Y-90397066D01*
X209497752Y-90397066D02*
X209612038Y-90397066D01*
X209612038Y-90397066D02*
X209764419Y-90435162D01*
X209764419Y-90435162D02*
X209840609Y-90473257D01*
X209840609Y-90473257D02*
X209916800Y-90549447D01*
X209916800Y-90549447D02*
X209954895Y-90663733D01*
X209954895Y-90663733D02*
X209954895Y-90854209D01*
X209954895Y-89673257D02*
X209954895Y-90054209D01*
X209954895Y-90054209D02*
X209154895Y-90054209D01*
X209954895Y-88987543D02*
X209954895Y-89444686D01*
X209954895Y-89216114D02*
X209154895Y-89216114D01*
X209154895Y-89216114D02*
X209269180Y-89292305D01*
X209269180Y-89292305D02*
X209345371Y-89368495D01*
X209345371Y-89368495D02*
X209383466Y-89444686D01*
X209650133Y-88644685D02*
X209650133Y-88035162D01*
X209154895Y-87730400D02*
X209154895Y-87235162D01*
X209154895Y-87235162D02*
X209459657Y-87501828D01*
X209459657Y-87501828D02*
X209459657Y-87387543D01*
X209459657Y-87387543D02*
X209497752Y-87311352D01*
X209497752Y-87311352D02*
X209535847Y-87273257D01*
X209535847Y-87273257D02*
X209612038Y-87235162D01*
X209612038Y-87235162D02*
X209802514Y-87235162D01*
X209802514Y-87235162D02*
X209878704Y-87273257D01*
X209878704Y-87273257D02*
X209916800Y-87311352D01*
X209916800Y-87311352D02*
X209954895Y-87387543D01*
X209954895Y-87387543D02*
X209954895Y-87616114D01*
X209954895Y-87616114D02*
X209916800Y-87692305D01*
X209916800Y-87692305D02*
X209878704Y-87730400D01*
X209154895Y-86968495D02*
X209154895Y-86473257D01*
X209154895Y-86473257D02*
X209459657Y-86739923D01*
X209459657Y-86739923D02*
X209459657Y-86625638D01*
X209459657Y-86625638D02*
X209497752Y-86549447D01*
X209497752Y-86549447D02*
X209535847Y-86511352D01*
X209535847Y-86511352D02*
X209612038Y-86473257D01*
X209612038Y-86473257D02*
X209802514Y-86473257D01*
X209802514Y-86473257D02*
X209878704Y-86511352D01*
X209878704Y-86511352D02*
X209916800Y-86549447D01*
X209916800Y-86549447D02*
X209954895Y-86625638D01*
X209954895Y-86625638D02*
X209954895Y-86854209D01*
X209954895Y-86854209D02*
X209916800Y-86930400D01*
X209916800Y-86930400D02*
X209878704Y-86968495D01*
X207837693Y-77406038D02*
X207742455Y-77358419D01*
X207742455Y-77358419D02*
X207599598Y-77358419D01*
X207599598Y-77358419D02*
X207456741Y-77406038D01*
X207456741Y-77406038D02*
X207361503Y-77501276D01*
X207361503Y-77501276D02*
X207313884Y-77596514D01*
X207313884Y-77596514D02*
X207266265Y-77786990D01*
X207266265Y-77786990D02*
X207266265Y-77929847D01*
X207266265Y-77929847D02*
X207313884Y-78120323D01*
X207313884Y-78120323D02*
X207361503Y-78215561D01*
X207361503Y-78215561D02*
X207456741Y-78310800D01*
X207456741Y-78310800D02*
X207599598Y-78358419D01*
X207599598Y-78358419D02*
X207694836Y-78358419D01*
X207694836Y-78358419D02*
X207837693Y-78310800D01*
X207837693Y-78310800D02*
X207885312Y-78263180D01*
X207885312Y-78263180D02*
X207885312Y-77929847D01*
X207885312Y-77929847D02*
X207694836Y-77929847D01*
X208313884Y-78358419D02*
X208313884Y-77358419D01*
X208313884Y-77358419D02*
X208885312Y-78358419D01*
X208885312Y-78358419D02*
X208885312Y-77358419D01*
X209361503Y-78358419D02*
X209361503Y-77358419D01*
X209361503Y-77358419D02*
X209599598Y-77358419D01*
X209599598Y-77358419D02*
X209742455Y-77406038D01*
X209742455Y-77406038D02*
X209837693Y-77501276D01*
X209837693Y-77501276D02*
X209885312Y-77596514D01*
X209885312Y-77596514D02*
X209932931Y-77786990D01*
X209932931Y-77786990D02*
X209932931Y-77929847D01*
X209932931Y-77929847D02*
X209885312Y-78120323D01*
X209885312Y-78120323D02*
X209837693Y-78215561D01*
X209837693Y-78215561D02*
X209742455Y-78310800D01*
X209742455Y-78310800D02*
X209599598Y-78358419D01*
X209599598Y-78358419D02*
X209361503Y-78358419D01*
X207472646Y-74818419D02*
X208091693Y-74818419D01*
X208091693Y-74818419D02*
X207758360Y-75199371D01*
X207758360Y-75199371D02*
X207901217Y-75199371D01*
X207901217Y-75199371D02*
X207996455Y-75246990D01*
X207996455Y-75246990D02*
X208044074Y-75294609D01*
X208044074Y-75294609D02*
X208091693Y-75389847D01*
X208091693Y-75389847D02*
X208091693Y-75627942D01*
X208091693Y-75627942D02*
X208044074Y-75723180D01*
X208044074Y-75723180D02*
X207996455Y-75770800D01*
X207996455Y-75770800D02*
X207901217Y-75818419D01*
X207901217Y-75818419D02*
X207615503Y-75818419D01*
X207615503Y-75818419D02*
X207520265Y-75770800D01*
X207520265Y-75770800D02*
X207472646Y-75723180D01*
X208377408Y-74818419D02*
X208710741Y-75818419D01*
X208710741Y-75818419D02*
X209044074Y-74818419D01*
X209282170Y-74818419D02*
X209901217Y-74818419D01*
X209901217Y-74818419D02*
X209567884Y-75199371D01*
X209567884Y-75199371D02*
X209710741Y-75199371D01*
X209710741Y-75199371D02*
X209805979Y-75246990D01*
X209805979Y-75246990D02*
X209853598Y-75294609D01*
X209853598Y-75294609D02*
X209901217Y-75389847D01*
X209901217Y-75389847D02*
X209901217Y-75627942D01*
X209901217Y-75627942D02*
X209853598Y-75723180D01*
X209853598Y-75723180D02*
X209805979Y-75770800D01*
X209805979Y-75770800D02*
X209710741Y-75818419D01*
X209710741Y-75818419D02*
X209425027Y-75818419D01*
X209425027Y-75818419D02*
X209329789Y-75770800D01*
X209329789Y-75770800D02*
X209282170Y-75723180D01*
X153989693Y-77406038D02*
X153894455Y-77358419D01*
X153894455Y-77358419D02*
X153751598Y-77358419D01*
X153751598Y-77358419D02*
X153608741Y-77406038D01*
X153608741Y-77406038D02*
X153513503Y-77501276D01*
X153513503Y-77501276D02*
X153465884Y-77596514D01*
X153465884Y-77596514D02*
X153418265Y-77786990D01*
X153418265Y-77786990D02*
X153418265Y-77929847D01*
X153418265Y-77929847D02*
X153465884Y-78120323D01*
X153465884Y-78120323D02*
X153513503Y-78215561D01*
X153513503Y-78215561D02*
X153608741Y-78310800D01*
X153608741Y-78310800D02*
X153751598Y-78358419D01*
X153751598Y-78358419D02*
X153846836Y-78358419D01*
X153846836Y-78358419D02*
X153989693Y-78310800D01*
X153989693Y-78310800D02*
X154037312Y-78263180D01*
X154037312Y-78263180D02*
X154037312Y-77929847D01*
X154037312Y-77929847D02*
X153846836Y-77929847D01*
X154465884Y-78358419D02*
X154465884Y-77358419D01*
X154465884Y-77358419D02*
X155037312Y-78358419D01*
X155037312Y-78358419D02*
X155037312Y-77358419D01*
X155513503Y-78358419D02*
X155513503Y-77358419D01*
X155513503Y-77358419D02*
X155751598Y-77358419D01*
X155751598Y-77358419D02*
X155894455Y-77406038D01*
X155894455Y-77406038D02*
X155989693Y-77501276D01*
X155989693Y-77501276D02*
X156037312Y-77596514D01*
X156037312Y-77596514D02*
X156084931Y-77786990D01*
X156084931Y-77786990D02*
X156084931Y-77929847D01*
X156084931Y-77929847D02*
X156037312Y-78120323D01*
X156037312Y-78120323D02*
X155989693Y-78215561D01*
X155989693Y-78215561D02*
X155894455Y-78310800D01*
X155894455Y-78310800D02*
X155751598Y-78358419D01*
X155751598Y-78358419D02*
X155513503Y-78358419D01*
X206072800Y-66393334D02*
X206120419Y-66250477D01*
X206120419Y-66250477D02*
X206120419Y-66012382D01*
X206120419Y-66012382D02*
X206072800Y-65917144D01*
X206072800Y-65917144D02*
X206025180Y-65869525D01*
X206025180Y-65869525D02*
X205929942Y-65821906D01*
X205929942Y-65821906D02*
X205834704Y-65821906D01*
X205834704Y-65821906D02*
X205739466Y-65869525D01*
X205739466Y-65869525D02*
X205691847Y-65917144D01*
X205691847Y-65917144D02*
X205644228Y-66012382D01*
X205644228Y-66012382D02*
X205596609Y-66202858D01*
X205596609Y-66202858D02*
X205548990Y-66298096D01*
X205548990Y-66298096D02*
X205501371Y-66345715D01*
X205501371Y-66345715D02*
X205406133Y-66393334D01*
X205406133Y-66393334D02*
X205310895Y-66393334D01*
X205310895Y-66393334D02*
X205215657Y-66345715D01*
X205215657Y-66345715D02*
X205168038Y-66298096D01*
X205168038Y-66298096D02*
X205120419Y-66202858D01*
X205120419Y-66202858D02*
X205120419Y-65964763D01*
X205120419Y-65964763D02*
X205168038Y-65821906D01*
X205120419Y-65536191D02*
X205120419Y-64964763D01*
X206120419Y-65250477D02*
X205120419Y-65250477D01*
X206120419Y-64060001D02*
X205644228Y-64393334D01*
X206120419Y-64631429D02*
X205120419Y-64631429D01*
X205120419Y-64631429D02*
X205120419Y-64250477D01*
X205120419Y-64250477D02*
X205168038Y-64155239D01*
X205168038Y-64155239D02*
X205215657Y-64107620D01*
X205215657Y-64107620D02*
X205310895Y-64060001D01*
X205310895Y-64060001D02*
X205453752Y-64060001D01*
X205453752Y-64060001D02*
X205548990Y-64107620D01*
X205548990Y-64107620D02*
X205596609Y-64155239D01*
X205596609Y-64155239D02*
X205644228Y-64250477D01*
X205644228Y-64250477D02*
X205644228Y-64631429D01*
X205120419Y-63440953D02*
X205120419Y-63250477D01*
X205120419Y-63250477D02*
X205168038Y-63155239D01*
X205168038Y-63155239D02*
X205263276Y-63060001D01*
X205263276Y-63060001D02*
X205453752Y-63012382D01*
X205453752Y-63012382D02*
X205787085Y-63012382D01*
X205787085Y-63012382D02*
X205977561Y-63060001D01*
X205977561Y-63060001D02*
X206072800Y-63155239D01*
X206072800Y-63155239D02*
X206120419Y-63250477D01*
X206120419Y-63250477D02*
X206120419Y-63440953D01*
X206120419Y-63440953D02*
X206072800Y-63536191D01*
X206072800Y-63536191D02*
X205977561Y-63631429D01*
X205977561Y-63631429D02*
X205787085Y-63679048D01*
X205787085Y-63679048D02*
X205453752Y-63679048D01*
X205453752Y-63679048D02*
X205263276Y-63631429D01*
X205263276Y-63631429D02*
X205168038Y-63536191D01*
X205168038Y-63536191D02*
X205120419Y-63440953D01*
X205596609Y-62250477D02*
X205644228Y-62107620D01*
X205644228Y-62107620D02*
X205691847Y-62060001D01*
X205691847Y-62060001D02*
X205787085Y-62012382D01*
X205787085Y-62012382D02*
X205929942Y-62012382D01*
X205929942Y-62012382D02*
X206025180Y-62060001D01*
X206025180Y-62060001D02*
X206072800Y-62107620D01*
X206072800Y-62107620D02*
X206120419Y-62202858D01*
X206120419Y-62202858D02*
X206120419Y-62583810D01*
X206120419Y-62583810D02*
X205120419Y-62583810D01*
X205120419Y-62583810D02*
X205120419Y-62250477D01*
X205120419Y-62250477D02*
X205168038Y-62155239D01*
X205168038Y-62155239D02*
X205215657Y-62107620D01*
X205215657Y-62107620D02*
X205310895Y-62060001D01*
X205310895Y-62060001D02*
X205406133Y-62060001D01*
X205406133Y-62060001D02*
X205501371Y-62107620D01*
X205501371Y-62107620D02*
X205548990Y-62155239D01*
X205548990Y-62155239D02*
X205596609Y-62250477D01*
X205596609Y-62250477D02*
X205596609Y-62583810D01*
X205596609Y-61583810D02*
X205596609Y-61250477D01*
X206120419Y-61107620D02*
X206120419Y-61583810D01*
X206120419Y-61583810D02*
X205120419Y-61583810D01*
X205120419Y-61583810D02*
X205120419Y-61107620D01*
X159831693Y-92138038D02*
X159736455Y-92090419D01*
X159736455Y-92090419D02*
X159593598Y-92090419D01*
X159593598Y-92090419D02*
X159450741Y-92138038D01*
X159450741Y-92138038D02*
X159355503Y-92233276D01*
X159355503Y-92233276D02*
X159307884Y-92328514D01*
X159307884Y-92328514D02*
X159260265Y-92518990D01*
X159260265Y-92518990D02*
X159260265Y-92661847D01*
X159260265Y-92661847D02*
X159307884Y-92852323D01*
X159307884Y-92852323D02*
X159355503Y-92947561D01*
X159355503Y-92947561D02*
X159450741Y-93042800D01*
X159450741Y-93042800D02*
X159593598Y-93090419D01*
X159593598Y-93090419D02*
X159688836Y-93090419D01*
X159688836Y-93090419D02*
X159831693Y-93042800D01*
X159831693Y-93042800D02*
X159879312Y-92995180D01*
X159879312Y-92995180D02*
X159879312Y-92661847D01*
X159879312Y-92661847D02*
X159688836Y-92661847D01*
X160307884Y-93090419D02*
X160307884Y-92090419D01*
X160307884Y-92090419D02*
X160879312Y-93090419D01*
X160879312Y-93090419D02*
X160879312Y-92090419D01*
X161355503Y-93090419D02*
X161355503Y-92090419D01*
X161355503Y-92090419D02*
X161593598Y-92090419D01*
X161593598Y-92090419D02*
X161736455Y-92138038D01*
X161736455Y-92138038D02*
X161831693Y-92233276D01*
X161831693Y-92233276D02*
X161879312Y-92328514D01*
X161879312Y-92328514D02*
X161926931Y-92518990D01*
X161926931Y-92518990D02*
X161926931Y-92661847D01*
X161926931Y-92661847D02*
X161879312Y-92852323D01*
X161879312Y-92852323D02*
X161831693Y-92947561D01*
X161831693Y-92947561D02*
X161736455Y-93042800D01*
X161736455Y-93042800D02*
X161593598Y-93090419D01*
X161593598Y-93090419D02*
X161355503Y-93090419D01*
X159784074Y-85343419D02*
X159307884Y-85343419D01*
X159307884Y-85343419D02*
X159307884Y-84343419D01*
X160069789Y-85057704D02*
X160545979Y-85057704D01*
X159974551Y-85343419D02*
X160307884Y-84343419D01*
X160307884Y-84343419D02*
X160641217Y-85343419D01*
X160831694Y-84343419D02*
X161403122Y-84343419D01*
X161117408Y-85343419D02*
X161117408Y-84343419D01*
X162307884Y-85248180D02*
X162260265Y-85295800D01*
X162260265Y-85295800D02*
X162117408Y-85343419D01*
X162117408Y-85343419D02*
X162022170Y-85343419D01*
X162022170Y-85343419D02*
X161879313Y-85295800D01*
X161879313Y-85295800D02*
X161784075Y-85200561D01*
X161784075Y-85200561D02*
X161736456Y-85105323D01*
X161736456Y-85105323D02*
X161688837Y-84914847D01*
X161688837Y-84914847D02*
X161688837Y-84771990D01*
X161688837Y-84771990D02*
X161736456Y-84581514D01*
X161736456Y-84581514D02*
X161784075Y-84486276D01*
X161784075Y-84486276D02*
X161879313Y-84391038D01*
X161879313Y-84391038D02*
X162022170Y-84343419D01*
X162022170Y-84343419D02*
X162117408Y-84343419D01*
X162117408Y-84343419D02*
X162260265Y-84391038D01*
X162260265Y-84391038D02*
X162307884Y-84438657D01*
X162736456Y-85343419D02*
X162736456Y-84343419D01*
X162736456Y-84819609D02*
X163307884Y-84819609D01*
X163307884Y-85343419D02*
X163307884Y-84343419D01*
X206282027Y-81168419D02*
X206615360Y-82168419D01*
X206615360Y-82168419D02*
X206948693Y-81168419D01*
X207853455Y-82073180D02*
X207805836Y-82120800D01*
X207805836Y-82120800D02*
X207662979Y-82168419D01*
X207662979Y-82168419D02*
X207567741Y-82168419D01*
X207567741Y-82168419D02*
X207424884Y-82120800D01*
X207424884Y-82120800D02*
X207329646Y-82025561D01*
X207329646Y-82025561D02*
X207282027Y-81930323D01*
X207282027Y-81930323D02*
X207234408Y-81739847D01*
X207234408Y-81739847D02*
X207234408Y-81596990D01*
X207234408Y-81596990D02*
X207282027Y-81406514D01*
X207282027Y-81406514D02*
X207329646Y-81311276D01*
X207329646Y-81311276D02*
X207424884Y-81216038D01*
X207424884Y-81216038D02*
X207567741Y-81168419D01*
X207567741Y-81168419D02*
X207662979Y-81168419D01*
X207662979Y-81168419D02*
X207805836Y-81216038D01*
X207805836Y-81216038D02*
X207853455Y-81263657D01*
X208853455Y-82073180D02*
X208805836Y-82120800D01*
X208805836Y-82120800D02*
X208662979Y-82168419D01*
X208662979Y-82168419D02*
X208567741Y-82168419D01*
X208567741Y-82168419D02*
X208424884Y-82120800D01*
X208424884Y-82120800D02*
X208329646Y-82025561D01*
X208329646Y-82025561D02*
X208282027Y-81930323D01*
X208282027Y-81930323D02*
X208234408Y-81739847D01*
X208234408Y-81739847D02*
X208234408Y-81596990D01*
X208234408Y-81596990D02*
X208282027Y-81406514D01*
X208282027Y-81406514D02*
X208329646Y-81311276D01*
X208329646Y-81311276D02*
X208424884Y-81216038D01*
X208424884Y-81216038D02*
X208567741Y-81168419D01*
X208567741Y-81168419D02*
X208662979Y-81168419D01*
X208662979Y-81168419D02*
X208805836Y-81216038D01*
X208805836Y-81216038D02*
X208853455Y-81263657D01*
X207276238Y-65313906D02*
X207228619Y-65409144D01*
X207228619Y-65409144D02*
X207228619Y-65552001D01*
X207228619Y-65552001D02*
X207276238Y-65694858D01*
X207276238Y-65694858D02*
X207371476Y-65790096D01*
X207371476Y-65790096D02*
X207466714Y-65837715D01*
X207466714Y-65837715D02*
X207657190Y-65885334D01*
X207657190Y-65885334D02*
X207800047Y-65885334D01*
X207800047Y-65885334D02*
X207990523Y-65837715D01*
X207990523Y-65837715D02*
X208085761Y-65790096D01*
X208085761Y-65790096D02*
X208181000Y-65694858D01*
X208181000Y-65694858D02*
X208228619Y-65552001D01*
X208228619Y-65552001D02*
X208228619Y-65456763D01*
X208228619Y-65456763D02*
X208181000Y-65313906D01*
X208181000Y-65313906D02*
X208133380Y-65266287D01*
X208133380Y-65266287D02*
X207800047Y-65266287D01*
X207800047Y-65266287D02*
X207800047Y-65456763D01*
X208228619Y-64837715D02*
X207228619Y-64837715D01*
X207228619Y-64837715D02*
X208228619Y-64266287D01*
X208228619Y-64266287D02*
X207228619Y-64266287D01*
X208228619Y-63790096D02*
X207228619Y-63790096D01*
X207228619Y-63790096D02*
X207228619Y-63552001D01*
X207228619Y-63552001D02*
X207276238Y-63409144D01*
X207276238Y-63409144D02*
X207371476Y-63313906D01*
X207371476Y-63313906D02*
X207466714Y-63266287D01*
X207466714Y-63266287D02*
X207657190Y-63218668D01*
X207657190Y-63218668D02*
X207800047Y-63218668D01*
X207800047Y-63218668D02*
X207990523Y-63266287D01*
X207990523Y-63266287D02*
X208085761Y-63313906D01*
X208085761Y-63313906D02*
X208181000Y-63409144D01*
X208181000Y-63409144D02*
X208228619Y-63552001D01*
X208228619Y-63552001D02*
X208228619Y-63790096D01*
X181628074Y-80025419D02*
X181151884Y-80025419D01*
X181151884Y-80025419D02*
X181104265Y-80501609D01*
X181104265Y-80501609D02*
X181151884Y-80453990D01*
X181151884Y-80453990D02*
X181247122Y-80406371D01*
X181247122Y-80406371D02*
X181485217Y-80406371D01*
X181485217Y-80406371D02*
X181580455Y-80453990D01*
X181580455Y-80453990D02*
X181628074Y-80501609D01*
X181628074Y-80501609D02*
X181675693Y-80596847D01*
X181675693Y-80596847D02*
X181675693Y-80834942D01*
X181675693Y-80834942D02*
X181628074Y-80930180D01*
X181628074Y-80930180D02*
X181580455Y-80977800D01*
X181580455Y-80977800D02*
X181485217Y-81025419D01*
X181485217Y-81025419D02*
X181247122Y-81025419D01*
X181247122Y-81025419D02*
X181151884Y-80977800D01*
X181151884Y-80977800D02*
X181104265Y-80930180D01*
X181961408Y-80025419D02*
X182294741Y-81025419D01*
X182294741Y-81025419D02*
X182628074Y-80025419D01*
X188745895Y-94104734D02*
X187945895Y-94104734D01*
X187945895Y-94104734D02*
X188745895Y-93647591D01*
X188745895Y-93647591D02*
X187945895Y-93647591D01*
X187945895Y-93038068D02*
X188517323Y-93038068D01*
X188517323Y-93038068D02*
X188631609Y-93076163D01*
X188631609Y-93076163D02*
X188707800Y-93152354D01*
X188707800Y-93152354D02*
X188745895Y-93266639D01*
X188745895Y-93266639D02*
X188745895Y-93342830D01*
X188745895Y-92657115D02*
X187945895Y-92657115D01*
X187945895Y-92657115D02*
X188517323Y-92390449D01*
X188517323Y-92390449D02*
X187945895Y-92123782D01*
X187945895Y-92123782D02*
X188745895Y-92123782D01*
X187945895Y-91819020D02*
X187945895Y-91285686D01*
X187945895Y-91285686D02*
X188745895Y-91628544D01*
X188288752Y-90866639D02*
X188250657Y-90942829D01*
X188250657Y-90942829D02*
X188212561Y-90980924D01*
X188212561Y-90980924D02*
X188136371Y-91019020D01*
X188136371Y-91019020D02*
X188098276Y-91019020D01*
X188098276Y-91019020D02*
X188022085Y-90980924D01*
X188022085Y-90980924D02*
X187983990Y-90942829D01*
X187983990Y-90942829D02*
X187945895Y-90866639D01*
X187945895Y-90866639D02*
X187945895Y-90714258D01*
X187945895Y-90714258D02*
X187983990Y-90638067D01*
X187983990Y-90638067D02*
X188022085Y-90599972D01*
X188022085Y-90599972D02*
X188098276Y-90561877D01*
X188098276Y-90561877D02*
X188136371Y-90561877D01*
X188136371Y-90561877D02*
X188212561Y-90599972D01*
X188212561Y-90599972D02*
X188250657Y-90638067D01*
X188250657Y-90638067D02*
X188288752Y-90714258D01*
X188288752Y-90714258D02*
X188288752Y-90866639D01*
X188288752Y-90866639D02*
X188326847Y-90942829D01*
X188326847Y-90942829D02*
X188364942Y-90980924D01*
X188364942Y-90980924D02*
X188441133Y-91019020D01*
X188441133Y-91019020D02*
X188593514Y-91019020D01*
X188593514Y-91019020D02*
X188669704Y-90980924D01*
X188669704Y-90980924D02*
X188707800Y-90942829D01*
X188707800Y-90942829D02*
X188745895Y-90866639D01*
X188745895Y-90866639D02*
X188745895Y-90714258D01*
X188745895Y-90714258D02*
X188707800Y-90638067D01*
X188707800Y-90638067D02*
X188669704Y-90599972D01*
X188669704Y-90599972D02*
X188593514Y-90561877D01*
X188593514Y-90561877D02*
X188441133Y-90561877D01*
X188441133Y-90561877D02*
X188364942Y-90599972D01*
X188364942Y-90599972D02*
X188326847Y-90638067D01*
X188326847Y-90638067D02*
X188288752Y-90714258D01*
X187945895Y-90066638D02*
X187945895Y-89990448D01*
X187945895Y-89990448D02*
X187983990Y-89914257D01*
X187983990Y-89914257D02*
X188022085Y-89876162D01*
X188022085Y-89876162D02*
X188098276Y-89838067D01*
X188098276Y-89838067D02*
X188250657Y-89799972D01*
X188250657Y-89799972D02*
X188441133Y-89799972D01*
X188441133Y-89799972D02*
X188593514Y-89838067D01*
X188593514Y-89838067D02*
X188669704Y-89876162D01*
X188669704Y-89876162D02*
X188707800Y-89914257D01*
X188707800Y-89914257D02*
X188745895Y-89990448D01*
X188745895Y-89990448D02*
X188745895Y-90066638D01*
X188745895Y-90066638D02*
X188707800Y-90142829D01*
X188707800Y-90142829D02*
X188669704Y-90180924D01*
X188669704Y-90180924D02*
X188593514Y-90219019D01*
X188593514Y-90219019D02*
X188441133Y-90257115D01*
X188441133Y-90257115D02*
X188250657Y-90257115D01*
X188250657Y-90257115D02*
X188098276Y-90219019D01*
X188098276Y-90219019D02*
X188022085Y-90180924D01*
X188022085Y-90180924D02*
X187983990Y-90142829D01*
X187983990Y-90142829D02*
X187945895Y-90066638D01*
X187945895Y-89076162D02*
X187945895Y-89457114D01*
X187945895Y-89457114D02*
X188326847Y-89495210D01*
X188326847Y-89495210D02*
X188288752Y-89457114D01*
X188288752Y-89457114D02*
X188250657Y-89380924D01*
X188250657Y-89380924D02*
X188250657Y-89190448D01*
X188250657Y-89190448D02*
X188288752Y-89114257D01*
X188288752Y-89114257D02*
X188326847Y-89076162D01*
X188326847Y-89076162D02*
X188403038Y-89038067D01*
X188403038Y-89038067D02*
X188593514Y-89038067D01*
X188593514Y-89038067D02*
X188669704Y-89076162D01*
X188669704Y-89076162D02*
X188707800Y-89114257D01*
X188707800Y-89114257D02*
X188745895Y-89190448D01*
X188745895Y-89190448D02*
X188745895Y-89380924D01*
X188745895Y-89380924D02*
X188707800Y-89457114D01*
X188707800Y-89457114D02*
X188669704Y-89495210D01*
X188707800Y-88733305D02*
X188745895Y-88619019D01*
X188745895Y-88619019D02*
X188745895Y-88428543D01*
X188745895Y-88428543D02*
X188707800Y-88352352D01*
X188707800Y-88352352D02*
X188669704Y-88314257D01*
X188669704Y-88314257D02*
X188593514Y-88276162D01*
X188593514Y-88276162D02*
X188517323Y-88276162D01*
X188517323Y-88276162D02*
X188441133Y-88314257D01*
X188441133Y-88314257D02*
X188403038Y-88352352D01*
X188403038Y-88352352D02*
X188364942Y-88428543D01*
X188364942Y-88428543D02*
X188326847Y-88580924D01*
X188326847Y-88580924D02*
X188288752Y-88657114D01*
X188288752Y-88657114D02*
X188250657Y-88695209D01*
X188250657Y-88695209D02*
X188174466Y-88733305D01*
X188174466Y-88733305D02*
X188098276Y-88733305D01*
X188098276Y-88733305D02*
X188022085Y-88695209D01*
X188022085Y-88695209D02*
X187983990Y-88657114D01*
X187983990Y-88657114D02*
X187945895Y-88580924D01*
X187945895Y-88580924D02*
X187945895Y-88390447D01*
X187945895Y-88390447D02*
X187983990Y-88276162D01*
X188745895Y-87933304D02*
X187945895Y-87933304D01*
X187945895Y-87933304D02*
X187945895Y-87742828D01*
X187945895Y-87742828D02*
X187983990Y-87628542D01*
X187983990Y-87628542D02*
X188060180Y-87552352D01*
X188060180Y-87552352D02*
X188136371Y-87514257D01*
X188136371Y-87514257D02*
X188288752Y-87476161D01*
X188288752Y-87476161D02*
X188403038Y-87476161D01*
X188403038Y-87476161D02*
X188555419Y-87514257D01*
X188555419Y-87514257D02*
X188631609Y-87552352D01*
X188631609Y-87552352D02*
X188707800Y-87628542D01*
X188707800Y-87628542D02*
X188745895Y-87742828D01*
X188745895Y-87742828D02*
X188745895Y-87933304D01*
X188745895Y-86752352D02*
X188745895Y-87133304D01*
X188745895Y-87133304D02*
X187945895Y-87133304D01*
X188745895Y-86066638D02*
X188745895Y-86523781D01*
X188745895Y-86295209D02*
X187945895Y-86295209D01*
X187945895Y-86295209D02*
X188060180Y-86371400D01*
X188060180Y-86371400D02*
X188136371Y-86447590D01*
X188136371Y-86447590D02*
X188174466Y-86523781D01*
X159285665Y-90528200D02*
X159428522Y-90575819D01*
X159428522Y-90575819D02*
X159666617Y-90575819D01*
X159666617Y-90575819D02*
X159761855Y-90528200D01*
X159761855Y-90528200D02*
X159809474Y-90480580D01*
X159809474Y-90480580D02*
X159857093Y-90385342D01*
X159857093Y-90385342D02*
X159857093Y-90290104D01*
X159857093Y-90290104D02*
X159809474Y-90194866D01*
X159809474Y-90194866D02*
X159761855Y-90147247D01*
X159761855Y-90147247D02*
X159666617Y-90099628D01*
X159666617Y-90099628D02*
X159476141Y-90052009D01*
X159476141Y-90052009D02*
X159380903Y-90004390D01*
X159380903Y-90004390D02*
X159333284Y-89956771D01*
X159333284Y-89956771D02*
X159285665Y-89861533D01*
X159285665Y-89861533D02*
X159285665Y-89766295D01*
X159285665Y-89766295D02*
X159333284Y-89671057D01*
X159333284Y-89671057D02*
X159380903Y-89623438D01*
X159380903Y-89623438D02*
X159476141Y-89575819D01*
X159476141Y-89575819D02*
X159714236Y-89575819D01*
X159714236Y-89575819D02*
X159857093Y-89623438D01*
X160142808Y-89575819D02*
X160714236Y-89575819D01*
X160428522Y-90575819D02*
X160428522Y-89575819D01*
X161618998Y-90575819D02*
X161285665Y-90099628D01*
X161047570Y-90575819D02*
X161047570Y-89575819D01*
X161047570Y-89575819D02*
X161428522Y-89575819D01*
X161428522Y-89575819D02*
X161523760Y-89623438D01*
X161523760Y-89623438D02*
X161571379Y-89671057D01*
X161571379Y-89671057D02*
X161618998Y-89766295D01*
X161618998Y-89766295D02*
X161618998Y-89909152D01*
X161618998Y-89909152D02*
X161571379Y-90004390D01*
X161571379Y-90004390D02*
X161523760Y-90052009D01*
X161523760Y-90052009D02*
X161428522Y-90099628D01*
X161428522Y-90099628D02*
X161047570Y-90099628D01*
X162238046Y-89575819D02*
X162428522Y-89575819D01*
X162428522Y-89575819D02*
X162523760Y-89623438D01*
X162523760Y-89623438D02*
X162618998Y-89718676D01*
X162618998Y-89718676D02*
X162666617Y-89909152D01*
X162666617Y-89909152D02*
X162666617Y-90242485D01*
X162666617Y-90242485D02*
X162618998Y-90432961D01*
X162618998Y-90432961D02*
X162523760Y-90528200D01*
X162523760Y-90528200D02*
X162428522Y-90575819D01*
X162428522Y-90575819D02*
X162238046Y-90575819D01*
X162238046Y-90575819D02*
X162142808Y-90528200D01*
X162142808Y-90528200D02*
X162047570Y-90432961D01*
X162047570Y-90432961D02*
X161999951Y-90242485D01*
X161999951Y-90242485D02*
X161999951Y-89909152D01*
X161999951Y-89909152D02*
X162047570Y-89718676D01*
X162047570Y-89718676D02*
X162142808Y-89623438D01*
X162142808Y-89623438D02*
X162238046Y-89575819D01*
X163428522Y-90052009D02*
X163571379Y-90099628D01*
X163571379Y-90099628D02*
X163618998Y-90147247D01*
X163618998Y-90147247D02*
X163666617Y-90242485D01*
X163666617Y-90242485D02*
X163666617Y-90385342D01*
X163666617Y-90385342D02*
X163618998Y-90480580D01*
X163618998Y-90480580D02*
X163571379Y-90528200D01*
X163571379Y-90528200D02*
X163476141Y-90575819D01*
X163476141Y-90575819D02*
X163095189Y-90575819D01*
X163095189Y-90575819D02*
X163095189Y-89575819D01*
X163095189Y-89575819D02*
X163428522Y-89575819D01*
X163428522Y-89575819D02*
X163523760Y-89623438D01*
X163523760Y-89623438D02*
X163571379Y-89671057D01*
X163571379Y-89671057D02*
X163618998Y-89766295D01*
X163618998Y-89766295D02*
X163618998Y-89861533D01*
X163618998Y-89861533D02*
X163571379Y-89956771D01*
X163571379Y-89956771D02*
X163523760Y-90004390D01*
X163523760Y-90004390D02*
X163428522Y-90052009D01*
X163428522Y-90052009D02*
X163095189Y-90052009D01*
X164095189Y-90052009D02*
X164428522Y-90052009D01*
X164571379Y-90575819D02*
X164095189Y-90575819D01*
X164095189Y-90575819D02*
X164095189Y-89575819D01*
X164095189Y-89575819D02*
X164571379Y-89575819D01*
X203662980Y-65139287D02*
X203710600Y-65186906D01*
X203710600Y-65186906D02*
X203758219Y-65329763D01*
X203758219Y-65329763D02*
X203758219Y-65425001D01*
X203758219Y-65425001D02*
X203710600Y-65567858D01*
X203710600Y-65567858D02*
X203615361Y-65663096D01*
X203615361Y-65663096D02*
X203520123Y-65710715D01*
X203520123Y-65710715D02*
X203329647Y-65758334D01*
X203329647Y-65758334D02*
X203186790Y-65758334D01*
X203186790Y-65758334D02*
X202996314Y-65710715D01*
X202996314Y-65710715D02*
X202901076Y-65663096D01*
X202901076Y-65663096D02*
X202805838Y-65567858D01*
X202805838Y-65567858D02*
X202758219Y-65425001D01*
X202758219Y-65425001D02*
X202758219Y-65329763D01*
X202758219Y-65329763D02*
X202805838Y-65186906D01*
X202805838Y-65186906D02*
X202853457Y-65139287D01*
X203758219Y-64234525D02*
X203758219Y-64710715D01*
X203758219Y-64710715D02*
X202758219Y-64710715D01*
X203758219Y-63901191D02*
X202758219Y-63901191D01*
X203758219Y-63329763D02*
X203186790Y-63758334D01*
X202758219Y-63329763D02*
X203329647Y-63901191D01*
X205095019Y-69819153D02*
X205095019Y-69200106D01*
X205095019Y-69200106D02*
X205475971Y-69533439D01*
X205475971Y-69533439D02*
X205475971Y-69390582D01*
X205475971Y-69390582D02*
X205523590Y-69295344D01*
X205523590Y-69295344D02*
X205571209Y-69247725D01*
X205571209Y-69247725D02*
X205666447Y-69200106D01*
X205666447Y-69200106D02*
X205904542Y-69200106D01*
X205904542Y-69200106D02*
X205999780Y-69247725D01*
X205999780Y-69247725D02*
X206047400Y-69295344D01*
X206047400Y-69295344D02*
X206095019Y-69390582D01*
X206095019Y-69390582D02*
X206095019Y-69676296D01*
X206095019Y-69676296D02*
X206047400Y-69771534D01*
X206047400Y-69771534D02*
X205999780Y-69819153D01*
X205095019Y-68914391D02*
X206095019Y-68581058D01*
X206095019Y-68581058D02*
X205095019Y-68247725D01*
X205095019Y-68009629D02*
X205095019Y-67390582D01*
X205095019Y-67390582D02*
X205475971Y-67723915D01*
X205475971Y-67723915D02*
X205475971Y-67581058D01*
X205475971Y-67581058D02*
X205523590Y-67485820D01*
X205523590Y-67485820D02*
X205571209Y-67438201D01*
X205571209Y-67438201D02*
X205666447Y-67390582D01*
X205666447Y-67390582D02*
X205904542Y-67390582D01*
X205904542Y-67390582D02*
X205999780Y-67438201D01*
X205999780Y-67438201D02*
X206047400Y-67485820D01*
X206047400Y-67485820D02*
X206095019Y-67581058D01*
X206095019Y-67581058D02*
X206095019Y-67866772D01*
X206095019Y-67866772D02*
X206047400Y-67962010D01*
X206047400Y-67962010D02*
X205999780Y-68009629D01*
X201323000Y-70457334D02*
X201370619Y-70314477D01*
X201370619Y-70314477D02*
X201370619Y-70076382D01*
X201370619Y-70076382D02*
X201323000Y-69981144D01*
X201323000Y-69981144D02*
X201275380Y-69933525D01*
X201275380Y-69933525D02*
X201180142Y-69885906D01*
X201180142Y-69885906D02*
X201084904Y-69885906D01*
X201084904Y-69885906D02*
X200989666Y-69933525D01*
X200989666Y-69933525D02*
X200942047Y-69981144D01*
X200942047Y-69981144D02*
X200894428Y-70076382D01*
X200894428Y-70076382D02*
X200846809Y-70266858D01*
X200846809Y-70266858D02*
X200799190Y-70362096D01*
X200799190Y-70362096D02*
X200751571Y-70409715D01*
X200751571Y-70409715D02*
X200656333Y-70457334D01*
X200656333Y-70457334D02*
X200561095Y-70457334D01*
X200561095Y-70457334D02*
X200465857Y-70409715D01*
X200465857Y-70409715D02*
X200418238Y-70362096D01*
X200418238Y-70362096D02*
X200370619Y-70266858D01*
X200370619Y-70266858D02*
X200370619Y-70028763D01*
X200370619Y-70028763D02*
X200418238Y-69885906D01*
X201370619Y-69457334D02*
X200370619Y-69457334D01*
X201370619Y-68981144D02*
X200370619Y-68981144D01*
X200370619Y-68981144D02*
X201370619Y-68409716D01*
X201370619Y-68409716D02*
X200370619Y-68409716D01*
X200370619Y-68028763D02*
X200370619Y-67409716D01*
X200370619Y-67409716D02*
X200751571Y-67743049D01*
X200751571Y-67743049D02*
X200751571Y-67600192D01*
X200751571Y-67600192D02*
X200799190Y-67504954D01*
X200799190Y-67504954D02*
X200846809Y-67457335D01*
X200846809Y-67457335D02*
X200942047Y-67409716D01*
X200942047Y-67409716D02*
X201180142Y-67409716D01*
X201180142Y-67409716D02*
X201275380Y-67457335D01*
X201275380Y-67457335D02*
X201323000Y-67504954D01*
X201323000Y-67504954D02*
X201370619Y-67600192D01*
X201370619Y-67600192D02*
X201370619Y-67885906D01*
X201370619Y-67885906D02*
X201323000Y-67981144D01*
X201323000Y-67981144D02*
X201275380Y-68028763D01*
X154434265Y-85295800D02*
X154577122Y-85343419D01*
X154577122Y-85343419D02*
X154815217Y-85343419D01*
X154815217Y-85343419D02*
X154910455Y-85295800D01*
X154910455Y-85295800D02*
X154958074Y-85248180D01*
X154958074Y-85248180D02*
X155005693Y-85152942D01*
X155005693Y-85152942D02*
X155005693Y-85057704D01*
X155005693Y-85057704D02*
X154958074Y-84962466D01*
X154958074Y-84962466D02*
X154910455Y-84914847D01*
X154910455Y-84914847D02*
X154815217Y-84867228D01*
X154815217Y-84867228D02*
X154624741Y-84819609D01*
X154624741Y-84819609D02*
X154529503Y-84771990D01*
X154529503Y-84771990D02*
X154481884Y-84724371D01*
X154481884Y-84724371D02*
X154434265Y-84629133D01*
X154434265Y-84629133D02*
X154434265Y-84533895D01*
X154434265Y-84533895D02*
X154481884Y-84438657D01*
X154481884Y-84438657D02*
X154529503Y-84391038D01*
X154529503Y-84391038D02*
X154624741Y-84343419D01*
X154624741Y-84343419D02*
X154862836Y-84343419D01*
X154862836Y-84343419D02*
X155005693Y-84391038D01*
X155434265Y-85343419D02*
X155434265Y-84343419D01*
X155910455Y-85343419D02*
X155910455Y-84343419D01*
X155910455Y-84343419D02*
X156481883Y-85343419D01*
X156481883Y-85343419D02*
X156481883Y-84343419D01*
X156862836Y-84343419D02*
X157481883Y-84343419D01*
X157481883Y-84343419D02*
X157148550Y-84724371D01*
X157148550Y-84724371D02*
X157291407Y-84724371D01*
X157291407Y-84724371D02*
X157386645Y-84771990D01*
X157386645Y-84771990D02*
X157434264Y-84819609D01*
X157434264Y-84819609D02*
X157481883Y-84914847D01*
X157481883Y-84914847D02*
X157481883Y-85152942D01*
X157481883Y-85152942D02*
X157434264Y-85248180D01*
X157434264Y-85248180D02*
X157386645Y-85295800D01*
X157386645Y-85295800D02*
X157291407Y-85343419D01*
X157291407Y-85343419D02*
X157005693Y-85343419D01*
X157005693Y-85343419D02*
X156910455Y-85295800D01*
X156910455Y-85295800D02*
X156862836Y-85248180D01*
X199113200Y-70431934D02*
X199160819Y-70289077D01*
X199160819Y-70289077D02*
X199160819Y-70050982D01*
X199160819Y-70050982D02*
X199113200Y-69955744D01*
X199113200Y-69955744D02*
X199065580Y-69908125D01*
X199065580Y-69908125D02*
X198970342Y-69860506D01*
X198970342Y-69860506D02*
X198875104Y-69860506D01*
X198875104Y-69860506D02*
X198779866Y-69908125D01*
X198779866Y-69908125D02*
X198732247Y-69955744D01*
X198732247Y-69955744D02*
X198684628Y-70050982D01*
X198684628Y-70050982D02*
X198637009Y-70241458D01*
X198637009Y-70241458D02*
X198589390Y-70336696D01*
X198589390Y-70336696D02*
X198541771Y-70384315D01*
X198541771Y-70384315D02*
X198446533Y-70431934D01*
X198446533Y-70431934D02*
X198351295Y-70431934D01*
X198351295Y-70431934D02*
X198256057Y-70384315D01*
X198256057Y-70384315D02*
X198208438Y-70336696D01*
X198208438Y-70336696D02*
X198160819Y-70241458D01*
X198160819Y-70241458D02*
X198160819Y-70003363D01*
X198160819Y-70003363D02*
X198208438Y-69860506D01*
X199160819Y-69431934D02*
X198160819Y-69431934D01*
X199160819Y-68955744D02*
X198160819Y-68955744D01*
X198160819Y-68955744D02*
X199160819Y-68384316D01*
X199160819Y-68384316D02*
X198160819Y-68384316D01*
X199160819Y-67384316D02*
X199160819Y-67955744D01*
X199160819Y-67670030D02*
X198160819Y-67670030D01*
X198160819Y-67670030D02*
X198303676Y-67765268D01*
X198303676Y-67765268D02*
X198398914Y-67860506D01*
X198398914Y-67860506D02*
X198446533Y-67955744D01*
X204361074Y-77739419D02*
X203884884Y-77739419D01*
X203884884Y-77739419D02*
X203837265Y-78215609D01*
X203837265Y-78215609D02*
X203884884Y-78167990D01*
X203884884Y-78167990D02*
X203980122Y-78120371D01*
X203980122Y-78120371D02*
X204218217Y-78120371D01*
X204218217Y-78120371D02*
X204313455Y-78167990D01*
X204313455Y-78167990D02*
X204361074Y-78215609D01*
X204361074Y-78215609D02*
X204408693Y-78310847D01*
X204408693Y-78310847D02*
X204408693Y-78548942D01*
X204408693Y-78548942D02*
X204361074Y-78644180D01*
X204361074Y-78644180D02*
X204313455Y-78691800D01*
X204313455Y-78691800D02*
X204218217Y-78739419D01*
X204218217Y-78739419D02*
X203980122Y-78739419D01*
X203980122Y-78739419D02*
X203884884Y-78691800D01*
X203884884Y-78691800D02*
X203837265Y-78644180D01*
X204694408Y-77739419D02*
X205027741Y-78739419D01*
X205027741Y-78739419D02*
X205361074Y-77739419D01*
X206485227Y-114959914D02*
X207009036Y-114959914D01*
X206770941Y-114959914D02*
X206532846Y-115436104D01*
X206818560Y-114674200D02*
X206818560Y-115721819D01*
X206866179Y-115102771D02*
X206913798Y-115245628D01*
X206913798Y-114626580D02*
X206485227Y-114674200D01*
X207151893Y-114864676D02*
X207056655Y-115198009D01*
X207675703Y-114864676D02*
X207532846Y-115198009D01*
X207389989Y-115150390D02*
X207485227Y-115388485D01*
X207485227Y-115388485D02*
X207580465Y-115531342D01*
X207580465Y-115531342D02*
X207675703Y-115721819D01*
X207389989Y-114578961D02*
X207389989Y-115102771D01*
X207389989Y-115102771D02*
X207247131Y-115340866D01*
X207247131Y-115340866D02*
X207151893Y-115531342D01*
X207151893Y-115531342D02*
X207009036Y-115721819D01*
X208247131Y-115340866D02*
X209199512Y-115340866D01*
X208294750Y-115007533D02*
X209199512Y-115007533D01*
X208818559Y-115721819D02*
X209199512Y-115721819D01*
X208294750Y-114674200D02*
X209199512Y-114674200D01*
X209199512Y-114674200D02*
X209199512Y-115721819D01*
X208294750Y-114674200D02*
X208294750Y-115102771D01*
X208294750Y-115102771D02*
X208199512Y-115388485D01*
X208199512Y-115388485D02*
X208104274Y-115531342D01*
X208104274Y-115531342D02*
X208009036Y-115721819D01*
X209866178Y-115055152D02*
X210151892Y-115293247D01*
X209866178Y-114626580D02*
X209866178Y-115674200D01*
X210056654Y-114959914D02*
X210151892Y-115055152D01*
X210199511Y-114912295D02*
X210294749Y-115007533D01*
X210628083Y-115007533D02*
X210723321Y-115245628D01*
X210866178Y-114959914D02*
X210913797Y-115198009D01*
X211151892Y-115007533D02*
X211151892Y-115245628D01*
X211151892Y-115245628D02*
X211104273Y-115388485D01*
X211104273Y-115388485D02*
X210961416Y-115531342D01*
X210961416Y-115531342D02*
X210818559Y-115626580D01*
X211961416Y-115055152D02*
X212247130Y-115293247D01*
X211961416Y-114626580D02*
X211961416Y-115674200D01*
X212580464Y-114864676D02*
X213009035Y-114864676D01*
X212628083Y-115721819D02*
X212818559Y-115721819D01*
X212818559Y-114578961D02*
X212818559Y-115721819D01*
X213009035Y-115150390D02*
X212580464Y-115293247D01*
X213056654Y-114817057D02*
X213818559Y-114817057D01*
X213247130Y-115102771D02*
X213389987Y-115388485D01*
X213389987Y-115388485D02*
X213580464Y-115626580D01*
X213580464Y-115626580D02*
X213770940Y-115721819D01*
X213294749Y-114578961D02*
X213199511Y-115102771D01*
X213199511Y-115102771D02*
X213199511Y-115293247D01*
X213199511Y-115293247D02*
X213009035Y-115674200D01*
X213247130Y-115102771D02*
X213723321Y-115102771D01*
X213723321Y-115102771D02*
X213580464Y-115436104D01*
X213580464Y-115436104D02*
X213389987Y-115626580D01*
X213389987Y-115626580D02*
X213199511Y-115721819D01*
X214437606Y-115007533D02*
X214770939Y-115007533D01*
X214628082Y-114674200D02*
X214675701Y-115055152D01*
X214675701Y-115055152D02*
X214675701Y-115340866D01*
X214675701Y-115340866D02*
X214628082Y-115531342D01*
X214628082Y-115531342D02*
X214532844Y-115674200D01*
X214247130Y-114626580D02*
X214199511Y-114959914D01*
X214199511Y-114959914D02*
X214199511Y-115293247D01*
X214199511Y-115293247D02*
X214199511Y-115483723D01*
X214199511Y-115483723D02*
X214247130Y-115626580D01*
X214247130Y-115626580D02*
X214342368Y-115340866D01*
X215342368Y-115198009D02*
X215485225Y-115340866D01*
X215485225Y-115340866D02*
X215532844Y-115436104D01*
X215532844Y-115436104D02*
X215628082Y-115578961D01*
X215199511Y-114912295D02*
X215818558Y-114912295D01*
X215818558Y-114912295D02*
X215723320Y-115102771D01*
X215723320Y-115102771D02*
X215628082Y-115245628D01*
X215628082Y-115245628D02*
X215532844Y-115340866D01*
X216580463Y-115055152D02*
X216866177Y-115293247D01*
X216580463Y-114626580D02*
X216580463Y-115674200D01*
X217485225Y-114674200D02*
X217485225Y-115198009D01*
X217818558Y-114674200D02*
X217818558Y-115055152D01*
X217818558Y-115055152D02*
X217818558Y-115245628D01*
X217818558Y-115245628D02*
X217723320Y-115436104D01*
X217723320Y-115436104D02*
X217675701Y-115531342D01*
X217675701Y-115531342D02*
X217532844Y-115674200D01*
X218628082Y-114626580D02*
X218580463Y-114864676D01*
X218580463Y-114864676D02*
X218485225Y-115007533D01*
X218485225Y-115007533D02*
X218389987Y-115198009D01*
X218628082Y-114817057D02*
X218913796Y-114817057D01*
X218913796Y-114817057D02*
X218913796Y-115007533D01*
X218913796Y-115007533D02*
X218866177Y-115198009D01*
X218866177Y-115198009D02*
X218770939Y-115388485D01*
X218770939Y-115388485D02*
X218675701Y-115531342D01*
X218675701Y-115531342D02*
X218485225Y-115674200D01*
X219723320Y-115245628D02*
X219818558Y-115388485D01*
X219818558Y-115388485D02*
X219961415Y-115626580D01*
X219437606Y-114721819D02*
X219866177Y-114721819D01*
X219866177Y-114721819D02*
X219818558Y-115007533D01*
X219818558Y-115007533D02*
X219723320Y-115198009D01*
X219723320Y-115198009D02*
X219628082Y-115340866D01*
X219628082Y-115340866D02*
X219532844Y-115483723D01*
X219532844Y-115483723D02*
X219389987Y-115626580D01*
X220961415Y-115721819D02*
X220485225Y-115721819D01*
X220485225Y-115721819D02*
X220485225Y-114721819D01*
X221294749Y-115198009D02*
X221628082Y-115198009D01*
X221770939Y-115721819D02*
X221294749Y-115721819D01*
X221294749Y-115721819D02*
X221294749Y-114721819D01*
X221294749Y-114721819D02*
X221770939Y-114721819D01*
X222199511Y-115721819D02*
X222199511Y-114721819D01*
X222199511Y-114721819D02*
X222437606Y-114721819D01*
X222437606Y-114721819D02*
X222580463Y-114769438D01*
X222580463Y-114769438D02*
X222675701Y-114864676D01*
X222675701Y-114864676D02*
X222723320Y-114959914D01*
X222723320Y-114959914D02*
X222770939Y-115150390D01*
X222770939Y-115150390D02*
X222770939Y-115293247D01*
X222770939Y-115293247D02*
X222723320Y-115483723D01*
X222723320Y-115483723D02*
X222675701Y-115578961D01*
X222675701Y-115578961D02*
X222580463Y-115674200D01*
X222580463Y-115674200D02*
X222437606Y-115721819D01*
X222437606Y-115721819D02*
X222199511Y-115721819D01*
X159260265Y-82882800D02*
X159403122Y-82930419D01*
X159403122Y-82930419D02*
X159641217Y-82930419D01*
X159641217Y-82930419D02*
X159736455Y-82882800D01*
X159736455Y-82882800D02*
X159784074Y-82835180D01*
X159784074Y-82835180D02*
X159831693Y-82739942D01*
X159831693Y-82739942D02*
X159831693Y-82644704D01*
X159831693Y-82644704D02*
X159784074Y-82549466D01*
X159784074Y-82549466D02*
X159736455Y-82501847D01*
X159736455Y-82501847D02*
X159641217Y-82454228D01*
X159641217Y-82454228D02*
X159450741Y-82406609D01*
X159450741Y-82406609D02*
X159355503Y-82358990D01*
X159355503Y-82358990D02*
X159307884Y-82311371D01*
X159307884Y-82311371D02*
X159260265Y-82216133D01*
X159260265Y-82216133D02*
X159260265Y-82120895D01*
X159260265Y-82120895D02*
X159307884Y-82025657D01*
X159307884Y-82025657D02*
X159355503Y-81978038D01*
X159355503Y-81978038D02*
X159450741Y-81930419D01*
X159450741Y-81930419D02*
X159688836Y-81930419D01*
X159688836Y-81930419D02*
X159831693Y-81978038D01*
X160260265Y-82930419D02*
X160260265Y-81930419D01*
X160736455Y-82930419D02*
X160736455Y-81930419D01*
X160736455Y-81930419D02*
X161307883Y-82930419D01*
X161307883Y-82930419D02*
X161307883Y-81930419D01*
X162307883Y-82930419D02*
X161736455Y-82930419D01*
X162022169Y-82930419D02*
X162022169Y-81930419D01*
X162022169Y-81930419D02*
X161926931Y-82073276D01*
X161926931Y-82073276D02*
X161831693Y-82168514D01*
X161831693Y-82168514D02*
X161736455Y-82216133D01*
X161863693Y-96837038D02*
X161768455Y-96789419D01*
X161768455Y-96789419D02*
X161625598Y-96789419D01*
X161625598Y-96789419D02*
X161482741Y-96837038D01*
X161482741Y-96837038D02*
X161387503Y-96932276D01*
X161387503Y-96932276D02*
X161339884Y-97027514D01*
X161339884Y-97027514D02*
X161292265Y-97217990D01*
X161292265Y-97217990D02*
X161292265Y-97360847D01*
X161292265Y-97360847D02*
X161339884Y-97551323D01*
X161339884Y-97551323D02*
X161387503Y-97646561D01*
X161387503Y-97646561D02*
X161482741Y-97741800D01*
X161482741Y-97741800D02*
X161625598Y-97789419D01*
X161625598Y-97789419D02*
X161720836Y-97789419D01*
X161720836Y-97789419D02*
X161863693Y-97741800D01*
X161863693Y-97741800D02*
X161911312Y-97694180D01*
X161911312Y-97694180D02*
X161911312Y-97360847D01*
X161911312Y-97360847D02*
X161720836Y-97360847D01*
X162339884Y-97789419D02*
X162339884Y-96789419D01*
X162339884Y-96789419D02*
X162911312Y-97789419D01*
X162911312Y-97789419D02*
X162911312Y-96789419D01*
X163387503Y-97789419D02*
X163387503Y-96789419D01*
X163387503Y-96789419D02*
X163625598Y-96789419D01*
X163625598Y-96789419D02*
X163768455Y-96837038D01*
X163768455Y-96837038D02*
X163863693Y-96932276D01*
X163863693Y-96932276D02*
X163911312Y-97027514D01*
X163911312Y-97027514D02*
X163958931Y-97217990D01*
X163958931Y-97217990D02*
X163958931Y-97360847D01*
X163958931Y-97360847D02*
X163911312Y-97551323D01*
X163911312Y-97551323D02*
X163863693Y-97646561D01*
X163863693Y-97646561D02*
X163768455Y-97741800D01*
X163768455Y-97741800D02*
X163625598Y-97789419D01*
X163625598Y-97789419D02*
X163387503Y-97789419D01*
X207276238Y-69454106D02*
X207228619Y-69549344D01*
X207228619Y-69549344D02*
X207228619Y-69692201D01*
X207228619Y-69692201D02*
X207276238Y-69835058D01*
X207276238Y-69835058D02*
X207371476Y-69930296D01*
X207371476Y-69930296D02*
X207466714Y-69977915D01*
X207466714Y-69977915D02*
X207657190Y-70025534D01*
X207657190Y-70025534D02*
X207800047Y-70025534D01*
X207800047Y-70025534D02*
X207990523Y-69977915D01*
X207990523Y-69977915D02*
X208085761Y-69930296D01*
X208085761Y-69930296D02*
X208181000Y-69835058D01*
X208181000Y-69835058D02*
X208228619Y-69692201D01*
X208228619Y-69692201D02*
X208228619Y-69596963D01*
X208228619Y-69596963D02*
X208181000Y-69454106D01*
X208181000Y-69454106D02*
X208133380Y-69406487D01*
X208133380Y-69406487D02*
X207800047Y-69406487D01*
X207800047Y-69406487D02*
X207800047Y-69596963D01*
X208228619Y-68977915D02*
X207228619Y-68977915D01*
X207228619Y-68977915D02*
X208228619Y-68406487D01*
X208228619Y-68406487D02*
X207228619Y-68406487D01*
X208228619Y-67930296D02*
X207228619Y-67930296D01*
X207228619Y-67930296D02*
X207228619Y-67692201D01*
X207228619Y-67692201D02*
X207276238Y-67549344D01*
X207276238Y-67549344D02*
X207371476Y-67454106D01*
X207371476Y-67454106D02*
X207466714Y-67406487D01*
X207466714Y-67406487D02*
X207657190Y-67358868D01*
X207657190Y-67358868D02*
X207800047Y-67358868D01*
X207800047Y-67358868D02*
X207990523Y-67406487D01*
X207990523Y-67406487D02*
X208085761Y-67454106D01*
X208085761Y-67454106D02*
X208181000Y-67549344D01*
X208181000Y-67549344D02*
X208228619Y-67692201D01*
X208228619Y-67692201D02*
X208228619Y-67930296D01*
X153577027Y-72073419D02*
X153910360Y-73073419D01*
X153910360Y-73073419D02*
X154243693Y-72073419D01*
X155148455Y-72978180D02*
X155100836Y-73025800D01*
X155100836Y-73025800D02*
X154957979Y-73073419D01*
X154957979Y-73073419D02*
X154862741Y-73073419D01*
X154862741Y-73073419D02*
X154719884Y-73025800D01*
X154719884Y-73025800D02*
X154624646Y-72930561D01*
X154624646Y-72930561D02*
X154577027Y-72835323D01*
X154577027Y-72835323D02*
X154529408Y-72644847D01*
X154529408Y-72644847D02*
X154529408Y-72501990D01*
X154529408Y-72501990D02*
X154577027Y-72311514D01*
X154577027Y-72311514D02*
X154624646Y-72216276D01*
X154624646Y-72216276D02*
X154719884Y-72121038D01*
X154719884Y-72121038D02*
X154862741Y-72073419D01*
X154862741Y-72073419D02*
X154957979Y-72073419D01*
X154957979Y-72073419D02*
X155100836Y-72121038D01*
X155100836Y-72121038D02*
X155148455Y-72168657D01*
X156148455Y-72978180D02*
X156100836Y-73025800D01*
X156100836Y-73025800D02*
X155957979Y-73073419D01*
X155957979Y-73073419D02*
X155862741Y-73073419D01*
X155862741Y-73073419D02*
X155719884Y-73025800D01*
X155719884Y-73025800D02*
X155624646Y-72930561D01*
X155624646Y-72930561D02*
X155577027Y-72835323D01*
X155577027Y-72835323D02*
X155529408Y-72644847D01*
X155529408Y-72644847D02*
X155529408Y-72501990D01*
X155529408Y-72501990D02*
X155577027Y-72311514D01*
X155577027Y-72311514D02*
X155624646Y-72216276D01*
X155624646Y-72216276D02*
X155719884Y-72121038D01*
X155719884Y-72121038D02*
X155862741Y-72073419D01*
X155862741Y-72073419D02*
X155957979Y-72073419D01*
X155957979Y-72073419D02*
X156100836Y-72121038D01*
X156100836Y-72121038D02*
X156148455Y-72168657D01*
X203758219Y-70974925D02*
X203758219Y-71451115D01*
X203758219Y-71451115D02*
X202758219Y-71451115D01*
X203472504Y-70689210D02*
X203472504Y-70213020D01*
X203758219Y-70784448D02*
X202758219Y-70451115D01*
X202758219Y-70451115D02*
X203758219Y-70117782D01*
X202758219Y-69927305D02*
X202758219Y-69355877D01*
X203758219Y-69641591D02*
X202758219Y-69641591D01*
X203662980Y-68451115D02*
X203710600Y-68498734D01*
X203710600Y-68498734D02*
X203758219Y-68641591D01*
X203758219Y-68641591D02*
X203758219Y-68736829D01*
X203758219Y-68736829D02*
X203710600Y-68879686D01*
X203710600Y-68879686D02*
X203615361Y-68974924D01*
X203615361Y-68974924D02*
X203520123Y-69022543D01*
X203520123Y-69022543D02*
X203329647Y-69070162D01*
X203329647Y-69070162D02*
X203186790Y-69070162D01*
X203186790Y-69070162D02*
X202996314Y-69022543D01*
X202996314Y-69022543D02*
X202901076Y-68974924D01*
X202901076Y-68974924D02*
X202805838Y-68879686D01*
X202805838Y-68879686D02*
X202758219Y-68736829D01*
X202758219Y-68736829D02*
X202758219Y-68641591D01*
X202758219Y-68641591D02*
X202805838Y-68498734D01*
X202805838Y-68498734D02*
X202853457Y-68451115D01*
X203758219Y-68022543D02*
X202758219Y-68022543D01*
X203234409Y-68022543D02*
X203234409Y-67451115D01*
X203758219Y-67451115D02*
X202758219Y-67451115D01*
X159879312Y-87661180D02*
X159831693Y-87708800D01*
X159831693Y-87708800D02*
X159688836Y-87756419D01*
X159688836Y-87756419D02*
X159593598Y-87756419D01*
X159593598Y-87756419D02*
X159450741Y-87708800D01*
X159450741Y-87708800D02*
X159355503Y-87613561D01*
X159355503Y-87613561D02*
X159307884Y-87518323D01*
X159307884Y-87518323D02*
X159260265Y-87327847D01*
X159260265Y-87327847D02*
X159260265Y-87184990D01*
X159260265Y-87184990D02*
X159307884Y-86994514D01*
X159307884Y-86994514D02*
X159355503Y-86899276D01*
X159355503Y-86899276D02*
X159450741Y-86804038D01*
X159450741Y-86804038D02*
X159593598Y-86756419D01*
X159593598Y-86756419D02*
X159688836Y-86756419D01*
X159688836Y-86756419D02*
X159831693Y-86804038D01*
X159831693Y-86804038D02*
X159879312Y-86851657D01*
X160784074Y-87756419D02*
X160307884Y-87756419D01*
X160307884Y-87756419D02*
X160307884Y-86756419D01*
X161117408Y-87756419D02*
X161117408Y-86756419D01*
X161688836Y-87756419D02*
X161260265Y-87184990D01*
X161688836Y-86756419D02*
X161117408Y-87327847D01*
X153497646Y-74818419D02*
X154116693Y-74818419D01*
X154116693Y-74818419D02*
X153783360Y-75199371D01*
X153783360Y-75199371D02*
X153926217Y-75199371D01*
X153926217Y-75199371D02*
X154021455Y-75246990D01*
X154021455Y-75246990D02*
X154069074Y-75294609D01*
X154069074Y-75294609D02*
X154116693Y-75389847D01*
X154116693Y-75389847D02*
X154116693Y-75627942D01*
X154116693Y-75627942D02*
X154069074Y-75723180D01*
X154069074Y-75723180D02*
X154021455Y-75770800D01*
X154021455Y-75770800D02*
X153926217Y-75818419D01*
X153926217Y-75818419D02*
X153640503Y-75818419D01*
X153640503Y-75818419D02*
X153545265Y-75770800D01*
X153545265Y-75770800D02*
X153497646Y-75723180D01*
X154402408Y-74818419D02*
X154735741Y-75818419D01*
X154735741Y-75818419D02*
X155069074Y-74818419D01*
X155307170Y-74818419D02*
X155926217Y-74818419D01*
X155926217Y-74818419D02*
X155592884Y-75199371D01*
X155592884Y-75199371D02*
X155735741Y-75199371D01*
X155735741Y-75199371D02*
X155830979Y-75246990D01*
X155830979Y-75246990D02*
X155878598Y-75294609D01*
X155878598Y-75294609D02*
X155926217Y-75389847D01*
X155926217Y-75389847D02*
X155926217Y-75627942D01*
X155926217Y-75627942D02*
X155878598Y-75723180D01*
X155878598Y-75723180D02*
X155830979Y-75770800D01*
X155830979Y-75770800D02*
X155735741Y-75818419D01*
X155735741Y-75818419D02*
X155450027Y-75818419D01*
X155450027Y-75818419D02*
X155354789Y-75770800D01*
X155354789Y-75770800D02*
X155307170Y-75723180D01*
X159339646Y-94630419D02*
X159958693Y-94630419D01*
X159958693Y-94630419D02*
X159625360Y-95011371D01*
X159625360Y-95011371D02*
X159768217Y-95011371D01*
X159768217Y-95011371D02*
X159863455Y-95058990D01*
X159863455Y-95058990D02*
X159911074Y-95106609D01*
X159911074Y-95106609D02*
X159958693Y-95201847D01*
X159958693Y-95201847D02*
X159958693Y-95439942D01*
X159958693Y-95439942D02*
X159911074Y-95535180D01*
X159911074Y-95535180D02*
X159863455Y-95582800D01*
X159863455Y-95582800D02*
X159768217Y-95630419D01*
X159768217Y-95630419D02*
X159482503Y-95630419D01*
X159482503Y-95630419D02*
X159387265Y-95582800D01*
X159387265Y-95582800D02*
X159339646Y-95535180D01*
X160244408Y-94630419D02*
X160577741Y-95630419D01*
X160577741Y-95630419D02*
X160911074Y-94630419D01*
X161149170Y-94630419D02*
X161768217Y-94630419D01*
X161768217Y-94630419D02*
X161434884Y-95011371D01*
X161434884Y-95011371D02*
X161577741Y-95011371D01*
X161577741Y-95011371D02*
X161672979Y-95058990D01*
X161672979Y-95058990D02*
X161720598Y-95106609D01*
X161720598Y-95106609D02*
X161768217Y-95201847D01*
X161768217Y-95201847D02*
X161768217Y-95439942D01*
X161768217Y-95439942D02*
X161720598Y-95535180D01*
X161720598Y-95535180D02*
X161672979Y-95582800D01*
X161672979Y-95582800D02*
X161577741Y-95630419D01*
X161577741Y-95630419D02*
X161292027Y-95630419D01*
X161292027Y-95630419D02*
X161196789Y-95582800D01*
X161196789Y-95582800D02*
X161149170Y-95535180D01*
X154434265Y-82882800D02*
X154577122Y-82930419D01*
X154577122Y-82930419D02*
X154815217Y-82930419D01*
X154815217Y-82930419D02*
X154910455Y-82882800D01*
X154910455Y-82882800D02*
X154958074Y-82835180D01*
X154958074Y-82835180D02*
X155005693Y-82739942D01*
X155005693Y-82739942D02*
X155005693Y-82644704D01*
X155005693Y-82644704D02*
X154958074Y-82549466D01*
X154958074Y-82549466D02*
X154910455Y-82501847D01*
X154910455Y-82501847D02*
X154815217Y-82454228D01*
X154815217Y-82454228D02*
X154624741Y-82406609D01*
X154624741Y-82406609D02*
X154529503Y-82358990D01*
X154529503Y-82358990D02*
X154481884Y-82311371D01*
X154481884Y-82311371D02*
X154434265Y-82216133D01*
X154434265Y-82216133D02*
X154434265Y-82120895D01*
X154434265Y-82120895D02*
X154481884Y-82025657D01*
X154481884Y-82025657D02*
X154529503Y-81978038D01*
X154529503Y-81978038D02*
X154624741Y-81930419D01*
X154624741Y-81930419D02*
X154862836Y-81930419D01*
X154862836Y-81930419D02*
X155005693Y-81978038D01*
X155434265Y-82930419D02*
X155434265Y-81930419D01*
X155910455Y-82930419D02*
X155910455Y-81930419D01*
X155910455Y-81930419D02*
X156481883Y-82930419D01*
X156481883Y-82930419D02*
X156481883Y-81930419D01*
X156910455Y-82025657D02*
X156958074Y-81978038D01*
X156958074Y-81978038D02*
X157053312Y-81930419D01*
X157053312Y-81930419D02*
X157291407Y-81930419D01*
X157291407Y-81930419D02*
X157386645Y-81978038D01*
X157386645Y-81978038D02*
X157434264Y-82025657D01*
X157434264Y-82025657D02*
X157481883Y-82120895D01*
X157481883Y-82120895D02*
X157481883Y-82216133D01*
X157481883Y-82216133D02*
X157434264Y-82358990D01*
X157434264Y-82358990D02*
X156862836Y-82930419D01*
X156862836Y-82930419D02*
X157481883Y-82930419D01*
X155386693Y-92138038D02*
X155291455Y-92090419D01*
X155291455Y-92090419D02*
X155148598Y-92090419D01*
X155148598Y-92090419D02*
X155005741Y-92138038D01*
X155005741Y-92138038D02*
X154910503Y-92233276D01*
X154910503Y-92233276D02*
X154862884Y-92328514D01*
X154862884Y-92328514D02*
X154815265Y-92518990D01*
X154815265Y-92518990D02*
X154815265Y-92661847D01*
X154815265Y-92661847D02*
X154862884Y-92852323D01*
X154862884Y-92852323D02*
X154910503Y-92947561D01*
X154910503Y-92947561D02*
X155005741Y-93042800D01*
X155005741Y-93042800D02*
X155148598Y-93090419D01*
X155148598Y-93090419D02*
X155243836Y-93090419D01*
X155243836Y-93090419D02*
X155386693Y-93042800D01*
X155386693Y-93042800D02*
X155434312Y-92995180D01*
X155434312Y-92995180D02*
X155434312Y-92661847D01*
X155434312Y-92661847D02*
X155243836Y-92661847D01*
X155862884Y-93090419D02*
X155862884Y-92090419D01*
X155862884Y-92090419D02*
X156434312Y-93090419D01*
X156434312Y-93090419D02*
X156434312Y-92090419D01*
X156910503Y-93090419D02*
X156910503Y-92090419D01*
X156910503Y-92090419D02*
X157148598Y-92090419D01*
X157148598Y-92090419D02*
X157291455Y-92138038D01*
X157291455Y-92138038D02*
X157386693Y-92233276D01*
X157386693Y-92233276D02*
X157434312Y-92328514D01*
X157434312Y-92328514D02*
X157481931Y-92518990D01*
X157481931Y-92518990D02*
X157481931Y-92661847D01*
X157481931Y-92661847D02*
X157434312Y-92852323D01*
X157434312Y-92852323D02*
X157386693Y-92947561D01*
X157386693Y-92947561D02*
X157291455Y-93042800D01*
X157291455Y-93042800D02*
X157148598Y-93090419D01*
X157148598Y-93090419D02*
X156910503Y-93090419D01*
X201376646Y-81168419D02*
X201995693Y-81168419D01*
X201995693Y-81168419D02*
X201662360Y-81549371D01*
X201662360Y-81549371D02*
X201805217Y-81549371D01*
X201805217Y-81549371D02*
X201900455Y-81596990D01*
X201900455Y-81596990D02*
X201948074Y-81644609D01*
X201948074Y-81644609D02*
X201995693Y-81739847D01*
X201995693Y-81739847D02*
X201995693Y-81977942D01*
X201995693Y-81977942D02*
X201948074Y-82073180D01*
X201948074Y-82073180D02*
X201900455Y-82120800D01*
X201900455Y-82120800D02*
X201805217Y-82168419D01*
X201805217Y-82168419D02*
X201519503Y-82168419D01*
X201519503Y-82168419D02*
X201424265Y-82120800D01*
X201424265Y-82120800D02*
X201376646Y-82073180D01*
X202281408Y-81168419D02*
X202614741Y-82168419D01*
X202614741Y-82168419D02*
X202948074Y-81168419D01*
X203186170Y-81168419D02*
X203805217Y-81168419D01*
X203805217Y-81168419D02*
X203471884Y-81549371D01*
X203471884Y-81549371D02*
X203614741Y-81549371D01*
X203614741Y-81549371D02*
X203709979Y-81596990D01*
X203709979Y-81596990D02*
X203757598Y-81644609D01*
X203757598Y-81644609D02*
X203805217Y-81739847D01*
X203805217Y-81739847D02*
X203805217Y-81977942D01*
X203805217Y-81977942D02*
X203757598Y-82073180D01*
X203757598Y-82073180D02*
X203709979Y-82120800D01*
X203709979Y-82120800D02*
X203614741Y-82168419D01*
X203614741Y-82168419D02*
X203329027Y-82168419D01*
X203329027Y-82168419D02*
X203233789Y-82120800D01*
X203233789Y-82120800D02*
X203186170Y-82073180D01*
X185327027Y-80152419D02*
X185660360Y-81152419D01*
X185660360Y-81152419D02*
X185993693Y-80152419D01*
X186898455Y-81057180D02*
X186850836Y-81104800D01*
X186850836Y-81104800D02*
X186707979Y-81152419D01*
X186707979Y-81152419D02*
X186612741Y-81152419D01*
X186612741Y-81152419D02*
X186469884Y-81104800D01*
X186469884Y-81104800D02*
X186374646Y-81009561D01*
X186374646Y-81009561D02*
X186327027Y-80914323D01*
X186327027Y-80914323D02*
X186279408Y-80723847D01*
X186279408Y-80723847D02*
X186279408Y-80580990D01*
X186279408Y-80580990D02*
X186327027Y-80390514D01*
X186327027Y-80390514D02*
X186374646Y-80295276D01*
X186374646Y-80295276D02*
X186469884Y-80200038D01*
X186469884Y-80200038D02*
X186612741Y-80152419D01*
X186612741Y-80152419D02*
X186707979Y-80152419D01*
X186707979Y-80152419D02*
X186850836Y-80200038D01*
X186850836Y-80200038D02*
X186898455Y-80247657D01*
X187898455Y-81057180D02*
X187850836Y-81104800D01*
X187850836Y-81104800D02*
X187707979Y-81152419D01*
X187707979Y-81152419D02*
X187612741Y-81152419D01*
X187612741Y-81152419D02*
X187469884Y-81104800D01*
X187469884Y-81104800D02*
X187374646Y-81009561D01*
X187374646Y-81009561D02*
X187327027Y-80914323D01*
X187327027Y-80914323D02*
X187279408Y-80723847D01*
X187279408Y-80723847D02*
X187279408Y-80580990D01*
X187279408Y-80580990D02*
X187327027Y-80390514D01*
X187327027Y-80390514D02*
X187374646Y-80295276D01*
X187374646Y-80295276D02*
X187469884Y-80200038D01*
X187469884Y-80200038D02*
X187612741Y-80152419D01*
X187612741Y-80152419D02*
X187707979Y-80152419D01*
X187707979Y-80152419D02*
X187850836Y-80200038D01*
X187850836Y-80200038D02*
X187898455Y-80247657D01*
X207298027Y-72151419D02*
X207631360Y-73151419D01*
X207631360Y-73151419D02*
X207964693Y-72151419D01*
X208869455Y-73056180D02*
X208821836Y-73103800D01*
X208821836Y-73103800D02*
X208678979Y-73151419D01*
X208678979Y-73151419D02*
X208583741Y-73151419D01*
X208583741Y-73151419D02*
X208440884Y-73103800D01*
X208440884Y-73103800D02*
X208345646Y-73008561D01*
X208345646Y-73008561D02*
X208298027Y-72913323D01*
X208298027Y-72913323D02*
X208250408Y-72722847D01*
X208250408Y-72722847D02*
X208250408Y-72579990D01*
X208250408Y-72579990D02*
X208298027Y-72389514D01*
X208298027Y-72389514D02*
X208345646Y-72294276D01*
X208345646Y-72294276D02*
X208440884Y-72199038D01*
X208440884Y-72199038D02*
X208583741Y-72151419D01*
X208583741Y-72151419D02*
X208678979Y-72151419D01*
X208678979Y-72151419D02*
X208821836Y-72199038D01*
X208821836Y-72199038D02*
X208869455Y-72246657D01*
X209869455Y-73056180D02*
X209821836Y-73103800D01*
X209821836Y-73103800D02*
X209678979Y-73151419D01*
X209678979Y-73151419D02*
X209583741Y-73151419D01*
X209583741Y-73151419D02*
X209440884Y-73103800D01*
X209440884Y-73103800D02*
X209345646Y-73008561D01*
X209345646Y-73008561D02*
X209298027Y-72913323D01*
X209298027Y-72913323D02*
X209250408Y-72722847D01*
X209250408Y-72722847D02*
X209250408Y-72579990D01*
X209250408Y-72579990D02*
X209298027Y-72389514D01*
X209298027Y-72389514D02*
X209345646Y-72294276D01*
X209345646Y-72294276D02*
X209440884Y-72199038D01*
X209440884Y-72199038D02*
X209583741Y-72151419D01*
X209583741Y-72151419D02*
X209678979Y-72151419D01*
X209678979Y-72151419D02*
X209821836Y-72199038D01*
X209821836Y-72199038D02*
X209869455Y-72246657D01*
D11*
X188319580Y-69870399D02*
X188367200Y-69918018D01*
X188367200Y-69918018D02*
X188414819Y-70060875D01*
X188414819Y-70060875D02*
X188414819Y-70156113D01*
X188414819Y-70156113D02*
X188367200Y-70298970D01*
X188367200Y-70298970D02*
X188271961Y-70394208D01*
X188271961Y-70394208D02*
X188176723Y-70441827D01*
X188176723Y-70441827D02*
X187986247Y-70489446D01*
X187986247Y-70489446D02*
X187843390Y-70489446D01*
X187843390Y-70489446D02*
X187652914Y-70441827D01*
X187652914Y-70441827D02*
X187557676Y-70394208D01*
X187557676Y-70394208D02*
X187462438Y-70298970D01*
X187462438Y-70298970D02*
X187414819Y-70156113D01*
X187414819Y-70156113D02*
X187414819Y-70060875D01*
X187414819Y-70060875D02*
X187462438Y-69918018D01*
X187462438Y-69918018D02*
X187510057Y-69870399D01*
X188414819Y-68918018D02*
X188414819Y-69489446D01*
X188414819Y-69203732D02*
X187414819Y-69203732D01*
X187414819Y-69203732D02*
X187557676Y-69298970D01*
X187557676Y-69298970D02*
X187652914Y-69394208D01*
X187652914Y-69394208D02*
X187700533Y-69489446D01*
X145451666Y-96847819D02*
X145451666Y-97562104D01*
X145451666Y-97562104D02*
X145404047Y-97704961D01*
X145404047Y-97704961D02*
X145308809Y-97800200D01*
X145308809Y-97800200D02*
X145165952Y-97847819D01*
X145165952Y-97847819D02*
X145070714Y-97847819D01*
X145880238Y-96943057D02*
X145927857Y-96895438D01*
X145927857Y-96895438D02*
X146023095Y-96847819D01*
X146023095Y-96847819D02*
X146261190Y-96847819D01*
X146261190Y-96847819D02*
X146356428Y-96895438D01*
X146356428Y-96895438D02*
X146404047Y-96943057D01*
X146404047Y-96943057D02*
X146451666Y-97038295D01*
X146451666Y-97038295D02*
X146451666Y-97133533D01*
X146451666Y-97133533D02*
X146404047Y-97276390D01*
X146404047Y-97276390D02*
X145832619Y-97847819D01*
X145832619Y-97847819D02*
X146451666Y-97847819D01*
D10*
X191375312Y-69754180D02*
X191327693Y-69801800D01*
X191327693Y-69801800D02*
X191184836Y-69849419D01*
X191184836Y-69849419D02*
X191089598Y-69849419D01*
X191089598Y-69849419D02*
X190946741Y-69801800D01*
X190946741Y-69801800D02*
X190851503Y-69706561D01*
X190851503Y-69706561D02*
X190803884Y-69611323D01*
X190803884Y-69611323D02*
X190756265Y-69420847D01*
X190756265Y-69420847D02*
X190756265Y-69277990D01*
X190756265Y-69277990D02*
X190803884Y-69087514D01*
X190803884Y-69087514D02*
X190851503Y-68992276D01*
X190851503Y-68992276D02*
X190946741Y-68897038D01*
X190946741Y-68897038D02*
X191089598Y-68849419D01*
X191089598Y-68849419D02*
X191184836Y-68849419D01*
X191184836Y-68849419D02*
X191327693Y-68897038D01*
X191327693Y-68897038D02*
X191375312Y-68944657D01*
X191803884Y-69849419D02*
X191803884Y-68849419D01*
X191803884Y-68849419D02*
X192375312Y-69849419D01*
X192375312Y-69849419D02*
X192375312Y-68849419D01*
X192613408Y-69944657D02*
X193375312Y-69944657D01*
X194137217Y-69849419D02*
X193565789Y-69849419D01*
X193851503Y-69849419D02*
X193851503Y-68849419D01*
X193851503Y-68849419D02*
X193756265Y-68992276D01*
X193756265Y-68992276D02*
X193661027Y-69087514D01*
X193661027Y-69087514D02*
X193565789Y-69135133D01*
X194518170Y-69563704D02*
X194994360Y-69563704D01*
X194422932Y-69849419D02*
X194756265Y-68849419D01*
X194756265Y-68849419D02*
X195089598Y-69849419D01*
X196137217Y-68801800D02*
X195280075Y-70087514D01*
X196803884Y-69325609D02*
X196946741Y-69373228D01*
X196946741Y-69373228D02*
X196994360Y-69420847D01*
X196994360Y-69420847D02*
X197041979Y-69516085D01*
X197041979Y-69516085D02*
X197041979Y-69658942D01*
X197041979Y-69658942D02*
X196994360Y-69754180D01*
X196994360Y-69754180D02*
X196946741Y-69801800D01*
X196946741Y-69801800D02*
X196851503Y-69849419D01*
X196851503Y-69849419D02*
X196470551Y-69849419D01*
X196470551Y-69849419D02*
X196470551Y-68849419D01*
X196470551Y-68849419D02*
X196803884Y-68849419D01*
X196803884Y-68849419D02*
X196899122Y-68897038D01*
X196899122Y-68897038D02*
X196946741Y-68944657D01*
X196946741Y-68944657D02*
X196994360Y-69039895D01*
X196994360Y-69039895D02*
X196994360Y-69135133D01*
X196994360Y-69135133D02*
X196946741Y-69230371D01*
X196946741Y-69230371D02*
X196899122Y-69277990D01*
X196899122Y-69277990D02*
X196803884Y-69325609D01*
X196803884Y-69325609D02*
X196470551Y-69325609D01*
X161555712Y-69652580D02*
X161508093Y-69700200D01*
X161508093Y-69700200D02*
X161365236Y-69747819D01*
X161365236Y-69747819D02*
X161269998Y-69747819D01*
X161269998Y-69747819D02*
X161127141Y-69700200D01*
X161127141Y-69700200D02*
X161031903Y-69604961D01*
X161031903Y-69604961D02*
X160984284Y-69509723D01*
X160984284Y-69509723D02*
X160936665Y-69319247D01*
X160936665Y-69319247D02*
X160936665Y-69176390D01*
X160936665Y-69176390D02*
X160984284Y-68985914D01*
X160984284Y-68985914D02*
X161031903Y-68890676D01*
X161031903Y-68890676D02*
X161127141Y-68795438D01*
X161127141Y-68795438D02*
X161269998Y-68747819D01*
X161269998Y-68747819D02*
X161365236Y-68747819D01*
X161365236Y-68747819D02*
X161508093Y-68795438D01*
X161508093Y-68795438D02*
X161555712Y-68843057D01*
X161984284Y-69747819D02*
X161984284Y-68747819D01*
X161984284Y-68747819D02*
X162555712Y-69747819D01*
X162555712Y-69747819D02*
X162555712Y-68747819D01*
X162984284Y-68843057D02*
X163031903Y-68795438D01*
X163031903Y-68795438D02*
X163127141Y-68747819D01*
X163127141Y-68747819D02*
X163365236Y-68747819D01*
X163365236Y-68747819D02*
X163460474Y-68795438D01*
X163460474Y-68795438D02*
X163508093Y-68843057D01*
X163508093Y-68843057D02*
X163555712Y-68938295D01*
X163555712Y-68938295D02*
X163555712Y-69033533D01*
X163555712Y-69033533D02*
X163508093Y-69176390D01*
X163508093Y-69176390D02*
X162936665Y-69747819D01*
X162936665Y-69747819D02*
X163555712Y-69747819D01*
X163746189Y-69843057D02*
X164508093Y-69843057D01*
X164698570Y-69462104D02*
X165174760Y-69462104D01*
X164603332Y-69747819D02*
X164936665Y-68747819D01*
X164936665Y-68747819D02*
X165269998Y-69747819D01*
X166317617Y-68700200D02*
X165460475Y-69985914D01*
X166984284Y-69224009D02*
X167127141Y-69271628D01*
X167127141Y-69271628D02*
X167174760Y-69319247D01*
X167174760Y-69319247D02*
X167222379Y-69414485D01*
X167222379Y-69414485D02*
X167222379Y-69557342D01*
X167222379Y-69557342D02*
X167174760Y-69652580D01*
X167174760Y-69652580D02*
X167127141Y-69700200D01*
X167127141Y-69700200D02*
X167031903Y-69747819D01*
X167031903Y-69747819D02*
X166650951Y-69747819D01*
X166650951Y-69747819D02*
X166650951Y-68747819D01*
X166650951Y-68747819D02*
X166984284Y-68747819D01*
X166984284Y-68747819D02*
X167079522Y-68795438D01*
X167079522Y-68795438D02*
X167127141Y-68843057D01*
X167127141Y-68843057D02*
X167174760Y-68938295D01*
X167174760Y-68938295D02*
X167174760Y-69033533D01*
X167174760Y-69033533D02*
X167127141Y-69128771D01*
X167127141Y-69128771D02*
X167079522Y-69176390D01*
X167079522Y-69176390D02*
X166984284Y-69224009D01*
X166984284Y-69224009D02*
X166650951Y-69224009D01*
D11*
X200347580Y-87483666D02*
X200395200Y-87531285D01*
X200395200Y-87531285D02*
X200442819Y-87674142D01*
X200442819Y-87674142D02*
X200442819Y-87769380D01*
X200442819Y-87769380D02*
X200395200Y-87912237D01*
X200395200Y-87912237D02*
X200299961Y-88007475D01*
X200299961Y-88007475D02*
X200204723Y-88055094D01*
X200204723Y-88055094D02*
X200014247Y-88102713D01*
X200014247Y-88102713D02*
X199871390Y-88102713D01*
X199871390Y-88102713D02*
X199680914Y-88055094D01*
X199680914Y-88055094D02*
X199585676Y-88007475D01*
X199585676Y-88007475D02*
X199490438Y-87912237D01*
X199490438Y-87912237D02*
X199442819Y-87769380D01*
X199442819Y-87769380D02*
X199442819Y-87674142D01*
X199442819Y-87674142D02*
X199490438Y-87531285D01*
X199490438Y-87531285D02*
X199538057Y-87483666D01*
X199442819Y-86626523D02*
X199442819Y-86816999D01*
X199442819Y-86816999D02*
X199490438Y-86912237D01*
X199490438Y-86912237D02*
X199538057Y-86959856D01*
X199538057Y-86959856D02*
X199680914Y-87055094D01*
X199680914Y-87055094D02*
X199871390Y-87102713D01*
X199871390Y-87102713D02*
X200252342Y-87102713D01*
X200252342Y-87102713D02*
X200347580Y-87055094D01*
X200347580Y-87055094D02*
X200395200Y-87007475D01*
X200395200Y-87007475D02*
X200442819Y-86912237D01*
X200442819Y-86912237D02*
X200442819Y-86721761D01*
X200442819Y-86721761D02*
X200395200Y-86626523D01*
X200395200Y-86626523D02*
X200347580Y-86578904D01*
X200347580Y-86578904D02*
X200252342Y-86531285D01*
X200252342Y-86531285D02*
X200014247Y-86531285D01*
X200014247Y-86531285D02*
X199919009Y-86578904D01*
X199919009Y-86578904D02*
X199871390Y-86626523D01*
X199871390Y-86626523D02*
X199823771Y-86721761D01*
X199823771Y-86721761D02*
X199823771Y-86912237D01*
X199823771Y-86912237D02*
X199871390Y-87007475D01*
X199871390Y-87007475D02*
X199919009Y-87055094D01*
X199919009Y-87055094D02*
X200014247Y-87102713D01*
X212699580Y-84689666D02*
X212747200Y-84737285D01*
X212747200Y-84737285D02*
X212794819Y-84880142D01*
X212794819Y-84880142D02*
X212794819Y-84975380D01*
X212794819Y-84975380D02*
X212747200Y-85118237D01*
X212747200Y-85118237D02*
X212651961Y-85213475D01*
X212651961Y-85213475D02*
X212556723Y-85261094D01*
X212556723Y-85261094D02*
X212366247Y-85308713D01*
X212366247Y-85308713D02*
X212223390Y-85308713D01*
X212223390Y-85308713D02*
X212032914Y-85261094D01*
X212032914Y-85261094D02*
X211937676Y-85213475D01*
X211937676Y-85213475D02*
X211842438Y-85118237D01*
X211842438Y-85118237D02*
X211794819Y-84975380D01*
X211794819Y-84975380D02*
X211794819Y-84880142D01*
X211794819Y-84880142D02*
X211842438Y-84737285D01*
X211842438Y-84737285D02*
X211890057Y-84689666D01*
X211890057Y-84308713D02*
X211842438Y-84261094D01*
X211842438Y-84261094D02*
X211794819Y-84165856D01*
X211794819Y-84165856D02*
X211794819Y-83927761D01*
X211794819Y-83927761D02*
X211842438Y-83832523D01*
X211842438Y-83832523D02*
X211890057Y-83784904D01*
X211890057Y-83784904D02*
X211985295Y-83737285D01*
X211985295Y-83737285D02*
X212080533Y-83737285D01*
X212080533Y-83737285D02*
X212223390Y-83784904D01*
X212223390Y-83784904D02*
X212794819Y-84356332D01*
X212794819Y-84356332D02*
X212794819Y-83737285D01*
X192416580Y-84739166D02*
X192464200Y-84786785D01*
X192464200Y-84786785D02*
X192511819Y-84929642D01*
X192511819Y-84929642D02*
X192511819Y-85024880D01*
X192511819Y-85024880D02*
X192464200Y-85167737D01*
X192464200Y-85167737D02*
X192368961Y-85262975D01*
X192368961Y-85262975D02*
X192273723Y-85310594D01*
X192273723Y-85310594D02*
X192083247Y-85358213D01*
X192083247Y-85358213D02*
X191940390Y-85358213D01*
X191940390Y-85358213D02*
X191749914Y-85310594D01*
X191749914Y-85310594D02*
X191654676Y-85262975D01*
X191654676Y-85262975D02*
X191559438Y-85167737D01*
X191559438Y-85167737D02*
X191511819Y-85024880D01*
X191511819Y-85024880D02*
X191511819Y-84929642D01*
X191511819Y-84929642D02*
X191559438Y-84786785D01*
X191559438Y-84786785D02*
X191607057Y-84739166D01*
X191511819Y-83834404D02*
X191511819Y-84310594D01*
X191511819Y-84310594D02*
X191988009Y-84358213D01*
X191988009Y-84358213D02*
X191940390Y-84310594D01*
X191940390Y-84310594D02*
X191892771Y-84215356D01*
X191892771Y-84215356D02*
X191892771Y-83977261D01*
X191892771Y-83977261D02*
X191940390Y-83882023D01*
X191940390Y-83882023D02*
X191988009Y-83834404D01*
X191988009Y-83834404D02*
X192083247Y-83786785D01*
X192083247Y-83786785D02*
X192321342Y-83786785D01*
X192321342Y-83786785D02*
X192416580Y-83834404D01*
X192416580Y-83834404D02*
X192464200Y-83882023D01*
X192464200Y-83882023D02*
X192511819Y-83977261D01*
X192511819Y-83977261D02*
X192511819Y-84215356D01*
X192511819Y-84215356D02*
X192464200Y-84310594D01*
X192464200Y-84310594D02*
X192416580Y-84358213D01*
D12*
X203992237Y-94935318D02*
X203992237Y-93665318D01*
X205322714Y-94814365D02*
X205262238Y-94874842D01*
X205262238Y-94874842D02*
X205080809Y-94935318D01*
X205080809Y-94935318D02*
X204959857Y-94935318D01*
X204959857Y-94935318D02*
X204778428Y-94874842D01*
X204778428Y-94874842D02*
X204657476Y-94753889D01*
X204657476Y-94753889D02*
X204596999Y-94632937D01*
X204596999Y-94632937D02*
X204536523Y-94391032D01*
X204536523Y-94391032D02*
X204536523Y-94209603D01*
X204536523Y-94209603D02*
X204596999Y-93967699D01*
X204596999Y-93967699D02*
X204657476Y-93846746D01*
X204657476Y-93846746D02*
X204778428Y-93725794D01*
X204778428Y-93725794D02*
X204959857Y-93665318D01*
X204959857Y-93665318D02*
X205080809Y-93665318D01*
X205080809Y-93665318D02*
X205262238Y-93725794D01*
X205262238Y-93725794D02*
X205322714Y-93786270D01*
X205806523Y-93786270D02*
X205866999Y-93725794D01*
X205866999Y-93725794D02*
X205987952Y-93665318D01*
X205987952Y-93665318D02*
X206290333Y-93665318D01*
X206290333Y-93665318D02*
X206411285Y-93725794D01*
X206411285Y-93725794D02*
X206471761Y-93786270D01*
X206471761Y-93786270D02*
X206532238Y-93907222D01*
X206532238Y-93907222D02*
X206532238Y-94028175D01*
X206532238Y-94028175D02*
X206471761Y-94209603D01*
X206471761Y-94209603D02*
X205746047Y-94935318D01*
X205746047Y-94935318D02*
X206532238Y-94935318D01*
X182910237Y-95316318D02*
X182910237Y-94046318D01*
X184240714Y-95195365D02*
X184180238Y-95255842D01*
X184180238Y-95255842D02*
X183998809Y-95316318D01*
X183998809Y-95316318D02*
X183877857Y-95316318D01*
X183877857Y-95316318D02*
X183696428Y-95255842D01*
X183696428Y-95255842D02*
X183575476Y-95134889D01*
X183575476Y-95134889D02*
X183514999Y-95013937D01*
X183514999Y-95013937D02*
X183454523Y-94772032D01*
X183454523Y-94772032D02*
X183454523Y-94590603D01*
X183454523Y-94590603D02*
X183514999Y-94348699D01*
X183514999Y-94348699D02*
X183575476Y-94227746D01*
X183575476Y-94227746D02*
X183696428Y-94106794D01*
X183696428Y-94106794D02*
X183877857Y-94046318D01*
X183877857Y-94046318D02*
X183998809Y-94046318D01*
X183998809Y-94046318D02*
X184180238Y-94106794D01*
X184180238Y-94106794D02*
X184240714Y-94167270D01*
X185450238Y-95316318D02*
X184724523Y-95316318D01*
X185087380Y-95316318D02*
X185087380Y-94046318D01*
X185087380Y-94046318D02*
X184966428Y-94227746D01*
X184966428Y-94227746D02*
X184845476Y-94348699D01*
X184845476Y-94348699D02*
X184724523Y-94409175D01*
D11*
X145395666Y-79575819D02*
X145395666Y-80290104D01*
X145395666Y-80290104D02*
X145348047Y-80432961D01*
X145348047Y-80432961D02*
X145252809Y-80528200D01*
X145252809Y-80528200D02*
X145109952Y-80575819D01*
X145109952Y-80575819D02*
X145014714Y-80575819D01*
X145776619Y-79575819D02*
X146395666Y-79575819D01*
X146395666Y-79575819D02*
X146062333Y-79956771D01*
X146062333Y-79956771D02*
X146205190Y-79956771D01*
X146205190Y-79956771D02*
X146300428Y-80004390D01*
X146300428Y-80004390D02*
X146348047Y-80052009D01*
X146348047Y-80052009D02*
X146395666Y-80147247D01*
X146395666Y-80147247D02*
X146395666Y-80385342D01*
X146395666Y-80385342D02*
X146348047Y-80480580D01*
X146348047Y-80480580D02*
X146300428Y-80528200D01*
X146300428Y-80528200D02*
X146205190Y-80575819D01*
X146205190Y-80575819D02*
X145919476Y-80575819D01*
X145919476Y-80575819D02*
X145824238Y-80528200D01*
X145824238Y-80528200D02*
X145776619Y-80480580D01*
X178286580Y-87379666D02*
X178334200Y-87427285D01*
X178334200Y-87427285D02*
X178381819Y-87570142D01*
X178381819Y-87570142D02*
X178381819Y-87665380D01*
X178381819Y-87665380D02*
X178334200Y-87808237D01*
X178334200Y-87808237D02*
X178238961Y-87903475D01*
X178238961Y-87903475D02*
X178143723Y-87951094D01*
X178143723Y-87951094D02*
X177953247Y-87998713D01*
X177953247Y-87998713D02*
X177810390Y-87998713D01*
X177810390Y-87998713D02*
X177619914Y-87951094D01*
X177619914Y-87951094D02*
X177524676Y-87903475D01*
X177524676Y-87903475D02*
X177429438Y-87808237D01*
X177429438Y-87808237D02*
X177381819Y-87665380D01*
X177381819Y-87665380D02*
X177381819Y-87570142D01*
X177381819Y-87570142D02*
X177429438Y-87427285D01*
X177429438Y-87427285D02*
X177477057Y-87379666D01*
X177381819Y-87046332D02*
X177381819Y-86427285D01*
X177381819Y-86427285D02*
X177762771Y-86760618D01*
X177762771Y-86760618D02*
X177762771Y-86617761D01*
X177762771Y-86617761D02*
X177810390Y-86522523D01*
X177810390Y-86522523D02*
X177858009Y-86474904D01*
X177858009Y-86474904D02*
X177953247Y-86427285D01*
X177953247Y-86427285D02*
X178191342Y-86427285D01*
X178191342Y-86427285D02*
X178286580Y-86474904D01*
X178286580Y-86474904D02*
X178334200Y-86522523D01*
X178334200Y-86522523D02*
X178381819Y-86617761D01*
X178381819Y-86617761D02*
X178381819Y-86903475D01*
X178381819Y-86903475D02*
X178334200Y-86998713D01*
X178334200Y-86998713D02*
X178286580Y-87046332D01*
X222408666Y-79845819D02*
X222408666Y-80560104D01*
X222408666Y-80560104D02*
X222361047Y-80702961D01*
X222361047Y-80702961D02*
X222265809Y-80798200D01*
X222265809Y-80798200D02*
X222122952Y-80845819D01*
X222122952Y-80845819D02*
X222027714Y-80845819D01*
X223313428Y-80179152D02*
X223313428Y-80845819D01*
X223075333Y-79798200D02*
X222837238Y-80512485D01*
X222837238Y-80512485D02*
X223456285Y-80512485D01*
X163668666Y-76565819D02*
X163668666Y-77280104D01*
X163668666Y-77280104D02*
X163621047Y-77422961D01*
X163621047Y-77422961D02*
X163525809Y-77518200D01*
X163525809Y-77518200D02*
X163382952Y-77565819D01*
X163382952Y-77565819D02*
X163287714Y-77565819D01*
X164144857Y-77565819D02*
X164144857Y-76565819D01*
X164144857Y-76565819D02*
X164525809Y-76565819D01*
X164525809Y-76565819D02*
X164621047Y-76613438D01*
X164621047Y-76613438D02*
X164668666Y-76661057D01*
X164668666Y-76661057D02*
X164716285Y-76756295D01*
X164716285Y-76756295D02*
X164716285Y-76899152D01*
X164716285Y-76899152D02*
X164668666Y-76994390D01*
X164668666Y-76994390D02*
X164621047Y-77042009D01*
X164621047Y-77042009D02*
X164525809Y-77089628D01*
X164525809Y-77089628D02*
X164144857Y-77089628D01*
X165668666Y-77565819D02*
X165097238Y-77565819D01*
X165382952Y-77565819D02*
X165382952Y-76565819D01*
X165382952Y-76565819D02*
X165287714Y-76708676D01*
X165287714Y-76708676D02*
X165192476Y-76803914D01*
X165192476Y-76803914D02*
X165097238Y-76851533D01*
D13*
%TO.C,C1*%
X188720000Y-69996267D02*
X188720000Y-69703733D01*
X189740000Y-69996267D02*
X189740000Y-69703733D01*
%TO.C,J2*%
X138750000Y-81993000D02*
X144750000Y-81993000D01*
X138750000Y-82853000D02*
X138750000Y-81993000D01*
X138750000Y-84533000D02*
X144750000Y-84533000D01*
X138750000Y-85393000D02*
X138750000Y-84533000D01*
X138750000Y-87073000D02*
X144750000Y-87073000D01*
X138750000Y-87933000D02*
X138750000Y-87073000D01*
X138750000Y-89613000D02*
X144750000Y-89613000D01*
X138750000Y-90473000D02*
X138750000Y-89613000D01*
X138750000Y-92153000D02*
X144750000Y-92153000D01*
X138750000Y-93013000D02*
X138750000Y-92153000D01*
X144750000Y-81043000D02*
X144750000Y-96503000D01*
X144750000Y-82853000D02*
X138750000Y-82853000D01*
X144750000Y-85393000D02*
X138750000Y-85393000D01*
X144750000Y-87933000D02*
X138750000Y-87933000D01*
X144750000Y-90473000D02*
X138750000Y-90473000D01*
X144750000Y-93013000D02*
X138750000Y-93013000D01*
X144750000Y-96503000D02*
X147510000Y-96503000D01*
X147510000Y-81043000D02*
X144750000Y-81043000D01*
X147510000Y-83693000D02*
X144750000Y-83693000D01*
X147510000Y-86233000D02*
X144750000Y-86233000D01*
X147510000Y-88773000D02*
X144750000Y-88773000D01*
X147510000Y-91313000D02*
X144750000Y-91313000D01*
X147510000Y-93853000D02*
X144750000Y-93853000D01*
X147510000Y-96503000D02*
X147510000Y-81043000D01*
X147822642Y-81993000D02*
X147510000Y-81993000D01*
X147822642Y-82853000D02*
X147510000Y-82853000D01*
X147822642Y-84533000D02*
X147510000Y-84533000D01*
X147822642Y-85393000D02*
X147510000Y-85393000D01*
X147822642Y-87073000D02*
X147510000Y-87073000D01*
X147822642Y-87933000D02*
X147510000Y-87933000D01*
X147822642Y-89613000D02*
X147510000Y-89613000D01*
X147822642Y-90473000D02*
X147510000Y-90473000D01*
X147822642Y-92153000D02*
X147510000Y-92153000D01*
X147822642Y-93013000D02*
X147510000Y-93013000D01*
X147822642Y-94693000D02*
X147510000Y-94693000D01*
X147822642Y-95553000D02*
X147510000Y-95553000D01*
X150280000Y-94693000D02*
X149977358Y-94693000D01*
X150280000Y-95553000D02*
X149977358Y-95553000D01*
X150362642Y-81993000D02*
X149977358Y-81993000D01*
X150362642Y-82853000D02*
X149977358Y-82853000D01*
X150362642Y-84533000D02*
X149977358Y-84533000D01*
X150362642Y-85393000D02*
X149977358Y-85393000D01*
X150362642Y-87073000D02*
X149977358Y-87073000D01*
X150362642Y-87933000D02*
X149977358Y-87933000D01*
X150362642Y-89613000D02*
X149977358Y-89613000D01*
X150362642Y-90473000D02*
X149977358Y-90473000D01*
X150362642Y-92153000D02*
X149977358Y-92153000D01*
X150362642Y-93013000D02*
X149977358Y-93013000D01*
X152710000Y-95123000D02*
X152710000Y-96393000D01*
X152710000Y-96393000D02*
X151440000Y-96393000D01*
X144750000Y-95553000D02*
X138750000Y-95553000D01*
X138750000Y-94693000D01*
X144750000Y-94693000D01*
X144750000Y-95553000D01*
G36*
X144750000Y-95553000D02*
G01*
X138750000Y-95553000D01*
X138750000Y-94693000D01*
X144750000Y-94693000D01*
X144750000Y-95553000D01*
G37*
%TO.C,U1*%
X177690000Y-61986000D02*
X184640000Y-61986000D01*
X177690000Y-68386000D02*
X177690000Y-61986000D01*
X181106000Y-60884000D02*
X181606000Y-61884000D01*
X181606000Y-61884000D02*
X182106000Y-60884000D01*
X182106000Y-60884000D02*
X181106000Y-60884000D01*
X184640000Y-61986000D02*
X184640000Y-61986000D01*
X184640000Y-61986000D02*
X195690000Y-61986000D01*
X195690000Y-61986000D02*
X195690000Y-68386000D01*
X195690000Y-68386000D02*
X177690000Y-68386000D01*
%TO.C,U2*%
X148380000Y-61967000D02*
X155330000Y-61967000D01*
X148380000Y-68367000D02*
X148380000Y-61967000D01*
X151796000Y-60865000D02*
X152296000Y-61865000D01*
X152296000Y-61865000D02*
X152796000Y-60865000D01*
X152796000Y-60865000D02*
X151796000Y-60865000D01*
X155330000Y-61967000D02*
X155330000Y-61967000D01*
X155330000Y-61967000D02*
X166380000Y-61967000D01*
X166380000Y-61967000D02*
X166380000Y-68367000D01*
X166380000Y-68367000D02*
X148380000Y-68367000D01*
%TO.C,C6*%
X199478000Y-84376733D02*
X199478000Y-84669267D01*
X200498000Y-84376733D02*
X200498000Y-84669267D01*
%TO.C,C2*%
X210400000Y-84376733D02*
X210400000Y-84669267D01*
X211420000Y-84376733D02*
X211420000Y-84669267D01*
%TO.C,C5*%
X190117000Y-84426233D02*
X190117000Y-84718767D01*
X191137000Y-84426233D02*
X191137000Y-84718767D01*
D14*
%TO.C,IC2*%
X201942000Y-85676000D02*
X201942000Y-91716000D01*
X208522000Y-85676000D02*
X201942000Y-85676000D01*
X208522000Y-91716000D02*
X208522000Y-85676000D01*
D15*
X209618000Y-82160000D02*
G75*
G02*
X209134000Y-82160000I-242000J0D01*
G01*
X209134000Y-82160000D02*
G75*
G02*
X209618000Y-82160000I242000J0D01*
G01*
D14*
%TO.C,IC1*%
X180753000Y-85736000D02*
X180753000Y-86521000D01*
D10*
X186323000Y-82021000D02*
X186323000Y-82021000D01*
X186323000Y-82121000D02*
X186323000Y-82121000D01*
D14*
X187293000Y-85736000D02*
X180753000Y-85736000D01*
X187293000Y-86521000D02*
X187293000Y-85736000D01*
D10*
X186323000Y-82021000D02*
G75*
G02*
X186323000Y-82121000I0J-50000D01*
G01*
X186323000Y-82121000D02*
G75*
G02*
X186323000Y-82021000I0J50000D01*
G01*
D13*
%TO.C,J3*%
X138694000Y-72341000D02*
X144694000Y-72341000D01*
X138694000Y-73201000D02*
X138694000Y-72341000D01*
X138694000Y-74881000D02*
X144694000Y-74881000D01*
X138694000Y-75741000D02*
X138694000Y-74881000D01*
X144694000Y-71391000D02*
X144694000Y-79231000D01*
X144694000Y-73201000D02*
X138694000Y-73201000D01*
X144694000Y-75741000D02*
X138694000Y-75741000D01*
X144694000Y-79231000D02*
X147454000Y-79231000D01*
X147454000Y-71391000D02*
X144694000Y-71391000D01*
X147454000Y-74041000D02*
X144694000Y-74041000D01*
X147454000Y-76581000D02*
X144694000Y-76581000D01*
X147454000Y-79231000D02*
X147454000Y-71391000D01*
X147766642Y-72341000D02*
X147454000Y-72341000D01*
X147766642Y-73201000D02*
X147454000Y-73201000D01*
X147766642Y-74881000D02*
X147454000Y-74881000D01*
X147766642Y-75741000D02*
X147454000Y-75741000D01*
X147766642Y-77421000D02*
X147454000Y-77421000D01*
X147766642Y-78281000D02*
X147454000Y-78281000D01*
X150224000Y-77421000D02*
X149921358Y-77421000D01*
X150224000Y-78281000D02*
X149921358Y-78281000D01*
X150306642Y-72341000D02*
X149921358Y-72341000D01*
X150306642Y-73201000D02*
X149921358Y-73201000D01*
X150306642Y-74881000D02*
X149921358Y-74881000D01*
X150306642Y-75741000D02*
X149921358Y-75741000D01*
X152654000Y-77851000D02*
X152654000Y-79121000D01*
X152654000Y-79121000D02*
X151384000Y-79121000D01*
X144694000Y-78281000D02*
X138694000Y-78281000D01*
X138694000Y-77421000D01*
X144694000Y-77421000D01*
X144694000Y-78281000D01*
G36*
X144694000Y-78281000D02*
G01*
X138694000Y-78281000D01*
X138694000Y-77421000D01*
X144694000Y-77421000D01*
X144694000Y-78281000D01*
G37*
%TO.C,C3*%
X177417000Y-84373233D02*
X177417000Y-84665767D01*
X178437000Y-84373233D02*
X178437000Y-84665767D01*
%TO.C,J4*%
X210689000Y-79166000D02*
X210689000Y-77836000D01*
X211799000Y-79166000D02*
X210689000Y-79166000D01*
X213289000Y-72396000D02*
X212849000Y-72396000D01*
X213289000Y-73116000D02*
X212849000Y-73116000D01*
X213289000Y-74936000D02*
X212849000Y-74936000D01*
X213289000Y-75656000D02*
X212849000Y-75656000D01*
X213289000Y-77476000D02*
X212909000Y-77476000D01*
X213289000Y-78196000D02*
X212909000Y-78196000D01*
X215799000Y-72396000D02*
X215389000Y-72396000D01*
X215799000Y-73116000D02*
X215389000Y-73116000D01*
X215799000Y-74936000D02*
X215389000Y-74936000D01*
X215799000Y-75656000D02*
X215389000Y-75656000D01*
X215799000Y-77476000D02*
X215389000Y-77476000D01*
X215799000Y-78196000D02*
X215389000Y-78196000D01*
X215799000Y-79166000D02*
X215799000Y-71426000D01*
X224429000Y-71426000D02*
X215799000Y-71426000D01*
X224429000Y-74026000D02*
X215799000Y-74026000D01*
X224429000Y-76566000D02*
X215799000Y-76566000D01*
X224429000Y-76684100D02*
X215799000Y-76684100D01*
X224429000Y-76802195D02*
X215799000Y-76802195D01*
X224429000Y-76920290D02*
X215799000Y-76920290D01*
X224429000Y-77038385D02*
X215799000Y-77038385D01*
X224429000Y-77156480D02*
X215799000Y-77156480D01*
X224429000Y-77274575D02*
X215799000Y-77274575D01*
X224429000Y-77392670D02*
X215799000Y-77392670D01*
X224429000Y-77510765D02*
X215799000Y-77510765D01*
X224429000Y-77628860D02*
X215799000Y-77628860D01*
X224429000Y-77746955D02*
X215799000Y-77746955D01*
X224429000Y-77865050D02*
X215799000Y-77865050D01*
X224429000Y-77983145D02*
X215799000Y-77983145D01*
X224429000Y-78101240D02*
X215799000Y-78101240D01*
X224429000Y-78219335D02*
X215799000Y-78219335D01*
X224429000Y-78337430D02*
X215799000Y-78337430D01*
X224429000Y-78455525D02*
X215799000Y-78455525D01*
X224429000Y-78573620D02*
X215799000Y-78573620D01*
X224429000Y-78691715D02*
X215799000Y-78691715D01*
X224429000Y-78809810D02*
X215799000Y-78809810D01*
X224429000Y-78927905D02*
X215799000Y-78927905D01*
X224429000Y-79046000D02*
X215799000Y-79046000D01*
X224429000Y-79166000D02*
X215799000Y-79166000D01*
X224429000Y-79166000D02*
X224429000Y-71426000D01*
%TO.C,JP1*%
X163102000Y-74311000D02*
X165902000Y-74311000D01*
X163102000Y-76311000D02*
X163102000Y-74311000D01*
X165902000Y-74311000D02*
X165902000Y-76311000D01*
X165902000Y-76311000D02*
X163102000Y-76311000D01*
%TD*%
M02*
