%TF.GenerationSoftware,KiCad,Pcbnew,9.0.2*%
%TF.CreationDate,2026-04-16T01:12:58+09:00*%
%TF.ProjectId,PCB_matrix3216,5043425f-6d61-4747-9269-78333231362e,rev?*%
%TF.SameCoordinates,Original*%
%TF.FileFunction,Copper,L2,Bot*%
%TF.FilePolarity,Positive*%
%FSLAX46Y46*%
G04 Gerber Fmt 4.6, Leading zero omitted, Abs format (unit mm)*
G04 Created by KiCad (PCBNEW 9.0.2) date 2026-04-16 01:12:58*
%MOMM*%
%LPD*%
G01*
G04 APERTURE LIST*
G04 Aperture macros list*
%AMRoundRect*
0 Rectangle with rounded corners*
0 $1 Rounding radius*
0 $2 $3 $4 $5 $6 $7 $8 $9 X,Y pos of 4 corners*
0 Add a 4 corners polygon primitive as box body*
4,1,4,$2,$3,$4,$5,$6,$7,$8,$9,$2,$3,0*
0 Add four circle primitives for the rounded corners*
1,1,$1+$1,$2,$3*
1,1,$1+$1,$4,$5*
1,1,$1+$1,$6,$7*
1,1,$1+$1,$8,$9*
0 Add four rect primitives between the rounded corners*
20,1,$1+$1,$2,$3,$4,$5,0*
20,1,$1+$1,$4,$5,$6,$7,0*
20,1,$1+$1,$6,$7,$8,$9,0*
20,1,$1+$1,$8,$9,$2,$3,0*%
G04 Aperture macros list end*
%TA.AperFunction,ComponentPad*%
%ADD10C,1.700000*%
%TD*%
%TA.AperFunction,ComponentPad*%
%ADD11R,1.700000X1.700000*%
%TD*%
%TA.AperFunction,ComponentPad*%
%ADD12C,2.000000*%
%TD*%
%TA.AperFunction,ComponentPad*%
%ADD13RoundRect,0.250000X-0.600000X0.600000X-0.600000X-0.600000X0.600000X-0.600000X0.600000X0.600000X0*%
%TD*%
%TA.AperFunction,SMDPad,CuDef*%
%ADD14R,4.400000X3.300000*%
%TD*%
%TA.AperFunction,SMDPad,CuDef*%
%ADD15R,6.200000X3.900000*%
%TD*%
%TA.AperFunction,ViaPad*%
%ADD16C,1.600000*%
%TD*%
%TA.AperFunction,ViaPad*%
%ADD17C,0.600000*%
%TD*%
%TA.AperFunction,ViaPad*%
%ADD18C,1.200000*%
%TD*%
%TA.AperFunction,Conductor*%
%ADD19C,1.000000*%
%TD*%
%TA.AperFunction,Conductor*%
%ADD20C,0.250000*%
%TD*%
%TA.AperFunction,Conductor*%
%ADD21C,0.600000*%
%TD*%
%TA.AperFunction,Conductor*%
%ADD22C,0.500000*%
%TD*%
%TA.AperFunction,Conductor*%
%ADD23C,0.200000*%
%TD*%
G04 APERTURE END LIST*
D10*
%TO.P,J2,1,Pin_1*%
%TO.N,/SIN_1*%
X151440000Y-82423000D03*
%TO.P,J2,2,Pin_2*%
%TO.N,/LATCH*%
X151440000Y-84963000D03*
%TO.P,J2,3,Pin_3*%
%TO.N,/CLK*%
X151440000Y-87503000D03*
%TO.P,J2,4,Pin_4*%
%TO.N,/~{STROBE}*%
X151440000Y-90043000D03*
%TO.P,J2,5,Pin_5*%
%TO.N,GND*%
X151440000Y-92583000D03*
D11*
%TO.P,J2,6,Pin_6*%
%TO.N,+3.3V*%
X151440000Y-95123000D03*
D10*
%TO.P,J2,7,Pin_7*%
X148900000Y-95123000D03*
%TO.P,J2,8,Pin_8*%
%TO.N,GND*%
X148900000Y-92583000D03*
%TO.P,J2,9,Pin_9*%
%TO.N,unconnected-(J2-Pin_9-Pad9)*%
X148900000Y-90043000D03*
%TO.P,J2,10,Pin_10*%
%TO.N,unconnected-(J2-Pin_10-Pad10)*%
X148900000Y-87503000D03*
%TO.P,J2,11,Pin_11*%
%TO.N,/SIN_3*%
X148900000Y-84963000D03*
%TO.P,J2,12,Pin_12*%
%TO.N,/SIN_2*%
X148900000Y-82423000D03*
%TD*%
D12*
%TO.P,REF\u002A\u002A,1*%
%TO.N,+5V*%
X206121000Y-79375000D03*
%TD*%
D10*
%TO.P,U1,1,LED_PWR*%
%TO.N,+5V*%
X181610000Y-63916000D03*
%TO.P,U1,2,SIN_1*%
%TO.N,/SIN_1*%
X181610000Y-66456000D03*
%TO.P,U1,3,SIN_2*%
%TO.N,/SIN_2*%
X184150000Y-63916000D03*
%TO.P,U1,4,SIN_3*%
%TO.N,/SIN_3*%
X184150000Y-66456000D03*
%TO.P,U1,5,CLK*%
%TO.N,/CLK*%
X186690000Y-63916000D03*
%TO.P,U1,6,LATCH*%
%TO.N,/LATCH*%
X186690000Y-66456000D03*
%TO.P,U1,7,~{STROBE}*%
%TO.N,/~{STROBE}*%
X189230000Y-63916000D03*
%TO.P,U1,8,IC_PWR*%
%TO.N,+3.3V*%
X189230000Y-66456000D03*
D13*
%TO.P,U1,9,GND*%
%TO.N,GND*%
X191770000Y-63916000D03*
D10*
%TO.P,U1,10,GND*%
X191770000Y-66456000D03*
%TD*%
%TO.P,U2,31,LED_PWR*%
%TO.N,unconnected-(U2-LED_PWR-Pad31)*%
X152300000Y-63897000D03*
%TO.P,U2,32,SIN_1*%
%TO.N,/SIN_1*%
X152300000Y-66437000D03*
%TO.P,U2,33,SIN_2*%
%TO.N,/SIN_2*%
X154840000Y-63897000D03*
%TO.P,U2,34,SIN_3*%
%TO.N,/SIN_3*%
X154840000Y-66437000D03*
%TO.P,U2,35,CLK*%
%TO.N,/CLK*%
X157380000Y-63897000D03*
%TO.P,U2,36,LATCH*%
%TO.N,/LATCH*%
X157380000Y-66437000D03*
%TO.P,U2,37,~{STROBE}*%
%TO.N,/~{STROBE}*%
X159920000Y-63897000D03*
%TO.P,U2,38,IC_PWR*%
%TO.N,unconnected-(U2-IC_PWR-Pad38)*%
X159920000Y-66437000D03*
D13*
%TO.P,U2,39,GND*%
%TO.N,GND*%
X162460000Y-63897000D03*
D10*
%TO.P,U2,40,GND*%
X162460000Y-66437000D03*
%TD*%
D11*
%TO.P,REF\u002A\u002A,1*%
%TO.N,N/C*%
X159385000Y-102235000D03*
D10*
%TO.P,REF\u002A\u002A,2*%
%TO.N,+3.3V*%
X159385000Y-99695000D03*
%TO.P,REF\u002A\u002A,3*%
%TO.N,N/C*%
X161925000Y-102235000D03*
%TO.P,REF\u002A\u002A,4*%
%TO.N,GND*%
X161925000Y-99695000D03*
%TO.P,REF\u002A\u002A,5*%
%TO.N,N/C*%
X164465000Y-102235000D03*
%TO.P,REF\u002A\u002A,6*%
X164465000Y-99695000D03*
%TO.P,REF\u002A\u002A,7*%
X167005000Y-102235000D03*
%TO.P,REF\u002A\u002A,8*%
X167005000Y-99695000D03*
%TO.P,REF\u002A\u002A,9*%
X169545000Y-102235000D03*
%TO.P,REF\u002A\u002A,10*%
X169545000Y-99695000D03*
%TO.P,REF\u002A\u002A,11*%
X172085000Y-102235000D03*
%TO.P,REF\u002A\u002A,12*%
X172085000Y-99695000D03*
%TD*%
D11*
%TO.P,REF\u002A\u002A,1*%
%TO.N,N/C*%
X159385000Y-107315000D03*
D10*
%TO.P,REF\u002A\u002A,2*%
X159385000Y-104775000D03*
%TO.P,REF\u002A\u002A,3*%
X161925000Y-107315000D03*
%TO.P,REF\u002A\u002A,4*%
X161925000Y-104775000D03*
%TO.P,REF\u002A\u002A,5*%
X164465000Y-107315000D03*
%TO.P,REF\u002A\u002A,6*%
X164465000Y-104775000D03*
%TO.P,REF\u002A\u002A,7*%
X167005000Y-107315000D03*
%TO.P,REF\u002A\u002A,8*%
X167005000Y-104775000D03*
%TO.P,REF\u002A\u002A,9*%
X169545000Y-107315000D03*
%TO.P,REF\u002A\u002A,10*%
X169545000Y-104775000D03*
%TO.P,REF\u002A\u002A,11*%
X172085000Y-107315000D03*
%TO.P,REF\u002A\u002A,12*%
X172085000Y-104775000D03*
%TD*%
D11*
%TO.P,J3,1,Pin_1*%
%TO.N,GND*%
X151384000Y-77851000D03*
D10*
%TO.P,J3,2,Pin_2*%
%TO.N,Net-(J3-Pin_2)*%
X151384000Y-75311000D03*
%TO.P,J3,3,Pin_3*%
%TO.N,VCC*%
X151384000Y-72771000D03*
%TO.P,J3,4,Pin_4*%
X148844000Y-72771000D03*
%TO.P,J3,5,Pin_5*%
%TO.N,unconnected-(J3-Pin_5-Pad5)*%
X148844000Y-75311000D03*
%TO.P,J3,6,Pin_6*%
%TO.N,GND*%
X148844000Y-77851000D03*
%TD*%
D11*
%TO.P,J4,1,Pin_1*%
%TO.N,GND*%
X211799000Y-77836000D03*
D10*
%TO.P,J4,2,Pin_2*%
%TO.N,+3.3V*%
X211799000Y-75296000D03*
%TO.P,J4,3,Pin_3*%
%TO.N,VCC*%
X211799000Y-72756000D03*
%TO.P,J4,4,Pin_4*%
X214339000Y-72756000D03*
%TO.P,J4,5,Pin_5*%
%TO.N,unconnected-(J4-Pin_5-Pad5)*%
X214339000Y-75296000D03*
%TO.P,J4,6,Pin_6*%
%TO.N,GND*%
X214339000Y-77836000D03*
%TD*%
D14*
%TO.P,J1,1*%
%TO.N,VCC*%
X194506000Y-96582000D03*
D15*
%TO.P,J1,2*%
%TO.N,GND*%
X185506000Y-103732000D03*
%TO.P,J1,3*%
%TO.N,unconnected-(J1-Pad3)*%
X185506000Y-90832000D03*
%TD*%
D16*
%TO.N,+3.3V*%
X168021000Y-75311000D03*
D17*
X186690000Y-76581000D03*
%TO.N,GND*%
X194183000Y-103759000D03*
X149606000Y-64262000D03*
X193167000Y-89916000D03*
X203200000Y-62738000D03*
X198501000Y-80772000D03*
X171323000Y-77851000D03*
X174752000Y-89662000D03*
X171323000Y-80010000D03*
X179324000Y-103759000D03*
X164084000Y-79375000D03*
X191516000Y-89916000D03*
X208280000Y-62738000D03*
X199644000Y-89916000D03*
X194310000Y-80899000D03*
X172593000Y-67691000D03*
X172085000Y-89662000D03*
X198882000Y-62738000D03*
X165735000Y-87503000D03*
X183642000Y-77343000D03*
X191897000Y-103759000D03*
X157734000Y-88011000D03*
X175768000Y-103759000D03*
X213487000Y-89789000D03*
X211328000Y-89789000D03*
X149098000Y-69342000D03*
X177292000Y-89662000D03*
D16*
%TO.N,VCC*%
X200279000Y-96647000D03*
D18*
%TO.N,+5V*%
X186309000Y-79121000D03*
D17*
%TO.N,/LATCH*%
X176657000Y-77851000D03*
%TO.N,/SIN_3*%
X155956000Y-70739000D03*
%TO.N,/~{STROBE}*%
X177419000Y-79375000D03*
%TD*%
D19*
%TO.N,+3.3V*%
X153797000Y-95123000D02*
X168021000Y-80899000D01*
X168021000Y-80899000D02*
X168021000Y-75311000D01*
D20*
X186690000Y-76581000D02*
X189230000Y-74041000D01*
X189230000Y-74041000D02*
X189230000Y-66456000D01*
D19*
X151440000Y-95123000D02*
X153797000Y-95123000D01*
%TO.N,VCC*%
X194506000Y-96582000D02*
X200214000Y-96582000D01*
X200214000Y-96582000D02*
X200279000Y-96647000D01*
D21*
%TO.N,+5V*%
X186309000Y-79121000D02*
X189230000Y-79121000D01*
D22*
X186182000Y-61722000D02*
X194818000Y-61722000D01*
X182499000Y-61722000D02*
X186182000Y-61722000D01*
X182245000Y-61976000D02*
X182499000Y-61722000D01*
D21*
X189230000Y-79121000D02*
X197104000Y-71247000D01*
X197104000Y-64008000D02*
X194818000Y-61722000D01*
X205867000Y-79121000D02*
X206121000Y-79375000D01*
D22*
X181610000Y-62611000D02*
X182245000Y-61976000D01*
D21*
X189230000Y-79121000D02*
X205867000Y-79121000D01*
D22*
X181610000Y-63916000D02*
X181610000Y-62611000D01*
D21*
X197104000Y-71247000D02*
X197104000Y-64008000D01*
D23*
%TO.N,/CLK*%
X158623000Y-81915000D02*
X158623000Y-65140000D01*
X151440000Y-87503000D02*
X153035000Y-87503000D01*
X158623000Y-65140000D02*
X157380000Y-63897000D01*
X153035000Y-87503000D02*
X158623000Y-81915000D01*
%TO.N,/LATCH*%
X186690000Y-67818000D02*
X186690000Y-66456000D01*
X176657000Y-77851000D02*
X186690000Y-67818000D01*
X151440000Y-84963000D02*
X153416000Y-84963000D01*
X153416000Y-84963000D02*
X157380000Y-80999000D01*
X157380000Y-71120000D02*
X157380000Y-66437000D01*
X157380000Y-80999000D02*
X157380000Y-71120000D01*
%TO.N,/SIN_3*%
X154840000Y-69496000D02*
X154840000Y-66437000D01*
X150170000Y-83693000D02*
X148900000Y-84963000D01*
X152781000Y-83693000D02*
X150170000Y-83693000D01*
X155956000Y-70739000D02*
X155956000Y-70612000D01*
X155956000Y-70739000D02*
X155956000Y-80518000D01*
X155956000Y-70612000D02*
X154840000Y-69496000D01*
X155956000Y-80518000D02*
X152781000Y-83693000D01*
%TO.N,/~{STROBE}*%
X187960000Y-68834000D02*
X187960000Y-65186000D01*
X161163000Y-65140000D02*
X159920000Y-63897000D01*
X161163000Y-69342000D02*
X161163000Y-65140000D01*
X151440000Y-90043000D02*
X153543000Y-90043000D01*
X153543000Y-90043000D02*
X161163000Y-82423000D01*
X187960000Y-65186000D02*
X189230000Y-63916000D01*
X177419000Y-79375000D02*
X187960000Y-68834000D01*
X161163000Y-82423000D02*
X161163000Y-69342000D01*
%TO.N,/SIN_2*%
X146304000Y-81026000D02*
X146304000Y-63754000D01*
X154840000Y-62711000D02*
X155829000Y-61722000D01*
X180086000Y-64770000D02*
X180467000Y-65151000D01*
X147701000Y-82423000D02*
X146304000Y-81026000D01*
X155829000Y-61722000D02*
X178054000Y-61722000D01*
X182915000Y-65151000D02*
X184150000Y-63916000D01*
X178054000Y-61722000D02*
X180086000Y-63754000D01*
X180467000Y-65151000D02*
X182915000Y-65151000D01*
X148900000Y-82423000D02*
X147701000Y-82423000D01*
X146304000Y-63754000D02*
X148336000Y-61722000D01*
X154840000Y-63897000D02*
X154840000Y-62711000D01*
X153824000Y-61722000D02*
X154840000Y-62738000D01*
X148336000Y-61722000D02*
X153824000Y-61722000D01*
X180086000Y-63754000D02*
X180086000Y-64770000D01*
%TD*%
%TA.AperFunction,Conductor*%
%TO.N,GND*%
G36*
X213140444Y-75949999D02*
G01*
X213179486Y-75995056D01*
X213183951Y-76003820D01*
X213308890Y-76175786D01*
X213459213Y-76326109D01*
X213631179Y-76451048D01*
X213631181Y-76451049D01*
X213631184Y-76451051D01*
X213640493Y-76455794D01*
X213691290Y-76503766D01*
X213708087Y-76571587D01*
X213685552Y-76637722D01*
X213640505Y-76676760D01*
X213631446Y-76681376D01*
X213631440Y-76681380D01*
X213577282Y-76720727D01*
X213577282Y-76720728D01*
X214209591Y-77353037D01*
X214146007Y-77370075D01*
X214031993Y-77435901D01*
X213938901Y-77528993D01*
X213873075Y-77643007D01*
X213856037Y-77706591D01*
X213186642Y-77037196D01*
X213153157Y-76975873D01*
X213154077Y-76961166D01*
X213151501Y-76961444D01*
X213142596Y-76878619D01*
X213092354Y-76743913D01*
X213092350Y-76743906D01*
X213006190Y-76628812D01*
X213006187Y-76628809D01*
X212891093Y-76542649D01*
X212891088Y-76542646D01*
X212759528Y-76493577D01*
X212703595Y-76451705D01*
X212679178Y-76386241D01*
X212694030Y-76317968D01*
X212715175Y-76289720D01*
X212829104Y-76175792D01*
X212954051Y-76003816D01*
X212958514Y-75995054D01*
X213006488Y-75944259D01*
X213074308Y-75927463D01*
X213140444Y-75949999D01*
G37*
%TD.AperFunction*%
%TA.AperFunction,Conductor*%
G36*
X148072077Y-60972185D02*
G01*
X148117832Y-61024989D01*
X148127776Y-61094147D01*
X148098751Y-61157703D01*
X148067040Y-61183886D01*
X148060713Y-61187538D01*
X148054095Y-61191360D01*
X148010689Y-61216420D01*
X147967285Y-61241479D01*
X147967282Y-61241481D01*
X145823479Y-63385284D01*
X145803110Y-63420566D01*
X145794500Y-63435480D01*
X145783606Y-63454349D01*
X145744423Y-63522214D01*
X145744423Y-63522215D01*
X145703499Y-63674943D01*
X145703499Y-63674945D01*
X145703499Y-63843046D01*
X145703500Y-63843059D01*
X145703500Y-80939330D01*
X145703499Y-80939348D01*
X145703499Y-81105054D01*
X145703498Y-81105054D01*
X145744423Y-81257785D01*
X145773358Y-81307900D01*
X145773359Y-81307904D01*
X145773360Y-81307904D01*
X145817253Y-81383931D01*
X145823479Y-81394714D01*
X145823481Y-81394717D01*
X145942349Y-81513585D01*
X145942355Y-81513590D01*
X147216139Y-82787374D01*
X147216149Y-82787385D01*
X147220479Y-82791715D01*
X147220480Y-82791716D01*
X147332284Y-82903520D01*
X147332286Y-82903521D01*
X147332290Y-82903524D01*
X147397915Y-82941412D01*
X147469216Y-82982577D01*
X147581019Y-83012534D01*
X147621942Y-83023500D01*
X147621943Y-83023500D01*
X147628505Y-83023500D01*
X147642357Y-83026720D01*
X147660897Y-83037188D01*
X147681320Y-83043185D01*
X147691555Y-83054498D01*
X147703198Y-83061072D01*
X147711170Y-83076179D01*
X147724765Y-83091205D01*
X147744947Y-83130814D01*
X147744948Y-83130815D01*
X147869890Y-83302786D01*
X148020213Y-83453109D01*
X148192182Y-83578050D01*
X148200946Y-83582516D01*
X148251742Y-83630491D01*
X148268536Y-83698312D01*
X148245998Y-83764447D01*
X148200946Y-83803484D01*
X148192182Y-83807949D01*
X148020213Y-83932890D01*
X147869890Y-84083213D01*
X147744951Y-84255179D01*
X147648444Y-84444585D01*
X147582753Y-84646760D01*
X147549500Y-84856713D01*
X147549500Y-85069287D01*
X147582754Y-85279243D01*
X147596486Y-85321507D01*
X147648444Y-85481414D01*
X147744951Y-85670820D01*
X147869890Y-85842786D01*
X148020213Y-85993109D01*
X148192182Y-86118050D01*
X148200946Y-86122516D01*
X148251742Y-86170491D01*
X148268536Y-86238312D01*
X148245998Y-86304447D01*
X148200946Y-86343484D01*
X148192182Y-86347949D01*
X148020213Y-86472890D01*
X147869890Y-86623213D01*
X147744951Y-86795179D01*
X147648444Y-86984585D01*
X147582753Y-87186760D01*
X147549500Y-87396713D01*
X147549500Y-87609287D01*
X147582754Y-87819243D01*
X147596486Y-87861507D01*
X147648444Y-88021414D01*
X147744951Y-88210820D01*
X147869890Y-88382786D01*
X148020213Y-88533109D01*
X148192182Y-88658050D01*
X148200946Y-88662516D01*
X148251742Y-88710491D01*
X148268536Y-88778312D01*
X148245998Y-88844447D01*
X148200946Y-88883484D01*
X148192182Y-88887949D01*
X148020213Y-89012890D01*
X147869890Y-89163213D01*
X147744951Y-89335179D01*
X147648444Y-89524585D01*
X147582753Y-89726760D01*
X147549500Y-89936713D01*
X147549500Y-90149287D01*
X147582754Y-90359243D01*
X147596486Y-90401507D01*
X147648444Y-90561414D01*
X147744951Y-90750820D01*
X147869890Y-90922786D01*
X148020213Y-91073109D01*
X148192179Y-91198048D01*
X148192181Y-91198049D01*
X148192184Y-91198051D01*
X148201493Y-91202794D01*
X148252290Y-91250766D01*
X148269087Y-91318587D01*
X148246552Y-91384722D01*
X148201505Y-91423760D01*
X148192446Y-91428376D01*
X148192440Y-91428380D01*
X148138282Y-91467727D01*
X148138282Y-91467728D01*
X148770591Y-92100037D01*
X148707007Y-92117075D01*
X148592993Y-92182901D01*
X148499901Y-92275993D01*
X148434075Y-92390007D01*
X148417037Y-92453591D01*
X147784728Y-91821282D01*
X147784727Y-91821282D01*
X147745380Y-91875439D01*
X147648904Y-92064782D01*
X147583242Y-92266869D01*
X147583242Y-92266872D01*
X147550000Y-92476753D01*
X147550000Y-92689246D01*
X147583242Y-92899127D01*
X147583242Y-92899130D01*
X147648904Y-93101217D01*
X147745375Y-93290550D01*
X147784728Y-93344716D01*
X148417037Y-92712408D01*
X148434075Y-92775993D01*
X148499901Y-92890007D01*
X148592993Y-92983099D01*
X148707007Y-93048925D01*
X148770590Y-93065962D01*
X148138282Y-93698269D01*
X148138282Y-93698270D01*
X148192452Y-93737626D01*
X148192451Y-93737626D01*
X148201495Y-93742234D01*
X148252292Y-93790208D01*
X148269087Y-93858029D01*
X148246550Y-93924164D01*
X148201499Y-93963202D01*
X148192182Y-93967949D01*
X148020213Y-94092890D01*
X147869890Y-94243213D01*
X147744951Y-94415179D01*
X147648444Y-94604585D01*
X147582753Y-94806760D01*
X147549500Y-95016713D01*
X147549500Y-95229286D01*
X147573136Y-95378522D01*
X147582754Y-95439243D01*
X147628976Y-95581500D01*
X147648444Y-95641414D01*
X147744951Y-95830820D01*
X147869890Y-96002786D01*
X148020213Y-96153109D01*
X148192179Y-96278048D01*
X148192181Y-96278049D01*
X148192184Y-96278051D01*
X148381588Y-96374557D01*
X148583757Y-96440246D01*
X148793713Y-96473500D01*
X148793714Y-96473500D01*
X149006286Y-96473500D01*
X149006287Y-96473500D01*
X149216243Y-96440246D01*
X149418412Y-96374557D01*
X149607816Y-96278051D01*
X149779792Y-96153104D01*
X149893329Y-96039566D01*
X149954648Y-96006084D01*
X150024340Y-96011068D01*
X150080274Y-96052939D01*
X150097189Y-96083917D01*
X150146202Y-96215328D01*
X150146206Y-96215335D01*
X150232452Y-96330544D01*
X150232455Y-96330547D01*
X150347664Y-96416793D01*
X150347671Y-96416797D01*
X150482517Y-96467091D01*
X150482516Y-96467091D01*
X150484963Y-96467354D01*
X150542127Y-96473500D01*
X152337872Y-96473499D01*
X152397483Y-96467091D01*
X152532331Y-96416796D01*
X152647546Y-96330546D01*
X152733796Y-96215331D01*
X152737960Y-96204165D01*
X152779829Y-96148234D01*
X152845293Y-96123816D01*
X152854141Y-96123500D01*
X153895542Y-96123500D01*
X153920991Y-96118437D01*
X153992188Y-96104275D01*
X154088836Y-96085051D01*
X154143783Y-96062291D01*
X154270914Y-96009632D01*
X154434782Y-95900139D01*
X154574139Y-95760782D01*
X154574139Y-95760780D01*
X154584347Y-95750573D01*
X154584348Y-95750570D01*
X155450783Y-94884135D01*
X191805500Y-94884135D01*
X191805500Y-98279870D01*
X191805501Y-98279876D01*
X191811908Y-98339483D01*
X191862202Y-98474328D01*
X191862206Y-98474335D01*
X191948452Y-98589544D01*
X191948455Y-98589547D01*
X192063664Y-98675793D01*
X192063671Y-98675797D01*
X192198517Y-98726091D01*
X192198516Y-98726091D01*
X192205444Y-98726835D01*
X192258127Y-98732500D01*
X196753872Y-98732499D01*
X196813483Y-98726091D01*
X196948331Y-98675796D01*
X197063546Y-98589546D01*
X197149796Y-98474331D01*
X197200091Y-98339483D01*
X197206500Y-98279873D01*
X197206500Y-97706500D01*
X197226185Y-97639461D01*
X197278989Y-97593706D01*
X197330500Y-97582500D01*
X199323953Y-97582500D01*
X199390992Y-97602185D01*
X199411634Y-97618819D01*
X199431786Y-97638971D01*
X199524734Y-97706500D01*
X199597390Y-97759287D01*
X199713607Y-97818503D01*
X199779776Y-97852218D01*
X199779778Y-97852218D01*
X199779781Y-97852220D01*
X199884137Y-97886127D01*
X199974465Y-97915477D01*
X200075557Y-97931488D01*
X200176648Y-97947500D01*
X200176649Y-97947500D01*
X200381351Y-97947500D01*
X200381352Y-97947500D01*
X200583534Y-97915477D01*
X200778219Y-97852220D01*
X200960610Y-97759287D01*
X201053590Y-97691732D01*
X201126213Y-97638971D01*
X201126215Y-97638968D01*
X201126219Y-97638966D01*
X201270966Y-97494219D01*
X201270968Y-97494215D01*
X201270971Y-97494213D01*
X201323732Y-97421590D01*
X201391287Y-97328610D01*
X201484220Y-97146219D01*
X201547477Y-96951534D01*
X201579500Y-96749352D01*
X201579500Y-96544648D01*
X201559250Y-96416796D01*
X201547477Y-96342465D01*
X201518127Y-96252137D01*
X201484220Y-96147781D01*
X201484218Y-96147778D01*
X201484218Y-96147776D01*
X201449930Y-96080483D01*
X201391287Y-95965390D01*
X201383556Y-95954749D01*
X201270971Y-95799786D01*
X201126213Y-95655028D01*
X200960613Y-95534715D01*
X200960612Y-95534714D01*
X200960610Y-95534713D01*
X200903653Y-95505691D01*
X200778223Y-95441781D01*
X200583534Y-95378522D01*
X200408995Y-95350878D01*
X200381352Y-95346500D01*
X200176648Y-95346500D01*
X200152329Y-95350351D01*
X199974465Y-95378522D01*
X199779776Y-95441781D01*
X199597389Y-95534713D01*
X199565589Y-95557818D01*
X199499782Y-95581298D01*
X199492703Y-95581500D01*
X197330499Y-95581500D01*
X197263460Y-95561815D01*
X197217705Y-95509011D01*
X197206499Y-95457500D01*
X197206499Y-94884129D01*
X197206498Y-94884123D01*
X197206497Y-94884116D01*
X197200091Y-94824517D01*
X197149796Y-94689669D01*
X197149795Y-94689668D01*
X197149793Y-94689664D01*
X197063547Y-94574455D01*
X197063544Y-94574452D01*
X196948335Y-94488206D01*
X196948328Y-94488202D01*
X196813482Y-94437908D01*
X196813483Y-94437908D01*
X196753883Y-94431501D01*
X196753881Y-94431500D01*
X196753873Y-94431500D01*
X196753864Y-94431500D01*
X192258129Y-94431500D01*
X192258123Y-94431501D01*
X192198516Y-94437908D01*
X192063671Y-94488202D01*
X192063664Y-94488206D01*
X191948455Y-94574452D01*
X191948452Y-94574455D01*
X191862206Y-94689664D01*
X191862202Y-94689671D01*
X191811908Y-94824517D01*
X191805501Y-94884116D01*
X191805501Y-94884123D01*
X191805500Y-94884135D01*
X155450783Y-94884135D01*
X161500784Y-88834135D01*
X181905500Y-88834135D01*
X181905500Y-92829870D01*
X181905501Y-92829876D01*
X181911908Y-92889483D01*
X181962202Y-93024328D01*
X181962206Y-93024335D01*
X182048452Y-93139544D01*
X182048455Y-93139547D01*
X182163664Y-93225793D01*
X182163671Y-93225797D01*
X182298517Y-93276091D01*
X182298516Y-93276091D01*
X182305444Y-93276835D01*
X182358127Y-93282500D01*
X188653872Y-93282499D01*
X188713483Y-93276091D01*
X188848331Y-93225796D01*
X188963546Y-93139546D01*
X189049796Y-93024331D01*
X189100091Y-92889483D01*
X189106500Y-92829873D01*
X189106499Y-88834128D01*
X189100091Y-88774517D01*
X189099525Y-88773000D01*
X189049797Y-88639671D01*
X189049793Y-88639664D01*
X188963547Y-88524455D01*
X188963544Y-88524452D01*
X188848335Y-88438206D01*
X188848328Y-88438202D01*
X188713482Y-88387908D01*
X188713483Y-88387908D01*
X188653883Y-88381501D01*
X188653881Y-88381500D01*
X188653873Y-88381500D01*
X188653864Y-88381500D01*
X182358129Y-88381500D01*
X182358123Y-88381501D01*
X182298516Y-88387908D01*
X182163671Y-88438202D01*
X182163664Y-88438206D01*
X182048455Y-88524452D01*
X182048452Y-88524455D01*
X181962206Y-88639664D01*
X181962202Y-88639671D01*
X181911908Y-88774517D01*
X181905501Y-88834116D01*
X181905501Y-88834123D01*
X181905500Y-88834135D01*
X161500784Y-88834135D01*
X168798140Y-81536781D01*
X168866494Y-81434481D01*
X168907632Y-81372914D01*
X168966504Y-81230784D01*
X168983052Y-81190835D01*
X169021500Y-80997540D01*
X169021500Y-80800460D01*
X169021500Y-76186761D01*
X169041185Y-76119722D01*
X169045165Y-76113899D01*
X169133287Y-75992610D01*
X169226220Y-75810219D01*
X169289477Y-75615534D01*
X169321500Y-75413352D01*
X169321500Y-75208648D01*
X169289477Y-75006466D01*
X169285673Y-74994760D01*
X169260127Y-74916137D01*
X169226220Y-74811781D01*
X169226218Y-74811778D01*
X169226218Y-74811776D01*
X169192503Y-74745607D01*
X169133287Y-74629390D01*
X169120613Y-74611946D01*
X169012971Y-74463786D01*
X168868213Y-74319028D01*
X168702613Y-74198715D01*
X168702612Y-74198714D01*
X168702610Y-74198713D01*
X168618681Y-74155949D01*
X168520223Y-74105781D01*
X168325534Y-74042522D01*
X168150995Y-74014878D01*
X168123352Y-74010500D01*
X167918648Y-74010500D01*
X167894329Y-74014351D01*
X167716465Y-74042522D01*
X167521776Y-74105781D01*
X167339386Y-74198715D01*
X167173786Y-74319028D01*
X167029028Y-74463786D01*
X166908715Y-74629386D01*
X166815781Y-74811776D01*
X166752522Y-75006465D01*
X166720500Y-75208648D01*
X166720500Y-75413351D01*
X166752522Y-75615534D01*
X166815781Y-75810223D01*
X166891695Y-75959210D01*
X166908713Y-75992610D01*
X166996819Y-76113877D01*
X167020298Y-76179681D01*
X167020500Y-76186761D01*
X167020500Y-80433217D01*
X167000815Y-80500256D01*
X166984181Y-80520898D01*
X153418899Y-94086181D01*
X153357576Y-94119666D01*
X153331218Y-94122500D01*
X152854141Y-94122500D01*
X152787102Y-94102815D01*
X152741347Y-94050011D01*
X152737969Y-94041859D01*
X152733796Y-94030669D01*
X152733793Y-94030665D01*
X152733793Y-94030664D01*
X152647547Y-93915455D01*
X152647544Y-93915452D01*
X152532335Y-93829206D01*
X152532328Y-93829202D01*
X152397482Y-93778908D01*
X152397483Y-93778908D01*
X152337883Y-93772501D01*
X152337881Y-93772500D01*
X152337873Y-93772500D01*
X152337865Y-93772500D01*
X152327309Y-93772500D01*
X152260270Y-93752815D01*
X152239628Y-93736181D01*
X151569408Y-93065962D01*
X151632993Y-93048925D01*
X151747007Y-92983099D01*
X151840099Y-92890007D01*
X151905925Y-92775993D01*
X151922962Y-92712408D01*
X152555270Y-93344717D01*
X152555270Y-93344716D01*
X152594622Y-93290554D01*
X152691095Y-93101217D01*
X152756757Y-92899130D01*
X152756757Y-92899127D01*
X152790000Y-92689246D01*
X152790000Y-92476753D01*
X152756757Y-92266872D01*
X152756757Y-92266869D01*
X152691095Y-92064782D01*
X152594624Y-91875449D01*
X152555270Y-91821282D01*
X152555269Y-91821282D01*
X151922962Y-92453590D01*
X151905925Y-92390007D01*
X151840099Y-92275993D01*
X151747007Y-92182901D01*
X151632993Y-92117075D01*
X151569409Y-92100037D01*
X152201716Y-91467728D01*
X152147547Y-91428373D01*
X152147547Y-91428372D01*
X152138500Y-91423763D01*
X152087706Y-91375788D01*
X152070912Y-91307966D01*
X152093451Y-91241832D01*
X152138508Y-91202793D01*
X152147816Y-91198051D01*
X152227007Y-91140515D01*
X152319786Y-91073109D01*
X152319788Y-91073106D01*
X152319792Y-91073104D01*
X152470104Y-90922792D01*
X152470106Y-90922788D01*
X152470109Y-90922786D01*
X152528661Y-90842193D01*
X152595051Y-90750816D01*
X152595349Y-90750230D01*
X152615235Y-90711205D01*
X152663209Y-90660409D01*
X152725719Y-90643500D01*
X153456331Y-90643500D01*
X153456347Y-90643501D01*
X153463943Y-90643501D01*
X153622054Y-90643501D01*
X153622057Y-90643501D01*
X153774785Y-90602577D01*
X153824904Y-90573639D01*
X153911716Y-90523520D01*
X154023520Y-90411716D01*
X154023520Y-90411714D01*
X154033728Y-90401507D01*
X154033730Y-90401504D01*
X161521506Y-82913728D01*
X161521511Y-82913724D01*
X161531714Y-82903520D01*
X161531716Y-82903520D01*
X161643520Y-82791716D01*
X161722577Y-82654784D01*
X161763500Y-82502057D01*
X161763500Y-69262943D01*
X161763500Y-67799605D01*
X161783185Y-67732566D01*
X161835989Y-67686811D01*
X161905147Y-67676867D01*
X161936967Y-67686960D01*
X161937271Y-67686227D01*
X161941773Y-67688091D01*
X162143871Y-67753757D01*
X162353754Y-67787000D01*
X162566246Y-67787000D01*
X162776127Y-67753757D01*
X162776130Y-67753757D01*
X162978217Y-67688095D01*
X163167554Y-67591622D01*
X163221716Y-67552270D01*
X163221717Y-67552270D01*
X162589409Y-66919962D01*
X162652993Y-66902925D01*
X162767007Y-66837099D01*
X162860099Y-66744007D01*
X162925925Y-66629993D01*
X162942962Y-66566408D01*
X163575270Y-67198717D01*
X163575270Y-67198716D01*
X163614622Y-67144554D01*
X163711095Y-66955217D01*
X163776757Y-66753130D01*
X163776757Y-66753127D01*
X163810000Y-66543246D01*
X163810000Y-66330753D01*
X163776757Y-66120872D01*
X163776757Y-66120869D01*
X163711095Y-65918782D01*
X163614624Y-65729449D01*
X163575270Y-65675282D01*
X163575269Y-65675282D01*
X162942962Y-66307590D01*
X162925925Y-66244007D01*
X162860099Y-66129993D01*
X162767007Y-66036901D01*
X162652993Y-65971075D01*
X162589407Y-65954036D01*
X163225701Y-65317743D01*
X163228312Y-65305311D01*
X166813500Y-65305311D01*
X166813500Y-65547888D01*
X166845161Y-65788385D01*
X166907947Y-66022704D01*
X166956479Y-66139869D01*
X167000776Y-66246812D01*
X167122064Y-66456889D01*
X167122066Y-66456892D01*
X167122067Y-66456893D01*
X167269733Y-66649336D01*
X167269739Y-66649343D01*
X167441256Y-66820860D01*
X167441263Y-66820866D01*
X167487180Y-66856099D01*
X167633711Y-66968536D01*
X167843788Y-67089824D01*
X168067900Y-67182654D01*
X168302211Y-67245438D01*
X168482586Y-67269184D01*
X168542711Y-67277100D01*
X168542712Y-67277100D01*
X168785289Y-67277100D01*
X168833388Y-67270767D01*
X169025789Y-67245438D01*
X169260100Y-67182654D01*
X169484212Y-67089824D01*
X169694289Y-66968536D01*
X169886738Y-66820865D01*
X170058265Y-66649338D01*
X170205936Y-66456889D01*
X170327224Y-66246812D01*
X170420054Y-66022700D01*
X170482838Y-65788389D01*
X170514500Y-65547888D01*
X170514500Y-65305312D01*
X170514500Y-65305311D01*
X174759300Y-65305311D01*
X174759300Y-65547888D01*
X174790961Y-65788385D01*
X174853747Y-66022704D01*
X174902279Y-66139869D01*
X174946576Y-66246812D01*
X175067864Y-66456889D01*
X175067866Y-66456892D01*
X175067867Y-66456893D01*
X175215533Y-66649336D01*
X175215539Y-66649343D01*
X175387056Y-66820860D01*
X175387063Y-66820866D01*
X175432980Y-66856099D01*
X175579511Y-66968536D01*
X175789588Y-67089824D01*
X176013700Y-67182654D01*
X176248011Y-67245438D01*
X176428386Y-67269184D01*
X176488511Y-67277100D01*
X176488512Y-67277100D01*
X176731089Y-67277100D01*
X176779188Y-67270767D01*
X176971589Y-67245438D01*
X177205900Y-67182654D01*
X177430012Y-67089824D01*
X177640089Y-66968536D01*
X177832538Y-66820865D01*
X178004065Y-66649338D01*
X178151736Y-66456889D01*
X178273024Y-66246812D01*
X178365854Y-66022700D01*
X178428638Y-65788389D01*
X178460300Y-65547888D01*
X178460300Y-65305312D01*
X178460151Y-65304184D01*
X178447119Y-65205194D01*
X178428638Y-65064811D01*
X178365854Y-64830500D01*
X178273024Y-64606388D01*
X178151736Y-64396311D01*
X178075608Y-64297099D01*
X178004066Y-64203863D01*
X178004060Y-64203856D01*
X177832543Y-64032339D01*
X177832536Y-64032333D01*
X177640093Y-63884667D01*
X177640092Y-63884666D01*
X177640089Y-63884664D01*
X177430012Y-63763376D01*
X177430005Y-63763373D01*
X177205904Y-63670547D01*
X177050204Y-63628827D01*
X176971589Y-63607762D01*
X176971588Y-63607761D01*
X176971585Y-63607761D01*
X176731089Y-63576100D01*
X176731088Y-63576100D01*
X176488512Y-63576100D01*
X176488511Y-63576100D01*
X176248014Y-63607761D01*
X176013695Y-63670547D01*
X175789594Y-63763373D01*
X175789585Y-63763377D01*
X175579506Y-63884667D01*
X175387063Y-64032333D01*
X175387056Y-64032339D01*
X175215539Y-64203856D01*
X175215533Y-64203863D01*
X175067867Y-64396306D01*
X174946577Y-64606385D01*
X174946573Y-64606394D01*
X174853747Y-64830495D01*
X174790961Y-65064814D01*
X174759300Y-65305311D01*
X170514500Y-65305311D01*
X170514351Y-65304184D01*
X170501319Y-65205194D01*
X170482838Y-65064811D01*
X170420054Y-64830500D01*
X170327224Y-64606388D01*
X170205936Y-64396311D01*
X170129808Y-64297099D01*
X170058266Y-64203863D01*
X170058260Y-64203856D01*
X169886743Y-64032339D01*
X169886736Y-64032333D01*
X169694293Y-63884667D01*
X169694292Y-63884666D01*
X169694289Y-63884664D01*
X169484212Y-63763376D01*
X169484205Y-63763373D01*
X169260104Y-63670547D01*
X169104404Y-63628827D01*
X169025789Y-63607762D01*
X169025788Y-63607761D01*
X169025785Y-63607761D01*
X168785289Y-63576100D01*
X168785288Y-63576100D01*
X168542712Y-63576100D01*
X168542711Y-63576100D01*
X168302214Y-63607761D01*
X168067895Y-63670547D01*
X167843794Y-63763373D01*
X167843785Y-63763377D01*
X167633706Y-63884667D01*
X167441263Y-64032333D01*
X167441256Y-64032339D01*
X167269739Y-64203856D01*
X167269733Y-64203863D01*
X167122067Y-64396306D01*
X167000777Y-64606385D01*
X167000773Y-64606394D01*
X166907947Y-64830495D01*
X166845161Y-65064814D01*
X166813500Y-65305311D01*
X163228312Y-65305311D01*
X163228549Y-65304184D01*
X163231694Y-65275296D01*
X163235644Y-65270406D01*
X163236937Y-65264254D01*
X163257340Y-65243556D01*
X163275607Y-65220950D01*
X163283515Y-65217004D01*
X163285988Y-65214496D01*
X163307188Y-65205194D01*
X163372513Y-65183547D01*
X163372514Y-65183547D01*
X163379121Y-65181357D01*
X163379124Y-65181356D01*
X163528345Y-65089315D01*
X163652315Y-64965345D01*
X163744356Y-64816124D01*
X163744358Y-64816119D01*
X163799505Y-64649697D01*
X163799506Y-64649690D01*
X163809999Y-64546986D01*
X163810000Y-64546973D01*
X163810000Y-64147000D01*
X162893012Y-64147000D01*
X162925925Y-64089993D01*
X162960000Y-63962826D01*
X162960000Y-63831174D01*
X162925925Y-63704007D01*
X162893012Y-63647000D01*
X163809999Y-63647000D01*
X163809999Y-63247028D01*
X163809998Y-63247013D01*
X163799505Y-63144302D01*
X163744358Y-62977880D01*
X163744356Y-62977875D01*
X163652315Y-62828654D01*
X163528345Y-62704684D01*
X163379124Y-62612643D01*
X163379119Y-62612641D01*
X163232950Y-62564206D01*
X163175505Y-62524434D01*
X163148682Y-62459918D01*
X163160997Y-62391142D01*
X163208540Y-62339942D01*
X163271954Y-62322500D01*
X177753903Y-62322500D01*
X177820942Y-62342185D01*
X177841584Y-62358819D01*
X179449181Y-63966416D01*
X179482666Y-64027739D01*
X179485500Y-64054097D01*
X179485500Y-64683330D01*
X179485499Y-64683348D01*
X179485499Y-64849054D01*
X179485498Y-64849054D01*
X179526423Y-65001785D01*
X179555358Y-65051900D01*
X179555359Y-65051904D01*
X179555360Y-65051904D01*
X179591531Y-65114556D01*
X179605479Y-65138714D01*
X179605481Y-65138717D01*
X179724349Y-65257585D01*
X179724355Y-65257590D01*
X179982139Y-65515374D01*
X179982149Y-65515385D01*
X179986479Y-65519715D01*
X179986480Y-65519716D01*
X180098284Y-65631520D01*
X180098286Y-65631521D01*
X180098290Y-65631524D01*
X180206992Y-65694282D01*
X180235216Y-65710577D01*
X180297503Y-65727266D01*
X180357163Y-65763631D01*
X180387692Y-65826478D01*
X180379397Y-65895853D01*
X180375895Y-65903333D01*
X180358445Y-65937581D01*
X180292753Y-66139760D01*
X180259500Y-66349713D01*
X180259500Y-66562286D01*
X180292735Y-66772127D01*
X180292754Y-66772243D01*
X180356532Y-66968532D01*
X180358444Y-66974414D01*
X180454951Y-67163820D01*
X180579890Y-67335786D01*
X180730213Y-67486109D01*
X180902179Y-67611048D01*
X180902181Y-67611049D01*
X180902184Y-67611051D01*
X181091588Y-67707557D01*
X181293757Y-67773246D01*
X181503713Y-67806500D01*
X181503714Y-67806500D01*
X181716286Y-67806500D01*
X181716287Y-67806500D01*
X181926243Y-67773246D01*
X182128412Y-67707557D01*
X182317816Y-67611051D01*
X182398722Y-67552270D01*
X182489786Y-67486109D01*
X182489788Y-67486106D01*
X182489792Y-67486104D01*
X182640104Y-67335792D01*
X182640106Y-67335788D01*
X182640109Y-67335786D01*
X182765048Y-67163820D01*
X182765047Y-67163820D01*
X182765051Y-67163816D01*
X182769514Y-67155054D01*
X182817488Y-67104259D01*
X182885308Y-67087463D01*
X182951444Y-67109999D01*
X182990486Y-67155056D01*
X182994951Y-67163820D01*
X183119890Y-67335786D01*
X183270213Y-67486109D01*
X183442179Y-67611048D01*
X183442181Y-67611049D01*
X183442184Y-67611051D01*
X183631588Y-67707557D01*
X183833757Y-67773246D01*
X184043713Y-67806500D01*
X184043714Y-67806500D01*
X184256286Y-67806500D01*
X184256287Y-67806500D01*
X184466243Y-67773246D01*
X184668412Y-67707557D01*
X184857816Y-67611051D01*
X184938722Y-67552270D01*
X185029786Y-67486109D01*
X185029788Y-67486106D01*
X185029792Y-67486104D01*
X185180104Y-67335792D01*
X185180106Y-67335788D01*
X185180109Y-67335786D01*
X185305048Y-67163820D01*
X185305047Y-67163820D01*
X185305051Y-67163816D01*
X185309514Y-67155054D01*
X185357488Y-67104259D01*
X185425308Y-67087463D01*
X185491444Y-67109999D01*
X185530486Y-67155056D01*
X185534951Y-67163820D01*
X185659890Y-67335786D01*
X185659896Y-67335792D01*
X185810208Y-67486104D01*
X185902680Y-67553288D01*
X185945345Y-67608617D01*
X185951324Y-67678230D01*
X185918719Y-67740026D01*
X185917475Y-67741287D01*
X176642339Y-77016425D01*
X176581016Y-77049910D01*
X176578850Y-77050361D01*
X176423508Y-77081261D01*
X176423498Y-77081264D01*
X176277827Y-77141602D01*
X176277814Y-77141609D01*
X176146711Y-77229210D01*
X176146707Y-77229213D01*
X176035213Y-77340707D01*
X176035210Y-77340711D01*
X175947609Y-77471814D01*
X175947602Y-77471827D01*
X175887264Y-77617498D01*
X175887261Y-77617510D01*
X175856500Y-77772153D01*
X175856500Y-77929846D01*
X175887261Y-78084489D01*
X175887264Y-78084501D01*
X175947602Y-78230172D01*
X175947609Y-78230185D01*
X176035210Y-78361288D01*
X176035213Y-78361292D01*
X176146707Y-78472786D01*
X176146711Y-78472789D01*
X176277814Y-78560390D01*
X176277827Y-78560397D01*
X176367927Y-78597717D01*
X176423503Y-78620737D01*
X176569627Y-78649803D01*
X176578153Y-78651499D01*
X176578156Y-78651500D01*
X176711059Y-78651500D01*
X176778098Y-78671185D01*
X176823853Y-78723989D01*
X176833797Y-78793147D01*
X176804772Y-78856703D01*
X176798740Y-78863181D01*
X176797213Y-78864707D01*
X176797210Y-78864711D01*
X176709609Y-78995814D01*
X176709602Y-78995827D01*
X176649264Y-79141498D01*
X176649261Y-79141510D01*
X176618500Y-79296153D01*
X176618500Y-79453846D01*
X176649261Y-79608489D01*
X176649264Y-79608501D01*
X176709602Y-79754172D01*
X176709609Y-79754185D01*
X176797210Y-79885288D01*
X176797213Y-79885292D01*
X176908707Y-79996786D01*
X176908711Y-79996789D01*
X177039814Y-80084390D01*
X177039827Y-80084397D01*
X177176174Y-80140873D01*
X177185503Y-80144737D01*
X177340153Y-80175499D01*
X177340156Y-80175500D01*
X177340158Y-80175500D01*
X177497844Y-80175500D01*
X177497845Y-80175499D01*
X177652497Y-80144737D01*
X177798179Y-80084394D01*
X177929289Y-79996789D01*
X178040789Y-79885289D01*
X178128394Y-79754179D01*
X178188737Y-79608497D01*
X178211693Y-79493092D01*
X178219638Y-79453150D01*
X178252023Y-79391239D01*
X178253518Y-79389716D01*
X188328713Y-69314521D01*
X188328716Y-69314520D01*
X188392821Y-69250415D01*
X188454144Y-69216931D01*
X188493974Y-69219780D01*
X188523834Y-69221916D01*
X188523835Y-69221916D01*
X188523836Y-69221917D01*
X188551647Y-69242737D01*
X188579767Y-69263788D01*
X188579769Y-69263790D01*
X188595077Y-69304837D01*
X188604184Y-69329252D01*
X188604500Y-69338098D01*
X188604500Y-73730547D01*
X188584815Y-73797586D01*
X188568181Y-73818228D01*
X186631203Y-75755205D01*
X186569880Y-75788690D01*
X186567714Y-75789141D01*
X186456508Y-75811261D01*
X186456498Y-75811264D01*
X186310827Y-75871602D01*
X186310814Y-75871609D01*
X186179711Y-75959210D01*
X186179707Y-75959213D01*
X186068213Y-76070707D01*
X186068210Y-76070711D01*
X185980609Y-76201814D01*
X185980602Y-76201827D01*
X185920264Y-76347498D01*
X185920261Y-76347510D01*
X185889500Y-76502153D01*
X185889500Y-76659846D01*
X185920261Y-76814489D01*
X185920264Y-76814501D01*
X185980602Y-76960172D01*
X185980609Y-76960185D01*
X186068210Y-77091288D01*
X186068213Y-77091292D01*
X186179707Y-77202786D01*
X186179711Y-77202789D01*
X186310814Y-77290390D01*
X186310827Y-77290397D01*
X186413155Y-77332782D01*
X186456503Y-77350737D01*
X186611153Y-77381499D01*
X186611156Y-77381500D01*
X186611158Y-77381500D01*
X186768844Y-77381500D01*
X186768845Y-77381499D01*
X186923497Y-77350737D01*
X187069179Y-77290394D01*
X187200289Y-77202789D01*
X187311789Y-77091289D01*
X187399394Y-76960179D01*
X187459737Y-76814497D01*
X187481858Y-76703282D01*
X187514240Y-76641375D01*
X187515734Y-76639854D01*
X189715857Y-74439734D01*
X189726125Y-74424368D01*
X189784311Y-74337286D01*
X189831463Y-74223452D01*
X189851742Y-74121500D01*
X189855500Y-74102607D01*
X189855500Y-73979394D01*
X189855500Y-67728980D01*
X189875185Y-67661941D01*
X189923208Y-67618494D01*
X189937818Y-67611050D01*
X190109786Y-67486109D01*
X190109788Y-67486106D01*
X190109792Y-67486104D01*
X190260104Y-67335792D01*
X190260106Y-67335788D01*
X190260109Y-67335786D01*
X190345890Y-67217717D01*
X190385051Y-67163816D01*
X190389793Y-67154508D01*
X190437763Y-67103711D01*
X190505583Y-67086911D01*
X190571719Y-67109445D01*
X190610763Y-67154500D01*
X190615373Y-67163547D01*
X190654728Y-67217716D01*
X191287037Y-66585408D01*
X191304075Y-66648993D01*
X191369901Y-66763007D01*
X191462993Y-66856099D01*
X191577007Y-66921925D01*
X191640590Y-66938962D01*
X191008282Y-67571269D01*
X191008282Y-67571270D01*
X191062449Y-67610624D01*
X191251782Y-67707095D01*
X191453870Y-67772757D01*
X191663754Y-67806000D01*
X191876246Y-67806000D01*
X192086127Y-67772757D01*
X192086130Y-67772757D01*
X192288217Y-67707095D01*
X192477554Y-67610622D01*
X192531716Y-67571270D01*
X192531717Y-67571270D01*
X191899408Y-66938962D01*
X191962993Y-66921925D01*
X192077007Y-66856099D01*
X192170099Y-66763007D01*
X192235925Y-66648993D01*
X192252962Y-66585409D01*
X192885270Y-67217717D01*
X192885270Y-67217716D01*
X192924622Y-67163554D01*
X193021095Y-66974217D01*
X193086757Y-66772130D01*
X193086757Y-66772127D01*
X193120000Y-66562246D01*
X193120000Y-66349753D01*
X193086757Y-66139872D01*
X193086757Y-66139869D01*
X193021095Y-65937782D01*
X192924624Y-65748449D01*
X192885270Y-65694282D01*
X192885269Y-65694282D01*
X192252962Y-66326590D01*
X192235925Y-66263007D01*
X192170099Y-66148993D01*
X192077007Y-66055901D01*
X191962993Y-65990075D01*
X191899409Y-65973037D01*
X192535701Y-65336743D01*
X192546937Y-65283254D01*
X192595988Y-65233496D01*
X192617188Y-65224194D01*
X192689119Y-65200358D01*
X192689124Y-65200356D01*
X192838345Y-65108315D01*
X192962315Y-64984345D01*
X193054356Y-64835124D01*
X193054358Y-64835119D01*
X193109505Y-64668697D01*
X193109506Y-64668690D01*
X193119999Y-64565986D01*
X193120000Y-64565973D01*
X193120000Y-64166000D01*
X192203012Y-64166000D01*
X192235925Y-64108993D01*
X192270000Y-63981826D01*
X192270000Y-63850174D01*
X192235925Y-63723007D01*
X192203012Y-63666000D01*
X193119999Y-63666000D01*
X193119999Y-63266028D01*
X193119998Y-63266013D01*
X193109505Y-63163302D01*
X193054358Y-62996880D01*
X193054356Y-62996875D01*
X192962315Y-62847654D01*
X192838344Y-62723683D01*
X192838340Y-62723680D01*
X192803253Y-62702038D01*
X192756528Y-62650090D01*
X192745307Y-62581128D01*
X192773150Y-62517046D01*
X192831219Y-62478190D01*
X192868350Y-62472500D01*
X194385060Y-62472500D01*
X194452099Y-62492185D01*
X194472741Y-62508819D01*
X196267181Y-64303259D01*
X196300666Y-64364582D01*
X196303500Y-64390940D01*
X196303500Y-70864060D01*
X196283815Y-70931099D01*
X196267181Y-70951741D01*
X188934741Y-78284181D01*
X188873418Y-78317666D01*
X188847060Y-78320500D01*
X187116204Y-78320500D01*
X187049165Y-78300815D01*
X187028523Y-78284181D01*
X187025930Y-78281588D01*
X187025928Y-78281586D01*
X186885788Y-78179768D01*
X186731445Y-78101127D01*
X186566701Y-78047598D01*
X186566699Y-78047597D01*
X186566698Y-78047597D01*
X186435271Y-78026781D01*
X186395611Y-78020500D01*
X186222389Y-78020500D01*
X186182728Y-78026781D01*
X186051302Y-78047597D01*
X185886552Y-78101128D01*
X185732211Y-78179768D01*
X185698097Y-78204554D01*
X185592072Y-78281586D01*
X185592070Y-78281588D01*
X185592069Y-78281588D01*
X185469588Y-78404069D01*
X185469588Y-78404070D01*
X185469586Y-78404072D01*
X185425859Y-78464256D01*
X185367768Y-78544211D01*
X185289128Y-78698552D01*
X185235597Y-78863302D01*
X185214608Y-78995827D01*
X185208500Y-79034389D01*
X185208500Y-79207611D01*
X185235598Y-79378701D01*
X185289127Y-79543445D01*
X185367768Y-79697788D01*
X185469586Y-79837928D01*
X185592072Y-79960414D01*
X185732212Y-80062232D01*
X185886555Y-80140873D01*
X186051299Y-80194402D01*
X186222389Y-80221500D01*
X186222390Y-80221500D01*
X186395610Y-80221500D01*
X186395611Y-80221500D01*
X186566701Y-80194402D01*
X186731445Y-80140873D01*
X186885788Y-80062232D01*
X187025928Y-79960414D01*
X187028523Y-79957819D01*
X187089846Y-79924334D01*
X187116204Y-79921500D01*
X189151158Y-79921500D01*
X204639418Y-79921500D01*
X204706457Y-79941185D01*
X204749901Y-79989203D01*
X204837657Y-80161433D01*
X204976483Y-80352510D01*
X205143490Y-80519517D01*
X205334567Y-80658343D01*
X205433991Y-80709002D01*
X205545003Y-80765566D01*
X205545005Y-80765566D01*
X205545008Y-80765568D01*
X205581008Y-80777265D01*
X205769631Y-80838553D01*
X206002903Y-80875500D01*
X206002908Y-80875500D01*
X206239097Y-80875500D01*
X206472368Y-80838553D01*
X206549214Y-80813584D01*
X206696992Y-80765568D01*
X206907433Y-80658343D01*
X207098510Y-80519517D01*
X207265517Y-80352510D01*
X207404343Y-80161433D01*
X207511568Y-79950992D01*
X207584553Y-79726368D01*
X207589080Y-79697788D01*
X207621500Y-79493097D01*
X207621500Y-79256902D01*
X207584553Y-79023631D01*
X207514613Y-78808380D01*
X207511568Y-78799008D01*
X207511566Y-78799005D01*
X207511566Y-78799003D01*
X207420733Y-78620735D01*
X207404343Y-78588567D01*
X207265517Y-78397490D01*
X207098510Y-78230483D01*
X206907433Y-78091657D01*
X206893365Y-78084489D01*
X206696996Y-77984433D01*
X206472368Y-77911446D01*
X206239097Y-77874500D01*
X206239092Y-77874500D01*
X206002908Y-77874500D01*
X206002903Y-77874500D01*
X205769631Y-77911446D01*
X205545003Y-77984433D01*
X205334566Y-78091657D01*
X205302029Y-78115297D01*
X205143490Y-78230483D01*
X205143488Y-78230485D01*
X205143487Y-78230485D01*
X205089792Y-78284181D01*
X205028469Y-78317666D01*
X205002111Y-78320500D01*
X191461940Y-78320500D01*
X191394901Y-78300815D01*
X191349146Y-78248011D01*
X191339202Y-78178853D01*
X191368227Y-78115297D01*
X191374259Y-78108819D01*
X196833366Y-72649713D01*
X210448500Y-72649713D01*
X210448500Y-72862286D01*
X210481753Y-73072239D01*
X210547444Y-73274414D01*
X210643951Y-73463820D01*
X210768890Y-73635786D01*
X210919213Y-73786109D01*
X211091182Y-73911050D01*
X211099946Y-73915516D01*
X211150742Y-73963491D01*
X211167536Y-74031312D01*
X211144998Y-74097447D01*
X211099946Y-74136484D01*
X211091182Y-74140949D01*
X210919213Y-74265890D01*
X210768890Y-74416213D01*
X210643951Y-74588179D01*
X210547444Y-74777585D01*
X210481753Y-74979760D01*
X210448500Y-75189713D01*
X210448500Y-75402287D01*
X210481754Y-75612243D01*
X210546419Y-75811261D01*
X210547444Y-75814414D01*
X210643951Y-76003820D01*
X210768890Y-76175786D01*
X210882818Y-76289714D01*
X210916303Y-76351037D01*
X210911319Y-76420729D01*
X210869447Y-76476662D01*
X210838471Y-76493577D01*
X210706912Y-76542646D01*
X210706906Y-76542649D01*
X210591812Y-76628809D01*
X210591809Y-76628812D01*
X210505649Y-76743906D01*
X210505645Y-76743913D01*
X210455403Y-76878620D01*
X210455401Y-76878627D01*
X210449000Y-76938155D01*
X210449000Y-77586000D01*
X211365988Y-77586000D01*
X211333075Y-77643007D01*
X211299000Y-77770174D01*
X211299000Y-77901826D01*
X211333075Y-78028993D01*
X211365988Y-78086000D01*
X210449000Y-78086000D01*
X210449000Y-78733844D01*
X210455401Y-78793372D01*
X210455403Y-78793379D01*
X210505645Y-78928086D01*
X210505649Y-78928093D01*
X210591809Y-79043187D01*
X210591812Y-79043190D01*
X210706906Y-79129350D01*
X210706913Y-79129354D01*
X210841620Y-79179596D01*
X210841627Y-79179598D01*
X210901155Y-79185999D01*
X210901172Y-79186000D01*
X211549000Y-79186000D01*
X211549000Y-78269012D01*
X211606007Y-78301925D01*
X211733174Y-78336000D01*
X211864826Y-78336000D01*
X211991993Y-78301925D01*
X212049000Y-78269012D01*
X212049000Y-79186000D01*
X212696828Y-79186000D01*
X212696844Y-79185999D01*
X212756372Y-79179598D01*
X212756379Y-79179596D01*
X212891086Y-79129354D01*
X212891093Y-79129350D01*
X213006187Y-79043190D01*
X213006190Y-79043187D01*
X213092350Y-78928093D01*
X213092354Y-78928086D01*
X213114529Y-78868632D01*
X213153319Y-78695390D01*
X213153682Y-78694734D01*
X213153642Y-78693984D01*
X213186642Y-78634802D01*
X213856037Y-77965408D01*
X213873075Y-78028993D01*
X213938901Y-78143007D01*
X214031993Y-78236099D01*
X214146007Y-78301925D01*
X214209590Y-78318962D01*
X213577282Y-78951269D01*
X213577282Y-78951270D01*
X213631449Y-78990624D01*
X213820782Y-79087095D01*
X214022870Y-79152757D01*
X214232754Y-79186000D01*
X214445246Y-79186000D01*
X214655127Y-79152757D01*
X214655130Y-79152757D01*
X214857217Y-79087095D01*
X215046554Y-78990622D01*
X215100716Y-78951270D01*
X215100717Y-78951270D01*
X214468408Y-78318962D01*
X214531993Y-78301925D01*
X214646007Y-78236099D01*
X214739099Y-78143007D01*
X214804925Y-78028993D01*
X214821962Y-77965408D01*
X215454270Y-78597717D01*
X215454270Y-78597716D01*
X215493622Y-78543554D01*
X215590095Y-78354217D01*
X215655757Y-78152130D01*
X215655757Y-78152127D01*
X215689000Y-77942246D01*
X215689000Y-77729753D01*
X215655757Y-77519872D01*
X215655757Y-77519869D01*
X215590095Y-77317782D01*
X215493624Y-77128449D01*
X215454270Y-77074282D01*
X215454269Y-77074282D01*
X214821962Y-77706590D01*
X214804925Y-77643007D01*
X214739099Y-77528993D01*
X214646007Y-77435901D01*
X214531993Y-77370075D01*
X214468409Y-77353037D01*
X215100716Y-76720728D01*
X215046547Y-76681373D01*
X215046547Y-76681372D01*
X215037500Y-76676763D01*
X214986706Y-76628788D01*
X214969912Y-76560966D01*
X214992451Y-76494832D01*
X215037508Y-76455793D01*
X215046816Y-76451051D01*
X215163829Y-76366037D01*
X215218786Y-76326109D01*
X215218788Y-76326106D01*
X215218792Y-76326104D01*
X215369104Y-76175792D01*
X215369106Y-76175788D01*
X215369109Y-76175786D01*
X215494048Y-76003820D01*
X215494047Y-76003820D01*
X215494051Y-76003816D01*
X215590557Y-75814412D01*
X215656246Y-75612243D01*
X215689500Y-75402287D01*
X215689500Y-75189713D01*
X215656246Y-74979757D01*
X215590557Y-74777588D01*
X215494051Y-74588184D01*
X215494049Y-74588181D01*
X215494048Y-74588179D01*
X215369109Y-74416213D01*
X215218786Y-74265890D01*
X215046820Y-74140951D01*
X215046115Y-74140591D01*
X215038054Y-74136485D01*
X214987259Y-74088512D01*
X214970463Y-74020692D01*
X214992999Y-73954556D01*
X215038054Y-73915515D01*
X215046816Y-73911051D01*
X215174577Y-73818228D01*
X215218786Y-73786109D01*
X215218788Y-73786106D01*
X215218792Y-73786104D01*
X215369104Y-73635792D01*
X215369106Y-73635788D01*
X215369109Y-73635786D01*
X215494048Y-73463820D01*
X215494047Y-73463820D01*
X215494051Y-73463816D01*
X215590557Y-73274412D01*
X215656246Y-73072243D01*
X215689500Y-72862287D01*
X215689500Y-72649713D01*
X215656246Y-72439757D01*
X215590557Y-72237588D01*
X215494051Y-72048184D01*
X215494049Y-72048181D01*
X215494048Y-72048179D01*
X215369109Y-71876213D01*
X215218786Y-71725890D01*
X215046820Y-71600951D01*
X214857414Y-71504444D01*
X214857413Y-71504443D01*
X214857412Y-71504443D01*
X214655243Y-71438754D01*
X214655241Y-71438753D01*
X214655240Y-71438753D01*
X214493957Y-71413208D01*
X214445287Y-71405500D01*
X214232713Y-71405500D01*
X214184042Y-71413208D01*
X214022760Y-71438753D01*
X214022757Y-71438754D01*
X213894311Y-71480489D01*
X213820585Y-71504444D01*
X213631179Y-71600951D01*
X213459213Y-71725890D01*
X213308890Y-71876213D01*
X213183949Y-72048182D01*
X213179484Y-72056946D01*
X213131509Y-72107742D01*
X213063688Y-72124536D01*
X212997553Y-72101998D01*
X212958516Y-72056946D01*
X212954050Y-72048182D01*
X212829109Y-71876213D01*
X212678786Y-71725890D01*
X212506820Y-71600951D01*
X212317414Y-71504444D01*
X212317413Y-71504443D01*
X212317412Y-71504443D01*
X212115243Y-71438754D01*
X212115241Y-71438753D01*
X212115240Y-71438753D01*
X211953957Y-71413208D01*
X211905287Y-71405500D01*
X211692713Y-71405500D01*
X211644042Y-71413208D01*
X211482760Y-71438753D01*
X211482757Y-71438754D01*
X211354311Y-71480489D01*
X211280585Y-71504444D01*
X211091179Y-71600951D01*
X210919213Y-71725890D01*
X210768890Y-71876213D01*
X210643951Y-72048179D01*
X210547444Y-72237585D01*
X210481753Y-72439760D01*
X210448500Y-72649713D01*
X196833366Y-72649713D01*
X196925919Y-72557160D01*
X197725786Y-71757292D01*
X197725789Y-71757289D01*
X197813394Y-71626179D01*
X197873738Y-71480497D01*
X197904500Y-71325842D01*
X197904500Y-71168157D01*
X197904500Y-63929158D01*
X197904500Y-63929155D01*
X197904499Y-63929153D01*
X197895650Y-63884667D01*
X197873737Y-63774503D01*
X197872286Y-63771000D01*
X197813397Y-63628827D01*
X197813390Y-63628814D01*
X197725790Y-63497712D01*
X197678153Y-63450075D01*
X197614289Y-63386211D01*
X196550578Y-62322500D01*
X195392260Y-61164181D01*
X195358775Y-61102858D01*
X195363759Y-61033166D01*
X195405631Y-60977233D01*
X195471095Y-60952816D01*
X195479941Y-60952500D01*
X223922500Y-60952500D01*
X223989539Y-60972185D01*
X224035294Y-61024989D01*
X224046500Y-61076500D01*
X224046500Y-116850500D01*
X224026815Y-116917539D01*
X223974011Y-116963294D01*
X223922500Y-116974500D01*
X145277500Y-116974500D01*
X145210461Y-116954815D01*
X145164706Y-116902011D01*
X145153500Y-116850500D01*
X145153500Y-113305311D01*
X166813500Y-113305311D01*
X166813500Y-113547888D01*
X166845161Y-113788385D01*
X166907947Y-114022704D01*
X167000773Y-114246805D01*
X167000776Y-114246812D01*
X167122064Y-114456889D01*
X167122066Y-114456892D01*
X167122067Y-114456893D01*
X167269733Y-114649336D01*
X167269739Y-114649343D01*
X167441256Y-114820860D01*
X167441262Y-114820865D01*
X167633711Y-114968536D01*
X167843788Y-115089824D01*
X168067900Y-115182654D01*
X168302211Y-115245438D01*
X168482586Y-115269184D01*
X168542711Y-115277100D01*
X168542712Y-115277100D01*
X168785289Y-115277100D01*
X168833388Y-115270767D01*
X169025789Y-115245438D01*
X169260100Y-115182654D01*
X169484212Y-115089824D01*
X169694289Y-114968536D01*
X169886738Y-114820865D01*
X170058265Y-114649338D01*
X170205936Y-114456889D01*
X170327224Y-114246812D01*
X170420054Y-114022700D01*
X170482838Y-113788389D01*
X170514500Y-113547888D01*
X170514500Y-113305312D01*
X170514500Y-113305311D01*
X174759300Y-113305311D01*
X174759300Y-113547888D01*
X174790961Y-113788385D01*
X174853747Y-114022704D01*
X174946573Y-114246805D01*
X174946576Y-114246812D01*
X175067864Y-114456889D01*
X175067866Y-114456892D01*
X175067867Y-114456893D01*
X175215533Y-114649336D01*
X175215539Y-114649343D01*
X175387056Y-114820860D01*
X175387062Y-114820865D01*
X175579511Y-114968536D01*
X175789588Y-115089824D01*
X176013700Y-115182654D01*
X176248011Y-115245438D01*
X176428386Y-115269184D01*
X176488511Y-115277100D01*
X176488512Y-115277100D01*
X176731089Y-115277100D01*
X176779188Y-115270767D01*
X176971589Y-115245438D01*
X177205900Y-115182654D01*
X177430012Y-115089824D01*
X177640089Y-114968536D01*
X177832538Y-114820865D01*
X178004065Y-114649338D01*
X178151736Y-114456889D01*
X178273024Y-114246812D01*
X178365854Y-114022700D01*
X178428638Y-113788389D01*
X178460300Y-113547888D01*
X178460300Y-113305312D01*
X178428638Y-113064811D01*
X178365854Y-112830500D01*
X178273024Y-112606388D01*
X178151736Y-112396311D01*
X178004065Y-112203862D01*
X178004060Y-112203856D01*
X177832543Y-112032339D01*
X177832536Y-112032333D01*
X177640093Y-111884667D01*
X177640092Y-111884666D01*
X177640089Y-111884664D01*
X177430012Y-111763376D01*
X177430005Y-111763373D01*
X177205904Y-111670547D01*
X176971585Y-111607761D01*
X176731089Y-111576100D01*
X176731088Y-111576100D01*
X176488512Y-111576100D01*
X176488511Y-111576100D01*
X176248014Y-111607761D01*
X176013695Y-111670547D01*
X175789594Y-111763373D01*
X175789585Y-111763377D01*
X175579506Y-111884667D01*
X175387063Y-112032333D01*
X175387056Y-112032339D01*
X175215539Y-112203856D01*
X175215533Y-112203863D01*
X175067867Y-112396306D01*
X174946577Y-112606385D01*
X174946573Y-112606394D01*
X174853747Y-112830495D01*
X174790961Y-113064814D01*
X174759300Y-113305311D01*
X170514500Y-113305311D01*
X170482838Y-113064811D01*
X170420054Y-112830500D01*
X170327224Y-112606388D01*
X170205936Y-112396311D01*
X170058265Y-112203862D01*
X170058260Y-112203856D01*
X169886743Y-112032339D01*
X169886736Y-112032333D01*
X169694293Y-111884667D01*
X169694292Y-111884666D01*
X169694289Y-111884664D01*
X169484212Y-111763376D01*
X169484205Y-111763373D01*
X169260104Y-111670547D01*
X169025785Y-111607761D01*
X168785289Y-111576100D01*
X168785288Y-111576100D01*
X168542712Y-111576100D01*
X168542711Y-111576100D01*
X168302214Y-111607761D01*
X168067895Y-111670547D01*
X167843794Y-111763373D01*
X167843785Y-111763377D01*
X167633706Y-111884667D01*
X167441263Y-112032333D01*
X167441256Y-112032339D01*
X167269739Y-112203856D01*
X167269733Y-112203863D01*
X167122067Y-112396306D01*
X167000777Y-112606385D01*
X167000773Y-112606394D01*
X166907947Y-112830495D01*
X166845161Y-113064814D01*
X166813500Y-113305311D01*
X145153500Y-113305311D01*
X145153500Y-108966000D01*
X157734000Y-108966000D01*
X173736000Y-108966000D01*
X173736000Y-105729844D01*
X181906000Y-105729844D01*
X181912401Y-105789372D01*
X181912403Y-105789379D01*
X181962645Y-105924086D01*
X181962649Y-105924093D01*
X182048809Y-106039187D01*
X182048812Y-106039190D01*
X182163906Y-106125350D01*
X182163913Y-106125354D01*
X182298620Y-106175596D01*
X182298627Y-106175598D01*
X182358155Y-106181999D01*
X182358172Y-106182000D01*
X185256000Y-106182000D01*
X185756000Y-106182000D01*
X188653828Y-106182000D01*
X188653844Y-106181999D01*
X188713372Y-106175598D01*
X188713379Y-106175596D01*
X188848086Y-106125354D01*
X188848093Y-106125350D01*
X188963187Y-106039190D01*
X188963190Y-106039187D01*
X189049350Y-105924093D01*
X189049354Y-105924086D01*
X189099596Y-105789379D01*
X189099598Y-105789372D01*
X189105999Y-105729844D01*
X189106000Y-105729827D01*
X189106000Y-103982000D01*
X185756000Y-103982000D01*
X185756000Y-106182000D01*
X185256000Y-106182000D01*
X185256000Y-103982000D01*
X181906000Y-103982000D01*
X181906000Y-105729844D01*
X173736000Y-105729844D01*
X173736000Y-101734155D01*
X181906000Y-101734155D01*
X181906000Y-103482000D01*
X185256000Y-103482000D01*
X185756000Y-103482000D01*
X189106000Y-103482000D01*
X189106000Y-101734172D01*
X189105999Y-101734155D01*
X189099598Y-101674627D01*
X189099596Y-101674620D01*
X189049354Y-101539913D01*
X189049350Y-101539906D01*
X188963190Y-101424812D01*
X188963187Y-101424809D01*
X188848093Y-101338649D01*
X188848086Y-101338645D01*
X188713379Y-101288403D01*
X188713372Y-101288401D01*
X188653844Y-101282000D01*
X185756000Y-101282000D01*
X185756000Y-103482000D01*
X185256000Y-103482000D01*
X185256000Y-101282000D01*
X182358155Y-101282000D01*
X182298627Y-101288401D01*
X182298620Y-101288403D01*
X182163913Y-101338645D01*
X182163906Y-101338649D01*
X182048812Y-101424809D01*
X182048809Y-101424812D01*
X181962649Y-101539906D01*
X181962645Y-101539913D01*
X181912403Y-101674620D01*
X181912401Y-101674627D01*
X181906000Y-101734155D01*
X173736000Y-101734155D01*
X173736000Y-98171000D01*
X157734000Y-98171000D01*
X157734000Y-108966000D01*
X145153500Y-108966000D01*
X145153500Y-97183577D01*
X180455500Y-97183577D01*
X180455500Y-97380422D01*
X180486290Y-97574826D01*
X180547117Y-97762029D01*
X180593071Y-97852218D01*
X180636476Y-97937405D01*
X180752172Y-98096646D01*
X180891354Y-98235828D01*
X181050595Y-98351524D01*
X181133455Y-98393743D01*
X181225970Y-98440882D01*
X181225972Y-98440882D01*
X181225975Y-98440884D01*
X181326317Y-98473487D01*
X181413173Y-98501709D01*
X181607578Y-98532500D01*
X181607583Y-98532500D01*
X181804422Y-98532500D01*
X181998826Y-98501709D01*
X182186025Y-98440884D01*
X182361405Y-98351524D01*
X182520646Y-98235828D01*
X182659828Y-98096646D01*
X182775524Y-97937405D01*
X182864884Y-97762025D01*
X182925709Y-97574826D01*
X182938477Y-97494213D01*
X182956500Y-97380422D01*
X182956500Y-97183577D01*
X182925709Y-96989173D01*
X182864882Y-96801970D01*
X182775523Y-96626594D01*
X182659828Y-96467354D01*
X182520646Y-96328172D01*
X182361405Y-96212476D01*
X182186029Y-96123117D01*
X181998826Y-96062290D01*
X181804422Y-96031500D01*
X181804417Y-96031500D01*
X181607583Y-96031500D01*
X181607578Y-96031500D01*
X181413173Y-96062290D01*
X181225970Y-96123117D01*
X181050594Y-96212476D01*
X180960343Y-96278048D01*
X180891354Y-96328172D01*
X180891352Y-96328174D01*
X180891351Y-96328174D01*
X180752174Y-96467351D01*
X180752174Y-96467352D01*
X180752172Y-96467354D01*
X180747707Y-96473500D01*
X180636476Y-96626594D01*
X180547117Y-96801970D01*
X180486290Y-96989173D01*
X180455500Y-97183577D01*
X145153500Y-97183577D01*
X145153500Y-61076500D01*
X145173185Y-61009461D01*
X145225989Y-60963706D01*
X145277500Y-60952500D01*
X148005038Y-60952500D01*
X148072077Y-60972185D01*
G37*
%TD.AperFunction*%
%TA.AperFunction,Conductor*%
G36*
X150974075Y-92775993D02*
G01*
X151039901Y-92890007D01*
X151132993Y-92983099D01*
X151247007Y-93048925D01*
X151310590Y-93065962D01*
X150640370Y-93736181D01*
X150579047Y-93769666D01*
X150552698Y-93772500D01*
X150542134Y-93772500D01*
X150542123Y-93772501D01*
X150482516Y-93778908D01*
X150347671Y-93829202D01*
X150347664Y-93829206D01*
X150232455Y-93915452D01*
X150232452Y-93915455D01*
X150146206Y-94030664D01*
X150146203Y-94030669D01*
X150097189Y-94162083D01*
X150055317Y-94218016D01*
X149989853Y-94242433D01*
X149921580Y-94227581D01*
X149893326Y-94206430D01*
X149779786Y-94092890D01*
X149607817Y-93967949D01*
X149598504Y-93963204D01*
X149547707Y-93915230D01*
X149530912Y-93847409D01*
X149553449Y-93781274D01*
X149598507Y-93742232D01*
X149607555Y-93737622D01*
X149661716Y-93698270D01*
X149661717Y-93698270D01*
X149029408Y-93065962D01*
X149092993Y-93048925D01*
X149207007Y-92983099D01*
X149300099Y-92890007D01*
X149365925Y-92775993D01*
X149382962Y-92712408D01*
X150015270Y-93344717D01*
X150015270Y-93344716D01*
X150054622Y-93290554D01*
X150059514Y-93280954D01*
X150107488Y-93230157D01*
X150175308Y-93213361D01*
X150241444Y-93235897D01*
X150280486Y-93280954D01*
X150285375Y-93290550D01*
X150324728Y-93344716D01*
X150957037Y-92712408D01*
X150974075Y-92775993D01*
G37*
%TD.AperFunction*%
%TA.AperFunction,Conductor*%
G36*
X150241444Y-90696999D02*
G01*
X150280486Y-90742056D01*
X150284951Y-90750820D01*
X150409890Y-90922786D01*
X150560213Y-91073109D01*
X150732179Y-91198048D01*
X150732181Y-91198049D01*
X150732184Y-91198051D01*
X150741493Y-91202794D01*
X150792290Y-91250766D01*
X150809087Y-91318587D01*
X150786552Y-91384722D01*
X150741505Y-91423760D01*
X150732446Y-91428376D01*
X150732440Y-91428380D01*
X150678282Y-91467727D01*
X150678282Y-91467728D01*
X151310591Y-92100037D01*
X151247007Y-92117075D01*
X151132993Y-92182901D01*
X151039901Y-92275993D01*
X150974075Y-92390007D01*
X150957037Y-92453591D01*
X150324728Y-91821282D01*
X150324727Y-91821282D01*
X150285380Y-91875440D01*
X150280483Y-91885051D01*
X150232506Y-91935845D01*
X150164684Y-91952638D01*
X150098550Y-91930098D01*
X150059516Y-91885048D01*
X150054626Y-91875452D01*
X150015270Y-91821282D01*
X150015269Y-91821282D01*
X149382962Y-92453590D01*
X149365925Y-92390007D01*
X149300099Y-92275993D01*
X149207007Y-92182901D01*
X149092993Y-92117075D01*
X149029409Y-92100037D01*
X149661716Y-91467728D01*
X149607547Y-91428373D01*
X149607547Y-91428372D01*
X149598500Y-91423763D01*
X149547706Y-91375788D01*
X149530912Y-91307966D01*
X149553451Y-91241832D01*
X149598508Y-91202793D01*
X149607816Y-91198051D01*
X149687007Y-91140515D01*
X149779786Y-91073109D01*
X149779788Y-91073106D01*
X149779792Y-91073104D01*
X149930104Y-90922792D01*
X149930106Y-90922788D01*
X149930109Y-90922786D01*
X150055048Y-90750820D01*
X150055047Y-90750820D01*
X150055051Y-90750816D01*
X150059514Y-90742054D01*
X150107488Y-90691259D01*
X150175308Y-90674463D01*
X150241444Y-90696999D01*
G37*
%TD.AperFunction*%
%TA.AperFunction,Conductor*%
G36*
X150185444Y-75964999D02*
G01*
X150224486Y-76010056D01*
X150228951Y-76018820D01*
X150353890Y-76190786D01*
X150467818Y-76304714D01*
X150501303Y-76366037D01*
X150496319Y-76435729D01*
X150454447Y-76491662D01*
X150423471Y-76508577D01*
X150291912Y-76557646D01*
X150291906Y-76557649D01*
X150176812Y-76643809D01*
X150176809Y-76643812D01*
X150090649Y-76758906D01*
X150090645Y-76758913D01*
X150040403Y-76893619D01*
X150040401Y-76893626D01*
X150031497Y-76976444D01*
X150028434Y-76976114D01*
X150029336Y-76993094D01*
X149996356Y-77052195D01*
X149326962Y-77721590D01*
X149309925Y-77658007D01*
X149244099Y-77543993D01*
X149151007Y-77450901D01*
X149036993Y-77385075D01*
X148973409Y-77368037D01*
X149605716Y-76735728D01*
X149551547Y-76696373D01*
X149551547Y-76696372D01*
X149542500Y-76691763D01*
X149491706Y-76643788D01*
X149474912Y-76575966D01*
X149497451Y-76509832D01*
X149542508Y-76470793D01*
X149551816Y-76466051D01*
X149661666Y-76386241D01*
X149723786Y-76341109D01*
X149723788Y-76341106D01*
X149723792Y-76341104D01*
X149874104Y-76190792D01*
X149874106Y-76190788D01*
X149874109Y-76190786D01*
X149999048Y-76018820D01*
X149999047Y-76018820D01*
X149999051Y-76018816D01*
X150003514Y-76010054D01*
X150051488Y-75959259D01*
X150119308Y-75942463D01*
X150185444Y-75964999D01*
G37*
%TD.AperFunction*%
%TA.AperFunction,Conductor*%
G36*
X152099466Y-62342185D02*
G01*
X152145221Y-62394989D01*
X152155165Y-62464147D01*
X152126140Y-62527703D01*
X152067362Y-62565477D01*
X152051825Y-62568973D01*
X151983760Y-62579753D01*
X151781585Y-62645444D01*
X151592179Y-62741951D01*
X151420213Y-62866890D01*
X151269890Y-63017213D01*
X151144951Y-63189179D01*
X151048444Y-63378585D01*
X151048443Y-63378587D01*
X151048443Y-63378588D01*
X151036287Y-63416000D01*
X150982753Y-63580760D01*
X150953830Y-63763373D01*
X150949500Y-63790713D01*
X150949500Y-64003287D01*
X150955632Y-64042000D01*
X150972153Y-64146315D01*
X150982754Y-64213243D01*
X151037562Y-64381925D01*
X151048444Y-64415414D01*
X151144951Y-64604820D01*
X151269890Y-64776786D01*
X151420213Y-64927109D01*
X151592182Y-65052050D01*
X151600946Y-65056516D01*
X151651742Y-65104491D01*
X151668536Y-65172312D01*
X151645998Y-65238447D01*
X151600946Y-65277484D01*
X151592182Y-65281949D01*
X151420213Y-65406890D01*
X151269890Y-65557213D01*
X151144951Y-65729179D01*
X151048444Y-65918585D01*
X151048443Y-65918587D01*
X151048443Y-65918588D01*
X151042206Y-65937782D01*
X150982753Y-66120760D01*
X150949500Y-66330713D01*
X150949500Y-66543286D01*
X150982735Y-66753127D01*
X150982754Y-66753243D01*
X151037562Y-66921925D01*
X151048444Y-66955414D01*
X151144951Y-67144820D01*
X151269890Y-67316786D01*
X151420213Y-67467109D01*
X151592179Y-67592048D01*
X151592181Y-67592049D01*
X151592184Y-67592051D01*
X151781588Y-67688557D01*
X151983757Y-67754246D01*
X152193713Y-67787500D01*
X152193714Y-67787500D01*
X152406286Y-67787500D01*
X152406287Y-67787500D01*
X152616243Y-67754246D01*
X152818412Y-67688557D01*
X153007816Y-67592051D01*
X153036420Y-67571269D01*
X153179786Y-67467109D01*
X153179788Y-67467106D01*
X153179792Y-67467104D01*
X153330104Y-67316792D01*
X153330106Y-67316788D01*
X153330109Y-67316786D01*
X153455048Y-67144820D01*
X153455047Y-67144820D01*
X153455051Y-67144816D01*
X153459514Y-67136054D01*
X153507488Y-67085259D01*
X153575308Y-67068463D01*
X153641444Y-67090999D01*
X153680486Y-67136056D01*
X153684951Y-67144820D01*
X153809890Y-67316786D01*
X153960213Y-67467109D01*
X154132184Y-67592051D01*
X154132184Y-67592052D01*
X154171793Y-67612233D01*
X154222590Y-67660206D01*
X154239500Y-67722718D01*
X154239500Y-69409330D01*
X154239499Y-69409348D01*
X154239499Y-69575054D01*
X154239498Y-69575054D01*
X154280423Y-69727785D01*
X154309358Y-69777900D01*
X154309359Y-69777904D01*
X154309360Y-69777904D01*
X154359479Y-69864714D01*
X154359481Y-69864717D01*
X154478349Y-69983585D01*
X154478355Y-69983590D01*
X155119181Y-70624416D01*
X155152666Y-70685739D01*
X155155500Y-70712097D01*
X155155500Y-70817846D01*
X155186261Y-70972489D01*
X155186264Y-70972501D01*
X155246602Y-71118172D01*
X155246609Y-71118185D01*
X155334602Y-71249874D01*
X155355480Y-71316551D01*
X155355500Y-71318765D01*
X155355500Y-80217902D01*
X155335815Y-80284941D01*
X155319181Y-80305583D01*
X153002117Y-82622646D01*
X152940794Y-82656131D01*
X152871102Y-82651147D01*
X152815169Y-82609275D01*
X152790752Y-82543811D01*
X152790790Y-82534159D01*
X152790500Y-82534159D01*
X152790500Y-82316713D01*
X152785273Y-82283709D01*
X152757246Y-82106757D01*
X152691557Y-81904588D01*
X152595051Y-81715184D01*
X152595049Y-81715181D01*
X152595048Y-81715179D01*
X152470109Y-81543213D01*
X152319786Y-81392890D01*
X152147820Y-81267951D01*
X151958414Y-81171444D01*
X151958413Y-81171443D01*
X151958412Y-81171443D01*
X151756243Y-81105754D01*
X151756241Y-81105753D01*
X151756240Y-81105753D01*
X151581372Y-81078057D01*
X151546287Y-81072500D01*
X151333713Y-81072500D01*
X151298628Y-81078057D01*
X151123760Y-81105753D01*
X150921585Y-81171444D01*
X150732179Y-81267951D01*
X150560213Y-81392890D01*
X150409890Y-81543213D01*
X150284949Y-81715182D01*
X150280484Y-81723946D01*
X150232509Y-81774742D01*
X150164688Y-81791536D01*
X150098553Y-81768998D01*
X150059516Y-81723946D01*
X150055050Y-81715182D01*
X149930109Y-81543213D01*
X149779786Y-81392890D01*
X149607820Y-81267951D01*
X149418414Y-81171444D01*
X149418413Y-81171443D01*
X149418412Y-81171443D01*
X149216243Y-81105754D01*
X149216241Y-81105753D01*
X149216240Y-81105753D01*
X149041372Y-81078057D01*
X149006287Y-81072500D01*
X148793713Y-81072500D01*
X148758628Y-81078057D01*
X148583760Y-81105753D01*
X148381585Y-81171444D01*
X148192179Y-81267951D01*
X148020213Y-81392890D01*
X147869898Y-81543205D01*
X147866732Y-81546913D01*
X147865433Y-81545804D01*
X147815951Y-81583946D01*
X147746337Y-81589913D01*
X147684548Y-81557296D01*
X147683303Y-81556068D01*
X146940819Y-80813584D01*
X146907334Y-80752261D01*
X146904500Y-80725903D01*
X146904500Y-72664713D01*
X147493500Y-72664713D01*
X147493500Y-72877286D01*
X147524377Y-73072239D01*
X147526754Y-73087243D01*
X147587569Y-73274412D01*
X147592444Y-73289414D01*
X147688951Y-73478820D01*
X147813890Y-73650786D01*
X147964213Y-73801109D01*
X148136182Y-73926050D01*
X148144946Y-73930516D01*
X148195742Y-73978491D01*
X148212536Y-74046312D01*
X148189998Y-74112447D01*
X148144946Y-74151484D01*
X148136182Y-74155949D01*
X147964213Y-74280890D01*
X147813890Y-74431213D01*
X147688951Y-74603179D01*
X147592444Y-74792585D01*
X147526753Y-74994760D01*
X147493500Y-75204713D01*
X147493500Y-75417286D01*
X147524377Y-75612239D01*
X147526754Y-75627243D01*
X147587569Y-75814412D01*
X147592444Y-75829414D01*
X147688951Y-76018820D01*
X147813890Y-76190786D01*
X147964213Y-76341109D01*
X148136179Y-76466048D01*
X148136181Y-76466049D01*
X148136184Y-76466051D01*
X148145493Y-76470794D01*
X148196290Y-76518766D01*
X148213087Y-76586587D01*
X148190552Y-76652722D01*
X148145505Y-76691760D01*
X148136446Y-76696376D01*
X148136440Y-76696380D01*
X148082282Y-76735727D01*
X148082282Y-76735728D01*
X148714591Y-77368037D01*
X148651007Y-77385075D01*
X148536993Y-77450901D01*
X148443901Y-77543993D01*
X148378075Y-77658007D01*
X148361037Y-77721591D01*
X147728728Y-77089282D01*
X147728727Y-77089282D01*
X147689380Y-77143439D01*
X147592904Y-77332782D01*
X147527242Y-77534869D01*
X147527242Y-77534872D01*
X147494000Y-77744753D01*
X147494000Y-77957246D01*
X147527242Y-78167127D01*
X147527242Y-78167130D01*
X147592904Y-78369217D01*
X147689375Y-78558550D01*
X147728728Y-78612716D01*
X148361037Y-77980408D01*
X148378075Y-78043993D01*
X148443901Y-78158007D01*
X148536993Y-78251099D01*
X148651007Y-78316925D01*
X148714590Y-78333962D01*
X148082282Y-78966269D01*
X148082282Y-78966270D01*
X148136449Y-79005624D01*
X148325782Y-79102095D01*
X148527870Y-79167757D01*
X148737754Y-79201000D01*
X148950246Y-79201000D01*
X149160127Y-79167757D01*
X149160130Y-79167757D01*
X149362217Y-79102095D01*
X149551554Y-79005622D01*
X149605716Y-78966270D01*
X149605717Y-78966270D01*
X148973408Y-78333962D01*
X149036993Y-78316925D01*
X149151007Y-78251099D01*
X149244099Y-78158007D01*
X149309925Y-78043993D01*
X149326962Y-77980408D01*
X149996356Y-78649803D01*
X150029841Y-78711126D01*
X150028926Y-78725831D01*
X150031497Y-78725555D01*
X150040401Y-78808373D01*
X150040403Y-78808380D01*
X150090645Y-78943086D01*
X150090649Y-78943093D01*
X150176809Y-79058187D01*
X150176812Y-79058190D01*
X150291906Y-79144350D01*
X150291913Y-79144354D01*
X150426620Y-79194596D01*
X150426627Y-79194598D01*
X150486155Y-79200999D01*
X150486172Y-79201000D01*
X151134000Y-79201000D01*
X151134000Y-78284012D01*
X151191007Y-78316925D01*
X151318174Y-78351000D01*
X151449826Y-78351000D01*
X151576993Y-78316925D01*
X151634000Y-78284012D01*
X151634000Y-79201000D01*
X152281828Y-79201000D01*
X152281844Y-79200999D01*
X152341372Y-79194598D01*
X152341379Y-79194596D01*
X152476086Y-79144354D01*
X152476093Y-79144350D01*
X152591187Y-79058190D01*
X152591190Y-79058187D01*
X152677350Y-78943093D01*
X152677354Y-78943086D01*
X152727596Y-78808379D01*
X152727598Y-78808372D01*
X152733999Y-78748844D01*
X152734000Y-78748827D01*
X152734000Y-78101000D01*
X151817012Y-78101000D01*
X151849925Y-78043993D01*
X151884000Y-77916826D01*
X151884000Y-77785174D01*
X151849925Y-77658007D01*
X151817012Y-77601000D01*
X152734000Y-77601000D01*
X152734000Y-76953172D01*
X152733999Y-76953155D01*
X152727598Y-76893627D01*
X152727596Y-76893620D01*
X152677354Y-76758913D01*
X152677350Y-76758906D01*
X152591190Y-76643812D01*
X152591187Y-76643809D01*
X152476093Y-76557649D01*
X152476088Y-76557646D01*
X152344528Y-76508577D01*
X152288595Y-76466705D01*
X152264178Y-76401241D01*
X152279030Y-76332968D01*
X152300175Y-76304720D01*
X152414104Y-76190792D01*
X152425007Y-76175786D01*
X152539048Y-76018820D01*
X152539047Y-76018820D01*
X152539051Y-76018816D01*
X152635557Y-75829412D01*
X152701246Y-75627243D01*
X152734500Y-75417287D01*
X152734500Y-75204713D01*
X152701246Y-74994757D01*
X152635557Y-74792588D01*
X152539051Y-74603184D01*
X152539049Y-74603181D01*
X152539048Y-74603179D01*
X152414109Y-74431213D01*
X152263786Y-74280890D01*
X152091820Y-74155951D01*
X152091115Y-74155591D01*
X152083054Y-74151485D01*
X152032259Y-74103512D01*
X152015463Y-74035692D01*
X152037999Y-73969556D01*
X152083054Y-73930515D01*
X152091816Y-73926051D01*
X152240223Y-73818228D01*
X152263786Y-73801109D01*
X152263788Y-73801106D01*
X152263792Y-73801104D01*
X152414104Y-73650792D01*
X152414106Y-73650788D01*
X152414109Y-73650786D01*
X152539048Y-73478820D01*
X152539047Y-73478820D01*
X152539051Y-73478816D01*
X152635557Y-73289412D01*
X152701246Y-73087243D01*
X152734500Y-72877287D01*
X152734500Y-72664713D01*
X152701246Y-72454757D01*
X152635557Y-72252588D01*
X152539051Y-72063184D01*
X152539049Y-72063181D01*
X152539048Y-72063179D01*
X152414109Y-71891213D01*
X152263786Y-71740890D01*
X152091820Y-71615951D01*
X151902414Y-71519444D01*
X151902413Y-71519443D01*
X151902412Y-71519443D01*
X151700243Y-71453754D01*
X151700241Y-71453753D01*
X151700240Y-71453753D01*
X151538957Y-71428208D01*
X151490287Y-71420500D01*
X151277713Y-71420500D01*
X151229042Y-71428208D01*
X151067760Y-71453753D01*
X150865585Y-71519444D01*
X150676179Y-71615951D01*
X150504213Y-71740890D01*
X150353890Y-71891213D01*
X150228949Y-72063182D01*
X150224484Y-72071946D01*
X150176509Y-72122742D01*
X150108688Y-72139536D01*
X150042553Y-72116998D01*
X150003516Y-72071946D01*
X149999050Y-72063182D01*
X149874109Y-71891213D01*
X149723786Y-71740890D01*
X149551820Y-71615951D01*
X149362414Y-71519444D01*
X149362413Y-71519443D01*
X149362412Y-71519443D01*
X149160243Y-71453754D01*
X149160241Y-71453753D01*
X149160240Y-71453753D01*
X148998957Y-71428208D01*
X148950287Y-71420500D01*
X148737713Y-71420500D01*
X148689042Y-71428208D01*
X148527760Y-71453753D01*
X148325585Y-71519444D01*
X148136179Y-71615951D01*
X147964213Y-71740890D01*
X147813890Y-71891213D01*
X147688951Y-72063179D01*
X147592444Y-72252585D01*
X147526753Y-72454760D01*
X147493500Y-72664713D01*
X146904500Y-72664713D01*
X146904500Y-64054097D01*
X146924185Y-63987058D01*
X146940819Y-63966416D01*
X148548416Y-62358819D01*
X148609739Y-62325334D01*
X148636097Y-62322500D01*
X152032427Y-62322500D01*
X152099466Y-62342185D01*
G37*
%TD.AperFunction*%
%TA.AperFunction,Conductor*%
G36*
X190450753Y-64774348D02*
G01*
X190482046Y-64824272D01*
X190485639Y-64835114D01*
X190485643Y-64835124D01*
X190577684Y-64984345D01*
X190701654Y-65108315D01*
X190850875Y-65200356D01*
X190850882Y-65200359D01*
X190922809Y-65224193D01*
X190980254Y-65263965D01*
X191007078Y-65328481D01*
X191007245Y-65339691D01*
X191640591Y-65973037D01*
X191577007Y-65990075D01*
X191462993Y-66055901D01*
X191369901Y-66148993D01*
X191304075Y-66263007D01*
X191287037Y-66326590D01*
X190654728Y-65694282D01*
X190654727Y-65694282D01*
X190615380Y-65748440D01*
X190615376Y-65748446D01*
X190610760Y-65757505D01*
X190562781Y-65808297D01*
X190494959Y-65825087D01*
X190428826Y-65802543D01*
X190389794Y-65757493D01*
X190385051Y-65748184D01*
X190385049Y-65748181D01*
X190385048Y-65748179D01*
X190260109Y-65576213D01*
X190109786Y-65425890D01*
X189937820Y-65300951D01*
X189937115Y-65300591D01*
X189929054Y-65296485D01*
X189878259Y-65248512D01*
X189861463Y-65180692D01*
X189883999Y-65114556D01*
X189929054Y-65075515D01*
X189937816Y-65071051D01*
X189964175Y-65051900D01*
X190109786Y-64946109D01*
X190109788Y-64946106D01*
X190109792Y-64946104D01*
X190260104Y-64795792D01*
X190264018Y-64790404D01*
X190319342Y-64747734D01*
X190388955Y-64741748D01*
X190450753Y-64774348D01*
G37*
%TD.AperFunction*%
%TD*%
M02*
