%TF.GenerationSoftware,KiCad,Pcbnew,9.0.2*%
%TF.CreationDate,2026-04-16T01:12:58+09:00*%
%TF.ProjectId,PCB_matrix3216,5043425f-6d61-4747-9269-78333231362e,rev?*%
%TF.SameCoordinates,Original*%
%TF.FileFunction,Copper,L1,Top*%
%TF.FilePolarity,Positive*%
%FSLAX46Y46*%
G04 Gerber Fmt 4.6, Leading zero omitted, Abs format (unit mm)*
G04 Created by KiCad (PCBNEW 9.0.2) date 2026-04-16 01:12:58*
%MOMM*%
%LPD*%
G01*
G04 APERTURE LIST*
G04 Aperture macros list*
%AMRoundRect*
0 Rectangle with rounded corners*
0 $1 Rounding radius*
0 $2 $3 $4 $5 $6 $7 $8 $9 X,Y pos of 4 corners*
0 Add a 4 corners polygon primitive as box body*
4,1,4,$2,$3,$4,$5,$6,$7,$8,$9,$2,$3,0*
0 Add four circle primitives for the rounded corners*
1,1,$1+$1,$2,$3*
1,1,$1+$1,$4,$5*
1,1,$1+$1,$6,$7*
1,1,$1+$1,$8,$9*
0 Add four rect primitives between the rounded corners*
20,1,$1+$1,$2,$3,$4,$5,0*
20,1,$1+$1,$4,$5,$6,$7,0*
20,1,$1+$1,$6,$7,$8,$9,0*
20,1,$1+$1,$8,$9,$2,$3,0*%
%AMFreePoly0*
4,1,6,1.000000,0.000000,0.500000,-0.750000,-0.500000,-0.750000,-0.500000,0.750000,0.500000,0.750000,1.000000,0.000000,1.000000,0.000000,$1*%
%AMFreePoly1*
4,1,6,0.500000,-0.750000,-0.650000,-0.750000,-0.150000,0.000000,-0.650000,0.750000,0.500000,0.750000,0.500000,-0.750000,0.500000,-0.750000,$1*%
G04 Aperture macros list end*
%TA.AperFunction,SMDPad,CuDef*%
%ADD10RoundRect,0.237500X0.237500X-0.300000X0.237500X0.300000X-0.237500X0.300000X-0.237500X-0.300000X0*%
%TD*%
%TA.AperFunction,ComponentPad*%
%ADD11C,1.700000*%
%TD*%
%TA.AperFunction,ComponentPad*%
%ADD12R,1.700000X1.700000*%
%TD*%
%TA.AperFunction,ComponentPad*%
%ADD13C,2.000000*%
%TD*%
%TA.AperFunction,ComponentPad*%
%ADD14RoundRect,0.250000X-0.600000X0.600000X-0.600000X-0.600000X0.600000X-0.600000X0.600000X0.600000X0*%
%TD*%
%TA.AperFunction,SMDPad,CuDef*%
%ADD15RoundRect,0.237500X-0.237500X0.300000X-0.237500X-0.300000X0.237500X-0.300000X0.237500X0.300000X0*%
%TD*%
%TA.AperFunction,SMDPad,CuDef*%
%ADD16R,2.000000X2.500000*%
%TD*%
%TA.AperFunction,SMDPad,CuDef*%
%ADD17R,6.000000X6.000000*%
%TD*%
%TA.AperFunction,SMDPad,CuDef*%
%ADD18FreePoly0,180.000000*%
%TD*%
%TA.AperFunction,SMDPad,CuDef*%
%ADD19FreePoly1,180.000000*%
%TD*%
%TA.AperFunction,ViaPad*%
%ADD20C,1.600000*%
%TD*%
%TA.AperFunction,ViaPad*%
%ADD21C,0.600000*%
%TD*%
%TA.AperFunction,ViaPad*%
%ADD22C,1.200000*%
%TD*%
%TA.AperFunction,Conductor*%
%ADD23C,1.000000*%
%TD*%
%TA.AperFunction,Conductor*%
%ADD24C,0.300000*%
%TD*%
%TA.AperFunction,Conductor*%
%ADD25C,0.500000*%
%TD*%
%TA.AperFunction,Conductor*%
%ADD26C,0.200000*%
%TD*%
%TA.AperFunction,Conductor*%
%ADD27C,0.250000*%
%TD*%
%TA.AperFunction,Conductor*%
%ADD28C,0.600000*%
%TD*%
G04 APERTURE END LIST*
D10*
%TO.P,C1,1*%
%TO.N,GND*%
X189230000Y-70712500D03*
%TO.P,C1,2*%
%TO.N,+3.3V*%
X189230000Y-68987500D03*
%TD*%
D11*
%TO.P,J2,1,Pin_1*%
%TO.N,/SIN_1*%
X151440000Y-82423000D03*
%TO.P,J2,2,Pin_2*%
%TO.N,/LATCH*%
X151440000Y-84963000D03*
%TO.P,J2,3,Pin_3*%
%TO.N,/CLK*%
X151440000Y-87503000D03*
%TO.P,J2,4,Pin_4*%
%TO.N,/~{STROBE}*%
X151440000Y-90043000D03*
%TO.P,J2,5,Pin_5*%
%TO.N,GND*%
X151440000Y-92583000D03*
D12*
%TO.P,J2,6,Pin_6*%
%TO.N,+3.3V*%
X151440000Y-95123000D03*
D11*
%TO.P,J2,7,Pin_7*%
X148900000Y-95123000D03*
%TO.P,J2,8,Pin_8*%
%TO.N,GND*%
X148900000Y-92583000D03*
%TO.P,J2,9,Pin_9*%
%TO.N,unconnected-(J2-Pin_9-Pad9)*%
X148900000Y-90043000D03*
%TO.P,J2,10,Pin_10*%
%TO.N,unconnected-(J2-Pin_10-Pad10)*%
X148900000Y-87503000D03*
%TO.P,J2,11,Pin_11*%
%TO.N,/SIN_3*%
X148900000Y-84963000D03*
%TO.P,J2,12,Pin_12*%
%TO.N,/SIN_2*%
X148900000Y-82423000D03*
%TD*%
D13*
%TO.P,REF\u002A\u002A,1*%
%TO.N,+5V*%
X206121000Y-79375000D03*
%TD*%
D11*
%TO.P,U1,1,LED_PWR*%
%TO.N,+5V*%
X181610000Y-63916000D03*
%TO.P,U1,2,SIN_1*%
%TO.N,/SIN_1*%
X181610000Y-66456000D03*
%TO.P,U1,3,SIN_2*%
%TO.N,/SIN_2*%
X184150000Y-63916000D03*
%TO.P,U1,4,SIN_3*%
%TO.N,/SIN_3*%
X184150000Y-66456000D03*
%TO.P,U1,5,CLK*%
%TO.N,/CLK*%
X186690000Y-63916000D03*
%TO.P,U1,6,LATCH*%
%TO.N,/LATCH*%
X186690000Y-66456000D03*
%TO.P,U1,7,~{STROBE}*%
%TO.N,/~{STROBE}*%
X189230000Y-63916000D03*
%TO.P,U1,8,IC_PWR*%
%TO.N,+3.3V*%
X189230000Y-66456000D03*
D14*
%TO.P,U1,9,GND*%
%TO.N,GND*%
X191770000Y-63916000D03*
D11*
%TO.P,U1,10,GND*%
X191770000Y-66456000D03*
%TD*%
%TO.P,U2,31,LED_PWR*%
%TO.N,unconnected-(U2-LED_PWR-Pad31)*%
X152300000Y-63897000D03*
%TO.P,U2,32,SIN_1*%
%TO.N,/SIN_1*%
X152300000Y-66437000D03*
%TO.P,U2,33,SIN_2*%
%TO.N,/SIN_2*%
X154840000Y-63897000D03*
%TO.P,U2,34,SIN_3*%
%TO.N,/SIN_3*%
X154840000Y-66437000D03*
%TO.P,U2,35,CLK*%
%TO.N,/CLK*%
X157380000Y-63897000D03*
%TO.P,U2,36,LATCH*%
%TO.N,/LATCH*%
X157380000Y-66437000D03*
%TO.P,U2,37,~{STROBE}*%
%TO.N,/~{STROBE}*%
X159920000Y-63897000D03*
%TO.P,U2,38,IC_PWR*%
%TO.N,unconnected-(U2-IC_PWR-Pad38)*%
X159920000Y-66437000D03*
D14*
%TO.P,U2,39,GND*%
%TO.N,GND*%
X162460000Y-63897000D03*
D11*
%TO.P,U2,40,GND*%
X162460000Y-66437000D03*
%TD*%
D15*
%TO.P,C6,1*%
%TO.N,+3.3V*%
X199988000Y-83660500D03*
%TO.P,C6,2*%
%TO.N,GND*%
X199988000Y-85385500D03*
%TD*%
D12*
%TO.P,REF\u002A\u002A,1*%
%TO.N,N/C*%
X159385000Y-102235000D03*
D11*
%TO.P,REF\u002A\u002A,2*%
%TO.N,+3.3V*%
X159385000Y-99695000D03*
%TO.P,REF\u002A\u002A,3*%
%TO.N,N/C*%
X161925000Y-102235000D03*
%TO.P,REF\u002A\u002A,4*%
%TO.N,GND*%
X161925000Y-99695000D03*
%TO.P,REF\u002A\u002A,5*%
%TO.N,N/C*%
X164465000Y-102235000D03*
%TO.P,REF\u002A\u002A,6*%
X164465000Y-99695000D03*
%TO.P,REF\u002A\u002A,7*%
X167005000Y-102235000D03*
%TO.P,REF\u002A\u002A,8*%
X167005000Y-99695000D03*
%TO.P,REF\u002A\u002A,9*%
X169545000Y-102235000D03*
%TO.P,REF\u002A\u002A,10*%
X169545000Y-99695000D03*
%TO.P,REF\u002A\u002A,11*%
X172085000Y-102235000D03*
%TO.P,REF\u002A\u002A,12*%
X172085000Y-99695000D03*
%TD*%
D12*
%TO.P,REF\u002A\u002A,1*%
%TO.N,N/C*%
X159385000Y-107315000D03*
D11*
%TO.P,REF\u002A\u002A,2*%
X159385000Y-104775000D03*
%TO.P,REF\u002A\u002A,3*%
X161925000Y-107315000D03*
%TO.P,REF\u002A\u002A,4*%
X161925000Y-104775000D03*
%TO.P,REF\u002A\u002A,5*%
X164465000Y-107315000D03*
%TO.P,REF\u002A\u002A,6*%
X164465000Y-104775000D03*
%TO.P,REF\u002A\u002A,7*%
X167005000Y-107315000D03*
%TO.P,REF\u002A\u002A,8*%
X167005000Y-104775000D03*
%TO.P,REF\u002A\u002A,9*%
X169545000Y-107315000D03*
%TO.P,REF\u002A\u002A,10*%
X169545000Y-104775000D03*
%TO.P,REF\u002A\u002A,11*%
X172085000Y-107315000D03*
%TO.P,REF\u002A\u002A,12*%
X172085000Y-104775000D03*
%TD*%
D15*
%TO.P,C2,1*%
%TO.N,VCC*%
X210910000Y-83660500D03*
%TO.P,C2,2*%
%TO.N,GND*%
X210910000Y-85385500D03*
%TD*%
%TO.P,C5,1*%
%TO.N,VCC*%
X190627000Y-83710000D03*
%TO.P,C5,2*%
%TO.N,GND*%
X190627000Y-85435000D03*
%TD*%
D16*
%TO.P,IC2,1,VIN*%
%TO.N,VCC*%
X207532000Y-83666000D03*
%TO.P,IC2,2,VOUT*%
%TO.N,+3.3V*%
X202932000Y-83666000D03*
D17*
%TO.P,IC2,3,GND*%
%TO.N,GND*%
X205232000Y-89916000D03*
%TD*%
D16*
%TO.P,IC1,1,VIN*%
%TO.N,VCC*%
X186323000Y-83666000D03*
D17*
%TO.P,IC1,2,GND*%
%TO.N,GND*%
X184023000Y-89916000D03*
D16*
%TO.P,IC1,3,VOUT*%
%TO.N,+5V*%
X181723000Y-83666000D03*
%TD*%
D12*
%TO.P,J3,1,Pin_1*%
%TO.N,GND*%
X151384000Y-77851000D03*
D11*
%TO.P,J3,2,Pin_2*%
%TO.N,Net-(J3-Pin_2)*%
X151384000Y-75311000D03*
%TO.P,J3,3,Pin_3*%
%TO.N,VCC*%
X151384000Y-72771000D03*
%TO.P,J3,4,Pin_4*%
X148844000Y-72771000D03*
%TO.P,J3,5,Pin_5*%
%TO.N,unconnected-(J3-Pin_5-Pad5)*%
X148844000Y-75311000D03*
%TO.P,J3,6,Pin_6*%
%TO.N,GND*%
X148844000Y-77851000D03*
%TD*%
D15*
%TO.P,C3,1*%
%TO.N,+5V*%
X177927000Y-83657000D03*
%TO.P,C3,2*%
%TO.N,GND*%
X177927000Y-85382000D03*
%TD*%
D12*
%TO.P,J4,1,Pin_1*%
%TO.N,GND*%
X211799000Y-77836000D03*
D11*
%TO.P,J4,2,Pin_2*%
%TO.N,+3.3V*%
X211799000Y-75296000D03*
%TO.P,J4,3,Pin_3*%
%TO.N,VCC*%
X211799000Y-72756000D03*
%TO.P,J4,4,Pin_4*%
X214339000Y-72756000D03*
%TO.P,J4,5,Pin_5*%
%TO.N,unconnected-(J4-Pin_5-Pad5)*%
X214339000Y-75296000D03*
%TO.P,J4,6,Pin_6*%
%TO.N,GND*%
X214339000Y-77836000D03*
%TD*%
D18*
%TO.P,JP1,1,A*%
%TO.N,+3.3V*%
X165227000Y-75311000D03*
D19*
%TO.P,JP1,2,B*%
%TO.N,Net-(J3-Pin_2)*%
X163777000Y-75311000D03*
%TD*%
D20*
%TO.N,+3.3V*%
X168021000Y-75311000D03*
D21*
X186690000Y-76581000D03*
%TO.N,GND*%
X194183000Y-103759000D03*
X149606000Y-64262000D03*
X193167000Y-89916000D03*
X203200000Y-62738000D03*
X198501000Y-80772000D03*
X171323000Y-77851000D03*
X174752000Y-89662000D03*
X171323000Y-80010000D03*
X179324000Y-103759000D03*
X164084000Y-79375000D03*
X191516000Y-89916000D03*
X208280000Y-62738000D03*
X199644000Y-89916000D03*
X194310000Y-80899000D03*
X172593000Y-67691000D03*
X172085000Y-89662000D03*
X198882000Y-62738000D03*
X165735000Y-87503000D03*
X183642000Y-77343000D03*
X191897000Y-103759000D03*
X157734000Y-88011000D03*
X175768000Y-103759000D03*
X213487000Y-89789000D03*
X211328000Y-89789000D03*
X149098000Y-69342000D03*
X177292000Y-89662000D03*
D20*
%TO.N,VCC*%
X200279000Y-96647000D03*
D22*
%TO.N,+5V*%
X186309000Y-79121000D03*
D21*
%TO.N,/LATCH*%
X176657000Y-77851000D03*
%TO.N,/SIN_3*%
X155956000Y-70739000D03*
%TO.N,/~{STROBE}*%
X177419000Y-79375000D03*
%TD*%
D23*
%TO.N,+3.3V*%
X202946000Y-75311000D02*
X211784000Y-75311000D01*
D24*
X189230000Y-66456000D02*
X189230000Y-68987500D01*
D23*
X202932000Y-75325000D02*
X202946000Y-75311000D01*
D25*
X199988000Y-83660500D02*
X202926500Y-83660500D01*
D23*
X151440000Y-95123000D02*
X154813000Y-95123000D01*
X148900000Y-95123000D02*
X151440000Y-95123000D01*
D26*
X189203500Y-66482500D02*
X189230000Y-66456000D01*
D23*
X168021000Y-75311000D02*
X186690000Y-75311000D01*
X165227000Y-75311000D02*
X168021000Y-75311000D01*
D27*
X186690000Y-76581000D02*
X186690000Y-75311000D01*
D23*
X202932000Y-83666000D02*
X202932000Y-75325000D01*
X211784000Y-75311000D02*
X211799000Y-75296000D01*
D25*
X202926500Y-83660500D02*
X202932000Y-83666000D01*
D23*
X186690000Y-75311000D02*
X202946000Y-75311000D01*
X154813000Y-95123000D02*
X159385000Y-99695000D01*
D25*
%TO.N,GND*%
X161925000Y-99695000D02*
X161925000Y-97409000D01*
%TO.N,VCC*%
X190627000Y-83710000D02*
X186367000Y-83710000D01*
D23*
X221234000Y-82296000D02*
X219837000Y-83693000D01*
X221234000Y-74549000D02*
X221234000Y-82296000D01*
X219441000Y-72756000D02*
X221234000Y-74549000D01*
X217043000Y-90551000D02*
X210947000Y-96647000D01*
X210947000Y-96647000D02*
X200279000Y-96647000D01*
X214339000Y-72756000D02*
X219441000Y-72756000D01*
X151384000Y-72771000D02*
X214324000Y-72771000D01*
X219804500Y-83660500D02*
X210910000Y-83660500D01*
X214324000Y-72771000D02*
X214339000Y-72756000D01*
X200279000Y-96647000D02*
X195961000Y-92329000D01*
X219837000Y-83693000D02*
X217043000Y-83693000D01*
X194454000Y-83710000D02*
X190627000Y-83710000D01*
X219837000Y-83693000D02*
X219804500Y-83660500D01*
X217043000Y-83693000D02*
X217043000Y-90551000D01*
X148844000Y-72771000D02*
X151384000Y-72771000D01*
D25*
X186367000Y-83710000D02*
X186323000Y-83666000D01*
D23*
X195961000Y-85217000D02*
X194454000Y-83710000D01*
D25*
X207532000Y-83666000D02*
X210904500Y-83666000D01*
D23*
X195961000Y-92329000D02*
X195961000Y-85217000D01*
D25*
X210904500Y-83666000D02*
X210910000Y-83660500D01*
%TO.N,+5V*%
X177927000Y-83657000D02*
X181714000Y-83657000D01*
D28*
X184531000Y-79121000D02*
X181723000Y-81929000D01*
D25*
X181714000Y-83657000D02*
X181723000Y-83666000D01*
D28*
X181723000Y-81929000D02*
X181723000Y-83666000D01*
X186309000Y-79121000D02*
X184531000Y-79121000D01*
D26*
%TO.N,/SIN_1*%
X148574000Y-66437000D02*
X146304000Y-68707000D01*
X152300000Y-68477173D02*
X153418827Y-69596000D01*
X180086000Y-69596000D02*
X181610000Y-68072000D01*
X152300000Y-66437000D02*
X152300000Y-68477173D01*
X181610000Y-68072000D02*
X181610000Y-66456000D01*
X152300000Y-66437000D02*
X148574000Y-66437000D01*
X147574000Y-80645000D02*
X150749000Y-80645000D01*
X146304000Y-68707000D02*
X146304000Y-79375000D01*
X150749000Y-80645000D02*
X151440000Y-81336000D01*
X151440000Y-81336000D02*
X151440000Y-82423000D01*
X146304000Y-79375000D02*
X147574000Y-80645000D01*
X153418827Y-69596000D02*
X180086000Y-69596000D01*
%TO.N,/CLK*%
X157380000Y-62711000D02*
X158369000Y-61722000D01*
X157380000Y-63897000D02*
X157380000Y-62711000D01*
X158369000Y-61722000D02*
X185420000Y-61722000D01*
X185420000Y-61722000D02*
X186690000Y-62992000D01*
X186690000Y-62992000D02*
X186690000Y-63916000D01*
D27*
%TO.N,/LATCH*%
X186589500Y-66556500D02*
X186690000Y-66456000D01*
D26*
X169545000Y-84963000D02*
X151440000Y-84963000D01*
X176657000Y-77851000D02*
X169545000Y-84963000D01*
%TO.N,/SIN_3*%
X155956000Y-70739000D02*
X181483000Y-70739000D01*
X181483000Y-70739000D02*
X184150000Y-68072000D01*
X184150000Y-68072000D02*
X184150000Y-66456000D01*
%TO.N,/~{STROBE}*%
X166751000Y-90043000D02*
X151440000Y-90043000D01*
X177419000Y-79375000D02*
X166751000Y-90043000D01*
D23*
%TO.N,Net-(J3-Pin_2)*%
X151384000Y-75311000D02*
X163322000Y-75311000D01*
%TD*%
%TA.AperFunction,Conductor*%
%TO.N,GND*%
G36*
X158105077Y-60972185D02*
G01*
X158150832Y-61024989D01*
X158160776Y-61094147D01*
X158131751Y-61157703D01*
X158100040Y-61183886D01*
X158093713Y-61187538D01*
X158087095Y-61191360D01*
X158043689Y-61216420D01*
X158000285Y-61241479D01*
X158000282Y-61241481D01*
X156899481Y-62342282D01*
X156899479Y-62342285D01*
X156888382Y-62361506D01*
X156860460Y-62409870D01*
X156849361Y-62429094D01*
X156849359Y-62429096D01*
X156820425Y-62479209D01*
X156820424Y-62479210D01*
X156809854Y-62518659D01*
X156779499Y-62631943D01*
X156779499Y-62631945D01*
X156777396Y-62639794D01*
X156774678Y-62639065D01*
X156751936Y-62690468D01*
X156713564Y-62720864D01*
X156672182Y-62741949D01*
X156500213Y-62866890D01*
X156349890Y-63017213D01*
X156224949Y-63189182D01*
X156220484Y-63197946D01*
X156172509Y-63248742D01*
X156104688Y-63265536D01*
X156038553Y-63242998D01*
X155999516Y-63197946D01*
X155995050Y-63189182D01*
X155870109Y-63017213D01*
X155719786Y-62866890D01*
X155547820Y-62741951D01*
X155358414Y-62645444D01*
X155358413Y-62645443D01*
X155358412Y-62645443D01*
X155156243Y-62579754D01*
X155156241Y-62579753D01*
X155156240Y-62579753D01*
X154958592Y-62548449D01*
X154946287Y-62546500D01*
X154733713Y-62546500D01*
X154721408Y-62548449D01*
X154523760Y-62579753D01*
X154321585Y-62645444D01*
X154132179Y-62741951D01*
X153960213Y-62866890D01*
X153809890Y-63017213D01*
X153684949Y-63189182D01*
X153680484Y-63197946D01*
X153632509Y-63248742D01*
X153564688Y-63265536D01*
X153498553Y-63242998D01*
X153459516Y-63197946D01*
X153455050Y-63189182D01*
X153330109Y-63017213D01*
X153179786Y-62866890D01*
X153007820Y-62741951D01*
X152818414Y-62645444D01*
X152818413Y-62645443D01*
X152818412Y-62645443D01*
X152616243Y-62579754D01*
X152616241Y-62579753D01*
X152616240Y-62579753D01*
X152418592Y-62548449D01*
X152406287Y-62546500D01*
X152193713Y-62546500D01*
X152181408Y-62548449D01*
X151983760Y-62579753D01*
X151781585Y-62645444D01*
X151592179Y-62741951D01*
X151420213Y-62866890D01*
X151269890Y-63017213D01*
X151144951Y-63189179D01*
X151048444Y-63378585D01*
X151048443Y-63378587D01*
X151048443Y-63378588D01*
X151036287Y-63416000D01*
X150982753Y-63580760D01*
X150953830Y-63763373D01*
X150949500Y-63790713D01*
X150949500Y-64003287D01*
X150955632Y-64042000D01*
X150972153Y-64146315D01*
X150982754Y-64213243D01*
X151037562Y-64381925D01*
X151048444Y-64415414D01*
X151144951Y-64604820D01*
X151269890Y-64776786D01*
X151420213Y-64927109D01*
X151592182Y-65052050D01*
X151600946Y-65056516D01*
X151651742Y-65104491D01*
X151668536Y-65172312D01*
X151645998Y-65238447D01*
X151600946Y-65277484D01*
X151592182Y-65281949D01*
X151420213Y-65406890D01*
X151269890Y-65557213D01*
X151144948Y-65729184D01*
X151144947Y-65729185D01*
X151124765Y-65768795D01*
X151076791Y-65819591D01*
X151014281Y-65836500D01*
X148660670Y-65836500D01*
X148660654Y-65836499D01*
X148653058Y-65836499D01*
X148494943Y-65836499D01*
X148342215Y-65877423D01*
X148206116Y-65956000D01*
X148205281Y-65956482D01*
X145823481Y-68338282D01*
X145823479Y-68338285D01*
X145773361Y-68425094D01*
X145773359Y-68425096D01*
X145744425Y-68475209D01*
X145744424Y-68475210D01*
X145744423Y-68475215D01*
X145703499Y-68627943D01*
X145703499Y-68627945D01*
X145703499Y-68796046D01*
X145703500Y-68796059D01*
X145703500Y-79288330D01*
X145703499Y-79288348D01*
X145703499Y-79454054D01*
X145703498Y-79454054D01*
X145713960Y-79493097D01*
X145744423Y-79606785D01*
X145758571Y-79631289D01*
X145796964Y-79697788D01*
X145823479Y-79743715D01*
X145942349Y-79862585D01*
X145942355Y-79862590D01*
X147089139Y-81009374D01*
X147089149Y-81009385D01*
X147093479Y-81013715D01*
X147093480Y-81013716D01*
X147205284Y-81125520D01*
X147284826Y-81171443D01*
X147342215Y-81204577D01*
X147494942Y-81245500D01*
X147494943Y-81245500D01*
X147868242Y-81245500D01*
X147935281Y-81265185D01*
X147981036Y-81317989D01*
X147990980Y-81387147D01*
X147961955Y-81450703D01*
X147955923Y-81457181D01*
X147869894Y-81543209D01*
X147869890Y-81543213D01*
X147744951Y-81715179D01*
X147648444Y-81904585D01*
X147582753Y-82106760D01*
X147549500Y-82316713D01*
X147549500Y-82529286D01*
X147580942Y-82727807D01*
X147582754Y-82739243D01*
X147645963Y-82933780D01*
X147648444Y-82941414D01*
X147744951Y-83130820D01*
X147869890Y-83302786D01*
X148020213Y-83453109D01*
X148192182Y-83578050D01*
X148200946Y-83582516D01*
X148251742Y-83630491D01*
X148268536Y-83698312D01*
X148245998Y-83764447D01*
X148200946Y-83803484D01*
X148192182Y-83807949D01*
X148020213Y-83932890D01*
X147869890Y-84083213D01*
X147744951Y-84255179D01*
X147648444Y-84444585D01*
X147582753Y-84646760D01*
X147549500Y-84856711D01*
X147549500Y-85069286D01*
X147581851Y-85273547D01*
X147582754Y-85279243D01*
X147627351Y-85416499D01*
X147648444Y-85481414D01*
X147744951Y-85670820D01*
X147869890Y-85842786D01*
X148020213Y-85993109D01*
X148192182Y-86118050D01*
X148200946Y-86122516D01*
X148251742Y-86170491D01*
X148268536Y-86238312D01*
X148245998Y-86304447D01*
X148200946Y-86343484D01*
X148192182Y-86347949D01*
X148020213Y-86472890D01*
X147869890Y-86623213D01*
X147744951Y-86795179D01*
X147648444Y-86984585D01*
X147582753Y-87186760D01*
X147549500Y-87396713D01*
X147549500Y-87609286D01*
X147582753Y-87819239D01*
X147648444Y-88021414D01*
X147744951Y-88210820D01*
X147869890Y-88382786D01*
X148020213Y-88533109D01*
X148192182Y-88658050D01*
X148200946Y-88662516D01*
X148251742Y-88710491D01*
X148268536Y-88778312D01*
X148245998Y-88844447D01*
X148200946Y-88883484D01*
X148192182Y-88887949D01*
X148020213Y-89012890D01*
X147869890Y-89163213D01*
X147744951Y-89335179D01*
X147648444Y-89524585D01*
X147582753Y-89726760D01*
X147549500Y-89936713D01*
X147549500Y-90149287D01*
X147582754Y-90359243D01*
X147596486Y-90401507D01*
X147648444Y-90561414D01*
X147744951Y-90750820D01*
X147869890Y-90922786D01*
X148020213Y-91073109D01*
X148192179Y-91198048D01*
X148192181Y-91198049D01*
X148192184Y-91198051D01*
X148201493Y-91202794D01*
X148252290Y-91250766D01*
X148269087Y-91318587D01*
X148246552Y-91384722D01*
X148201505Y-91423760D01*
X148192446Y-91428376D01*
X148192440Y-91428380D01*
X148138282Y-91467727D01*
X148138282Y-91467728D01*
X148770591Y-92100037D01*
X148707007Y-92117075D01*
X148592993Y-92182901D01*
X148499901Y-92275993D01*
X148434075Y-92390007D01*
X148417037Y-92453591D01*
X147784728Y-91821282D01*
X147784727Y-91821282D01*
X147745380Y-91875439D01*
X147648904Y-92064782D01*
X147583242Y-92266869D01*
X147583242Y-92266872D01*
X147550000Y-92476753D01*
X147550000Y-92689246D01*
X147583242Y-92899127D01*
X147583242Y-92899130D01*
X147648904Y-93101217D01*
X147745375Y-93290550D01*
X147784728Y-93344716D01*
X148417037Y-92712408D01*
X148434075Y-92775993D01*
X148499901Y-92890007D01*
X148592993Y-92983099D01*
X148707007Y-93048925D01*
X148770590Y-93065962D01*
X148138282Y-93698269D01*
X148138282Y-93698270D01*
X148192452Y-93737626D01*
X148192451Y-93737626D01*
X148201495Y-93742234D01*
X148252292Y-93790208D01*
X148269087Y-93858029D01*
X148246550Y-93924164D01*
X148201499Y-93963202D01*
X148192182Y-93967949D01*
X148020213Y-94092890D01*
X147869890Y-94243213D01*
X147744951Y-94415179D01*
X147648444Y-94604585D01*
X147582753Y-94806760D01*
X147549500Y-95016713D01*
X147549500Y-95229286D01*
X147568424Y-95348771D01*
X147582754Y-95439243D01*
X147642401Y-95622818D01*
X147648444Y-95641414D01*
X147744951Y-95830820D01*
X147869890Y-96002786D01*
X148020213Y-96153109D01*
X148192179Y-96278048D01*
X148192181Y-96278049D01*
X148192184Y-96278051D01*
X148381588Y-96374557D01*
X148583757Y-96440246D01*
X148793713Y-96473500D01*
X148793714Y-96473500D01*
X149006286Y-96473500D01*
X149006287Y-96473500D01*
X149216243Y-96440246D01*
X149418412Y-96374557D01*
X149607816Y-96278051D01*
X149694138Y-96215335D01*
X149783734Y-96150241D01*
X149784364Y-96151108D01*
X149803387Y-96142582D01*
X149825265Y-96128523D01*
X149839241Y-96126513D01*
X149843419Y-96124641D01*
X149860200Y-96123500D01*
X150025859Y-96123500D01*
X150092898Y-96143185D01*
X150138653Y-96195989D01*
X150142030Y-96204140D01*
X150146204Y-96215331D01*
X150146205Y-96215332D01*
X150146206Y-96215335D01*
X150232452Y-96330544D01*
X150232455Y-96330547D01*
X150347664Y-96416793D01*
X150347671Y-96416797D01*
X150482517Y-96467091D01*
X150482516Y-96467091D01*
X150484963Y-96467354D01*
X150542127Y-96473500D01*
X152337872Y-96473499D01*
X152397483Y-96467091D01*
X152532331Y-96416796D01*
X152647546Y-96330546D01*
X152733796Y-96215331D01*
X152737960Y-96204165D01*
X152779829Y-96148234D01*
X152845293Y-96123816D01*
X152854141Y-96123500D01*
X154347218Y-96123500D01*
X154414257Y-96143185D01*
X154434899Y-96159819D01*
X157697681Y-99422601D01*
X157731166Y-99483924D01*
X157734000Y-99510282D01*
X157734000Y-108966000D01*
X173736000Y-108966000D01*
X173736000Y-98171000D01*
X159327283Y-98171000D01*
X159260244Y-98151315D01*
X159239602Y-98134681D01*
X158371313Y-97266392D01*
X158288498Y-97183577D01*
X180455500Y-97183577D01*
X180455500Y-97380422D01*
X180486290Y-97574826D01*
X180547117Y-97762029D01*
X180593071Y-97852218D01*
X180636476Y-97937405D01*
X180752172Y-98096646D01*
X180891354Y-98235828D01*
X181050595Y-98351524D01*
X181133455Y-98393743D01*
X181225970Y-98440882D01*
X181225972Y-98440882D01*
X181225975Y-98440884D01*
X181326317Y-98473487D01*
X181413173Y-98501709D01*
X181607578Y-98532500D01*
X181607583Y-98532500D01*
X181804422Y-98532500D01*
X181998826Y-98501709D01*
X182186025Y-98440884D01*
X182361405Y-98351524D01*
X182520646Y-98235828D01*
X182659828Y-98096646D01*
X182775524Y-97937405D01*
X182864884Y-97762025D01*
X182925709Y-97574826D01*
X182926095Y-97572391D01*
X182956500Y-97380422D01*
X182956500Y-97183577D01*
X182925709Y-96989173D01*
X182864882Y-96801970D01*
X182775523Y-96626594D01*
X182659828Y-96467354D01*
X182520646Y-96328172D01*
X182361405Y-96212476D01*
X182186029Y-96123117D01*
X181998826Y-96062290D01*
X181804422Y-96031500D01*
X181804417Y-96031500D01*
X181607583Y-96031500D01*
X181607578Y-96031500D01*
X181413173Y-96062290D01*
X181225970Y-96123117D01*
X181050594Y-96212476D01*
X180960343Y-96278048D01*
X180891354Y-96328172D01*
X180891352Y-96328174D01*
X180891351Y-96328174D01*
X180752174Y-96467351D01*
X180752174Y-96467352D01*
X180752172Y-96467354D01*
X180747707Y-96473500D01*
X180636476Y-96626594D01*
X180547117Y-96801970D01*
X180486290Y-96989173D01*
X180455500Y-97183577D01*
X158288498Y-97183577D01*
X155597209Y-94492289D01*
X155597206Y-94492285D01*
X155597206Y-94492286D01*
X155590139Y-94485219D01*
X155590139Y-94485218D01*
X155450782Y-94345861D01*
X155450781Y-94345860D01*
X155450780Y-94345859D01*
X155286920Y-94236371D01*
X155286911Y-94236366D01*
X155214315Y-94206296D01*
X155158165Y-94183038D01*
X155104836Y-94160949D01*
X155104832Y-94160948D01*
X155104828Y-94160946D01*
X155008188Y-94141724D01*
X154911544Y-94122500D01*
X154911541Y-94122500D01*
X152854141Y-94122500D01*
X152787102Y-94102815D01*
X152741347Y-94050011D01*
X152737969Y-94041859D01*
X152733796Y-94030669D01*
X152733793Y-94030665D01*
X152733793Y-94030664D01*
X152647547Y-93915455D01*
X152647544Y-93915452D01*
X152532335Y-93829206D01*
X152532328Y-93829202D01*
X152397482Y-93778908D01*
X152397483Y-93778908D01*
X152337883Y-93772501D01*
X152337881Y-93772500D01*
X152337873Y-93772500D01*
X152337865Y-93772500D01*
X152327309Y-93772500D01*
X152260270Y-93752815D01*
X152239628Y-93736181D01*
X151569408Y-93065962D01*
X151632993Y-93048925D01*
X151747007Y-92983099D01*
X151840099Y-92890007D01*
X151905925Y-92775993D01*
X151922962Y-92712408D01*
X152555270Y-93344717D01*
X152555270Y-93344716D01*
X152594622Y-93290554D01*
X152691095Y-93101217D01*
X152735730Y-92963844D01*
X180523000Y-92963844D01*
X180529401Y-93023372D01*
X180529403Y-93023379D01*
X180579645Y-93158086D01*
X180579649Y-93158093D01*
X180665809Y-93273187D01*
X180665812Y-93273190D01*
X180780906Y-93359350D01*
X180780913Y-93359354D01*
X180915620Y-93409596D01*
X180915627Y-93409598D01*
X180975155Y-93415999D01*
X180975172Y-93416000D01*
X183773000Y-93416000D01*
X184273000Y-93416000D01*
X187070828Y-93416000D01*
X187070844Y-93415999D01*
X187130372Y-93409598D01*
X187130379Y-93409596D01*
X187265086Y-93359354D01*
X187265093Y-93359350D01*
X187380187Y-93273190D01*
X187380190Y-93273187D01*
X187466350Y-93158093D01*
X187466354Y-93158086D01*
X187516596Y-93023379D01*
X187516598Y-93023372D01*
X187522999Y-92963844D01*
X187523000Y-92963827D01*
X187523000Y-90166000D01*
X184273000Y-90166000D01*
X184273000Y-93416000D01*
X183773000Y-93416000D01*
X183773000Y-90166000D01*
X180523000Y-90166000D01*
X180523000Y-92963844D01*
X152735730Y-92963844D01*
X152756757Y-92899130D01*
X152756757Y-92899127D01*
X152790000Y-92689246D01*
X152790000Y-92476753D01*
X152756757Y-92266872D01*
X152756757Y-92266869D01*
X152691095Y-92064782D01*
X152594624Y-91875449D01*
X152555270Y-91821282D01*
X152555269Y-91821282D01*
X151922962Y-92453590D01*
X151905925Y-92390007D01*
X151840099Y-92275993D01*
X151747007Y-92182901D01*
X151632993Y-92117075D01*
X151569409Y-92100037D01*
X152201716Y-91467728D01*
X152147547Y-91428373D01*
X152147547Y-91428372D01*
X152138500Y-91423763D01*
X152087706Y-91375788D01*
X152070912Y-91307966D01*
X152093451Y-91241832D01*
X152138508Y-91202793D01*
X152147816Y-91198051D01*
X152227007Y-91140515D01*
X152319786Y-91073109D01*
X152319788Y-91073106D01*
X152319792Y-91073104D01*
X152470104Y-90922792D01*
X152470106Y-90922788D01*
X152470109Y-90922786D01*
X152528661Y-90842193D01*
X152595051Y-90750816D01*
X152595349Y-90750230D01*
X152615235Y-90711205D01*
X152663209Y-90660409D01*
X152725719Y-90643500D01*
X166664331Y-90643500D01*
X166664347Y-90643501D01*
X166671943Y-90643501D01*
X166830054Y-90643501D01*
X166830057Y-90643501D01*
X166982785Y-90602577D01*
X167032904Y-90573639D01*
X167119716Y-90523520D01*
X167231520Y-90411716D01*
X167231520Y-90411714D01*
X167241728Y-90401507D01*
X167241729Y-90401504D01*
X170775079Y-86868155D01*
X180523000Y-86868155D01*
X180523000Y-89666000D01*
X183773000Y-89666000D01*
X184273000Y-89666000D01*
X187523000Y-89666000D01*
X187523000Y-86868172D01*
X187522999Y-86868155D01*
X187516598Y-86808627D01*
X187516596Y-86808620D01*
X187466354Y-86673913D01*
X187466350Y-86673906D01*
X187380190Y-86558812D01*
X187380187Y-86558809D01*
X187265093Y-86472649D01*
X187265086Y-86472645D01*
X187130379Y-86422403D01*
X187130372Y-86422401D01*
X187070844Y-86416000D01*
X184273000Y-86416000D01*
X184273000Y-89666000D01*
X183773000Y-89666000D01*
X183773000Y-86416000D01*
X180975155Y-86416000D01*
X180915627Y-86422401D01*
X180915620Y-86422403D01*
X180780913Y-86472645D01*
X180780906Y-86472649D01*
X180665812Y-86558809D01*
X180665809Y-86558812D01*
X180579649Y-86673906D01*
X180579645Y-86673913D01*
X180529403Y-86808620D01*
X180529401Y-86808627D01*
X180523000Y-86868155D01*
X170775079Y-86868155D01*
X171912080Y-85731154D01*
X176952001Y-85731154D01*
X176962319Y-85832152D01*
X177016546Y-85995800D01*
X177016551Y-85995811D01*
X177107052Y-86142534D01*
X177107055Y-86142538D01*
X177228961Y-86264444D01*
X177228965Y-86264447D01*
X177375688Y-86354948D01*
X177375699Y-86354953D01*
X177539347Y-86409180D01*
X177640352Y-86419499D01*
X177677000Y-86419499D01*
X178177000Y-86419499D01*
X178213640Y-86419499D01*
X178213654Y-86419498D01*
X178314652Y-86409180D01*
X178478300Y-86354953D01*
X178478311Y-86354948D01*
X178625034Y-86264447D01*
X178625038Y-86264444D01*
X178746944Y-86142538D01*
X178746947Y-86142534D01*
X178837448Y-85995811D01*
X178837453Y-85995800D01*
X178891680Y-85832152D01*
X178896584Y-85784154D01*
X189652001Y-85784154D01*
X189662319Y-85885152D01*
X189716546Y-86048800D01*
X189716551Y-86048811D01*
X189807052Y-86195534D01*
X189807055Y-86195538D01*
X189928961Y-86317444D01*
X189928965Y-86317447D01*
X190075688Y-86407948D01*
X190075699Y-86407953D01*
X190239347Y-86462180D01*
X190340352Y-86472499D01*
X190377000Y-86472499D01*
X190877000Y-86472499D01*
X190913640Y-86472499D01*
X190913654Y-86472498D01*
X191014652Y-86462180D01*
X191178300Y-86407953D01*
X191178311Y-86407948D01*
X191325034Y-86317447D01*
X191325038Y-86317444D01*
X191446944Y-86195538D01*
X191446947Y-86195534D01*
X191537448Y-86048811D01*
X191537453Y-86048800D01*
X191591680Y-85885152D01*
X191601999Y-85784154D01*
X191602000Y-85784141D01*
X191602000Y-85685000D01*
X190877000Y-85685000D01*
X190877000Y-86472499D01*
X190377000Y-86472499D01*
X190377000Y-85685000D01*
X189652001Y-85685000D01*
X189652001Y-85784154D01*
X178896584Y-85784154D01*
X178901999Y-85731154D01*
X178902000Y-85731141D01*
X178902000Y-85632000D01*
X178177000Y-85632000D01*
X178177000Y-86419499D01*
X177677000Y-86419499D01*
X177677000Y-85632000D01*
X176952001Y-85632000D01*
X176952001Y-85731154D01*
X171912080Y-85731154D01*
X174335419Y-83307815D01*
X176951500Y-83307815D01*
X176951500Y-84006169D01*
X176951501Y-84006187D01*
X176961825Y-84107252D01*
X176998109Y-84216749D01*
X177013749Y-84263946D01*
X177016092Y-84271015D01*
X177016093Y-84271018D01*
X177043062Y-84314742D01*
X177105827Y-84416500D01*
X177106661Y-84417851D01*
X177120982Y-84432172D01*
X177154467Y-84493495D01*
X177149483Y-84563187D01*
X177120985Y-84607532D01*
X177107052Y-84621465D01*
X177016551Y-84768188D01*
X177016546Y-84768199D01*
X176962319Y-84931847D01*
X176952000Y-85032845D01*
X176952000Y-85132000D01*
X178901999Y-85132000D01*
X178901999Y-85032860D01*
X178901998Y-85032845D01*
X178891680Y-84931847D01*
X178837453Y-84768199D01*
X178837448Y-84768188D01*
X178746947Y-84621465D01*
X178746944Y-84621461D01*
X178744664Y-84619181D01*
X178743598Y-84617230D01*
X178742467Y-84615799D01*
X178742711Y-84615605D01*
X178711179Y-84557858D01*
X178716163Y-84488166D01*
X178758035Y-84432233D01*
X178823499Y-84407816D01*
X178832345Y-84407500D01*
X180098501Y-84407500D01*
X180165540Y-84427185D01*
X180211295Y-84479989D01*
X180222501Y-84531500D01*
X180222501Y-84963872D01*
X180228908Y-85023483D01*
X180279202Y-85158328D01*
X180279206Y-85158335D01*
X180365452Y-85273544D01*
X180365455Y-85273547D01*
X180480664Y-85359793D01*
X180480671Y-85359797D01*
X180615517Y-85410091D01*
X180615516Y-85410091D01*
X180622444Y-85410835D01*
X180675127Y-85416500D01*
X182770872Y-85416499D01*
X182830483Y-85410091D01*
X182965331Y-85359796D01*
X183080546Y-85273546D01*
X183166796Y-85158331D01*
X183217091Y-85023483D01*
X183223500Y-84963873D01*
X183223499Y-82368128D01*
X183217091Y-82308517D01*
X183175669Y-82197460D01*
X183166797Y-82173671D01*
X183166793Y-82173664D01*
X183080547Y-82058455D01*
X182992128Y-81992264D01*
X182950258Y-81936330D01*
X182945274Y-81866639D01*
X182978757Y-81805319D01*
X184826259Y-79957819D01*
X184887582Y-79924334D01*
X184913940Y-79921500D01*
X185501796Y-79921500D01*
X185568835Y-79941185D01*
X185589477Y-79957819D01*
X185592072Y-79960414D01*
X185732212Y-80062232D01*
X185886555Y-80140873D01*
X186051299Y-80194402D01*
X186222389Y-80221500D01*
X186222390Y-80221500D01*
X186395610Y-80221500D01*
X186395611Y-80221500D01*
X186566701Y-80194402D01*
X186731445Y-80140873D01*
X186885788Y-80062232D01*
X187025928Y-79960414D01*
X187148414Y-79837928D01*
X187250232Y-79697788D01*
X187328873Y-79543445D01*
X187382402Y-79378701D01*
X187409500Y-79207611D01*
X187409500Y-79034389D01*
X187382402Y-78863299D01*
X187328873Y-78698555D01*
X187250232Y-78544212D01*
X187148414Y-78404072D01*
X187025928Y-78281586D01*
X186885788Y-78179768D01*
X186731445Y-78101127D01*
X186566701Y-78047598D01*
X186566699Y-78047597D01*
X186566698Y-78047597D01*
X186435271Y-78026781D01*
X186395611Y-78020500D01*
X186222389Y-78020500D01*
X186182728Y-78026781D01*
X186051302Y-78047597D01*
X185886552Y-78101128D01*
X185732211Y-78179768D01*
X185698097Y-78204554D01*
X185592072Y-78281586D01*
X185592070Y-78281588D01*
X185592069Y-78281588D01*
X185589477Y-78284181D01*
X185528154Y-78317666D01*
X185501796Y-78320500D01*
X184452153Y-78320500D01*
X184297510Y-78351260D01*
X184297502Y-78351262D01*
X184151824Y-78411604D01*
X184151814Y-78411609D01*
X184020711Y-78499210D01*
X184020707Y-78499213D01*
X181861580Y-80658342D01*
X181212711Y-81307211D01*
X181163827Y-81356095D01*
X181101209Y-81418712D01*
X181013609Y-81549814D01*
X181013602Y-81549827D01*
X180953264Y-81695498D01*
X180953261Y-81695508D01*
X180929355Y-81815692D01*
X180896970Y-81877603D01*
X180836254Y-81912177D01*
X180807739Y-81915500D01*
X180675130Y-81915500D01*
X180675123Y-81915501D01*
X180615516Y-81921908D01*
X180480671Y-81972202D01*
X180480664Y-81972206D01*
X180365455Y-82058452D01*
X180365452Y-82058455D01*
X180279206Y-82173664D01*
X180279202Y-82173671D01*
X180228908Y-82308517D01*
X180222501Y-82368116D01*
X180222501Y-82368123D01*
X180222500Y-82368135D01*
X180222500Y-82782500D01*
X180202815Y-82849539D01*
X180150011Y-82895294D01*
X180098500Y-82906500D01*
X178809052Y-82906500D01*
X178742013Y-82886815D01*
X178721371Y-82870181D01*
X178625351Y-82774161D01*
X178625350Y-82774160D01*
X178484192Y-82687093D01*
X178478518Y-82683593D01*
X178478513Y-82683591D01*
X178474692Y-82682325D01*
X178314753Y-82629326D01*
X178314751Y-82629325D01*
X178213678Y-82619000D01*
X177640330Y-82619000D01*
X177640312Y-82619001D01*
X177539247Y-82629325D01*
X177375484Y-82683592D01*
X177375481Y-82683593D01*
X177228648Y-82774161D01*
X177106661Y-82896148D01*
X177016093Y-83042981D01*
X177016091Y-83042986D01*
X177004966Y-83076559D01*
X176961826Y-83206747D01*
X176961826Y-83206748D01*
X176961825Y-83206748D01*
X176951500Y-83307815D01*
X174335419Y-83307815D01*
X177433662Y-80209572D01*
X177494983Y-80176089D01*
X177497150Y-80175638D01*
X177568561Y-80161433D01*
X177652497Y-80144737D01*
X177798179Y-80084394D01*
X177929289Y-79996789D01*
X178040789Y-79885289D01*
X178128394Y-79754179D01*
X178188737Y-79608497D01*
X178219500Y-79453842D01*
X178219500Y-79296158D01*
X178219500Y-79296155D01*
X178219499Y-79296153D01*
X178201887Y-79207611D01*
X178188737Y-79141503D01*
X178172414Y-79102095D01*
X178128397Y-78995827D01*
X178128390Y-78995814D01*
X178040789Y-78864711D01*
X178040786Y-78864707D01*
X177929292Y-78753213D01*
X177929288Y-78753210D01*
X177798185Y-78665609D01*
X177798172Y-78665602D01*
X177652501Y-78605264D01*
X177652489Y-78605261D01*
X177497845Y-78574500D01*
X177497842Y-78574500D01*
X177364941Y-78574500D01*
X177297902Y-78554815D01*
X177252147Y-78502011D01*
X177242203Y-78432853D01*
X177271228Y-78369297D01*
X177277260Y-78362819D01*
X177278786Y-78361292D01*
X177278789Y-78361289D01*
X177366394Y-78230179D01*
X177426737Y-78084497D01*
X177457500Y-77929842D01*
X177457500Y-77772158D01*
X177457500Y-77772155D01*
X177457499Y-77772153D01*
X177445136Y-77710000D01*
X177426737Y-77617503D01*
X177413688Y-77586000D01*
X177366397Y-77471827D01*
X177366390Y-77471814D01*
X177278789Y-77340711D01*
X177278786Y-77340707D01*
X177167292Y-77229213D01*
X177167288Y-77229210D01*
X177036185Y-77141609D01*
X177036172Y-77141602D01*
X176890501Y-77081264D01*
X176890489Y-77081261D01*
X176735845Y-77050500D01*
X176735842Y-77050500D01*
X176578158Y-77050500D01*
X176578155Y-77050500D01*
X176423510Y-77081261D01*
X176423498Y-77081264D01*
X176277827Y-77141602D01*
X176277814Y-77141609D01*
X176146711Y-77229210D01*
X176146707Y-77229213D01*
X176035213Y-77340707D01*
X176035210Y-77340711D01*
X175947609Y-77471814D01*
X175947602Y-77471827D01*
X175887264Y-77617498D01*
X175887261Y-77617508D01*
X175856361Y-77772850D01*
X175823976Y-77834761D01*
X175822425Y-77836339D01*
X169332584Y-84326181D01*
X169271261Y-84359666D01*
X169244903Y-84362500D01*
X152725719Y-84362500D01*
X152658680Y-84342815D01*
X152615235Y-84294795D01*
X152595052Y-84255185D01*
X152595051Y-84255184D01*
X152470109Y-84083213D01*
X152319786Y-83932890D01*
X152147820Y-83807951D01*
X152147115Y-83807591D01*
X152139054Y-83803485D01*
X152088259Y-83755512D01*
X152071463Y-83687692D01*
X152093999Y-83621556D01*
X152139054Y-83582515D01*
X152147816Y-83578051D01*
X152169789Y-83562086D01*
X152319786Y-83453109D01*
X152319788Y-83453106D01*
X152319792Y-83453104D01*
X152470104Y-83302792D01*
X152470106Y-83302788D01*
X152470109Y-83302786D01*
X152595048Y-83130820D01*
X152595047Y-83130820D01*
X152595051Y-83130816D01*
X152691557Y-82941412D01*
X152757246Y-82739243D01*
X152790500Y-82529287D01*
X152790500Y-82316713D01*
X152757246Y-82106757D01*
X152691557Y-81904588D01*
X152595051Y-81715184D01*
X152595049Y-81715181D01*
X152595048Y-81715179D01*
X152470109Y-81543213D01*
X152319786Y-81392890D01*
X152147819Y-81267951D01*
X152147818Y-81267950D01*
X152147816Y-81267949D01*
X152076137Y-81231426D01*
X152025342Y-81183452D01*
X152012659Y-81153040D01*
X151999577Y-81104216D01*
X151999573Y-81104209D01*
X151920524Y-80967290D01*
X151920518Y-80967282D01*
X151236590Y-80283355D01*
X151236588Y-80283352D01*
X151117717Y-80164481D01*
X151117716Y-80164480D01*
X151030904Y-80114360D01*
X151030904Y-80114359D01*
X151030900Y-80114358D01*
X150980785Y-80085423D01*
X150828057Y-80044499D01*
X150669943Y-80044499D01*
X150662347Y-80044499D01*
X150662331Y-80044500D01*
X147874097Y-80044500D01*
X147807058Y-80024815D01*
X147786416Y-80008181D01*
X146940819Y-79162584D01*
X146926115Y-79135656D01*
X146909523Y-79109838D01*
X146908631Y-79103637D01*
X146907334Y-79101261D01*
X146904500Y-79074903D01*
X146904500Y-69007097D01*
X146924185Y-68940058D01*
X146940819Y-68919416D01*
X148786417Y-67073819D01*
X148847740Y-67040334D01*
X148874098Y-67037500D01*
X151014281Y-67037500D01*
X151081320Y-67057185D01*
X151124765Y-67105205D01*
X151144947Y-67144814D01*
X151144948Y-67144815D01*
X151269890Y-67316786D01*
X151420213Y-67467109D01*
X151592184Y-67592051D01*
X151592184Y-67592052D01*
X151631793Y-67612233D01*
X151682590Y-67660206D01*
X151699500Y-67722718D01*
X151699500Y-68390503D01*
X151699499Y-68390521D01*
X151699499Y-68556227D01*
X151699498Y-68556227D01*
X151740423Y-68708958D01*
X151769358Y-68759073D01*
X151769359Y-68759077D01*
X151769360Y-68759077D01*
X151819479Y-68845887D01*
X151819481Y-68845890D01*
X151938349Y-68964758D01*
X151938355Y-68964763D01*
X152933966Y-69960374D01*
X152933976Y-69960385D01*
X152938306Y-69964715D01*
X152938307Y-69964716D01*
X153050111Y-70076520D01*
X153050113Y-70076521D01*
X153050114Y-70076522D01*
X153120588Y-70117209D01*
X153120590Y-70117211D01*
X153120591Y-70117211D01*
X153152555Y-70135666D01*
X153187042Y-70155577D01*
X153339769Y-70196500D01*
X153339770Y-70196500D01*
X155128676Y-70196500D01*
X155195715Y-70216185D01*
X155241470Y-70268989D01*
X155251414Y-70338147D01*
X155243237Y-70367952D01*
X155186264Y-70505498D01*
X155186261Y-70505510D01*
X155155500Y-70660153D01*
X155155500Y-70817846D01*
X155186261Y-70972489D01*
X155186264Y-70972501D01*
X155246602Y-71118172D01*
X155246609Y-71118185D01*
X155334210Y-71249288D01*
X155334213Y-71249292D01*
X155445707Y-71360786D01*
X155445711Y-71360789D01*
X155576814Y-71448390D01*
X155576827Y-71448397D01*
X155722498Y-71508735D01*
X155722503Y-71508737D01*
X155755536Y-71515307D01*
X155803671Y-71524883D01*
X155865582Y-71557268D01*
X155900156Y-71617984D01*
X155896417Y-71687753D01*
X155855550Y-71744425D01*
X155790532Y-71770006D01*
X155779480Y-71770500D01*
X152344200Y-71770500D01*
X152277161Y-71750815D01*
X152264634Y-71741506D01*
X152091820Y-71615951D01*
X151902414Y-71519444D01*
X151902413Y-71519443D01*
X151902412Y-71519443D01*
X151700243Y-71453754D01*
X151700241Y-71453753D01*
X151700240Y-71453753D01*
X151538957Y-71428208D01*
X151490287Y-71420500D01*
X151277713Y-71420500D01*
X151229042Y-71428208D01*
X151067760Y-71453753D01*
X150865585Y-71519444D01*
X150676179Y-71615951D01*
X150500266Y-71743759D01*
X150499635Y-71742891D01*
X150440581Y-71769359D01*
X150423800Y-71770500D01*
X149804200Y-71770500D01*
X149737161Y-71750815D01*
X149724634Y-71741506D01*
X149551820Y-71615951D01*
X149362414Y-71519444D01*
X149362413Y-71519443D01*
X149362412Y-71519443D01*
X149160243Y-71453754D01*
X149160241Y-71453753D01*
X149160240Y-71453753D01*
X148998957Y-71428208D01*
X148950287Y-71420500D01*
X148737713Y-71420500D01*
X148689042Y-71428208D01*
X148527760Y-71453753D01*
X148325585Y-71519444D01*
X148136179Y-71615951D01*
X147964213Y-71740890D01*
X147813890Y-71891213D01*
X147688951Y-72063179D01*
X147592444Y-72252585D01*
X147526753Y-72454760D01*
X147493500Y-72664713D01*
X147493500Y-72877286D01*
X147526753Y-73087239D01*
X147592444Y-73289414D01*
X147688951Y-73478820D01*
X147813890Y-73650786D01*
X147964213Y-73801109D01*
X148136182Y-73926050D01*
X148144946Y-73930516D01*
X148195742Y-73978491D01*
X148212536Y-74046312D01*
X148189998Y-74112447D01*
X148144946Y-74151484D01*
X148136182Y-74155949D01*
X147964213Y-74280890D01*
X147813890Y-74431213D01*
X147688951Y-74603179D01*
X147592444Y-74792585D01*
X147526753Y-74994760D01*
X147493500Y-75204713D01*
X147493500Y-75417286D01*
X147524377Y-75612239D01*
X147526754Y-75627243D01*
X147587569Y-75814412D01*
X147592444Y-75829414D01*
X147688951Y-76018820D01*
X147813890Y-76190786D01*
X147964213Y-76341109D01*
X148136179Y-76466048D01*
X148136181Y-76466049D01*
X148136184Y-76466051D01*
X148145493Y-76470794D01*
X148196290Y-76518766D01*
X148213087Y-76586587D01*
X148190552Y-76652722D01*
X148145505Y-76691760D01*
X148136446Y-76696376D01*
X148136440Y-76696380D01*
X148082282Y-76735727D01*
X148082282Y-76735728D01*
X148714591Y-77368037D01*
X148651007Y-77385075D01*
X148536993Y-77450901D01*
X148443901Y-77543993D01*
X148378075Y-77658007D01*
X148361037Y-77721591D01*
X147728728Y-77089282D01*
X147728727Y-77089282D01*
X147689380Y-77143439D01*
X147592904Y-77332782D01*
X147527242Y-77534869D01*
X147527242Y-77534872D01*
X147494000Y-77744753D01*
X147494000Y-77957246D01*
X147527242Y-78167127D01*
X147527242Y-78167130D01*
X147592904Y-78369217D01*
X147689375Y-78558550D01*
X147728728Y-78612716D01*
X148361037Y-77980408D01*
X148378075Y-78043993D01*
X148443901Y-78158007D01*
X148536993Y-78251099D01*
X148651007Y-78316925D01*
X148714590Y-78333962D01*
X148082282Y-78966269D01*
X148082282Y-78966270D01*
X148136449Y-79005624D01*
X148325782Y-79102095D01*
X148527870Y-79167757D01*
X148737754Y-79201000D01*
X148950246Y-79201000D01*
X149160127Y-79167757D01*
X149160130Y-79167757D01*
X149362217Y-79102095D01*
X149551554Y-79005622D01*
X149605716Y-78966270D01*
X149605717Y-78966270D01*
X148973408Y-78333962D01*
X149036993Y-78316925D01*
X149151007Y-78251099D01*
X149244099Y-78158007D01*
X149309925Y-78043993D01*
X149326962Y-77980408D01*
X149996356Y-78649803D01*
X150029841Y-78711126D01*
X150028926Y-78725831D01*
X150031497Y-78725555D01*
X150040401Y-78808373D01*
X150040403Y-78808380D01*
X150090645Y-78943086D01*
X150090649Y-78943093D01*
X150176809Y-79058187D01*
X150176812Y-79058190D01*
X150291906Y-79144350D01*
X150291913Y-79144354D01*
X150426620Y-79194596D01*
X150426627Y-79194598D01*
X150486155Y-79200999D01*
X150486172Y-79201000D01*
X151134000Y-79201000D01*
X151134000Y-78284012D01*
X151191007Y-78316925D01*
X151318174Y-78351000D01*
X151449826Y-78351000D01*
X151576993Y-78316925D01*
X151634000Y-78284012D01*
X151634000Y-79201000D01*
X152281828Y-79201000D01*
X152281844Y-79200999D01*
X152341372Y-79194598D01*
X152341379Y-79194596D01*
X152476086Y-79144354D01*
X152476093Y-79144350D01*
X152591187Y-79058190D01*
X152591190Y-79058187D01*
X152677350Y-78943093D01*
X152677354Y-78943086D01*
X152727596Y-78808379D01*
X152727598Y-78808372D01*
X152733999Y-78748844D01*
X152734000Y-78748827D01*
X152734000Y-78101000D01*
X151817012Y-78101000D01*
X151849925Y-78043993D01*
X151884000Y-77916826D01*
X151884000Y-77785174D01*
X151849925Y-77658007D01*
X151817012Y-77601000D01*
X152734000Y-77601000D01*
X152734000Y-76953172D01*
X152733999Y-76953155D01*
X152727598Y-76893627D01*
X152727596Y-76893620D01*
X152677354Y-76758913D01*
X152677350Y-76758906D01*
X152591190Y-76643812D01*
X152591187Y-76643809D01*
X152476093Y-76557649D01*
X152476086Y-76557645D01*
X152460097Y-76551682D01*
X152404163Y-76509811D01*
X152379746Y-76444347D01*
X152394597Y-76376074D01*
X152444002Y-76326668D01*
X152503430Y-76311500D01*
X162775505Y-76311500D01*
X162842544Y-76331185D01*
X162879821Y-76368461D01*
X162894968Y-76392031D01*
X162894971Y-76392034D01*
X162985862Y-76470792D01*
X163003706Y-76486254D01*
X163038524Y-76502155D01*
X163134580Y-76546023D01*
X163134583Y-76546023D01*
X163134584Y-76546024D01*
X163277000Y-76566500D01*
X163277003Y-76566500D01*
X164426998Y-76566500D01*
X164427000Y-76566500D01*
X164427002Y-76566499D01*
X164427021Y-76566499D01*
X164507326Y-76560076D01*
X164507326Y-76560075D01*
X164507338Y-76560075D01*
X164535740Y-76551213D01*
X164590316Y-76546848D01*
X164727000Y-76566500D01*
X164727003Y-76566500D01*
X165727000Y-76566500D01*
X165798940Y-76561355D01*
X165936992Y-76520819D01*
X166058032Y-76443031D01*
X166102222Y-76392034D01*
X166134922Y-76354297D01*
X166193700Y-76316523D01*
X166228634Y-76311500D01*
X167145238Y-76311500D01*
X167212277Y-76331185D01*
X167218119Y-76335179D01*
X167339390Y-76423287D01*
X167423319Y-76466051D01*
X167521776Y-76516218D01*
X167521778Y-76516218D01*
X167521781Y-76516220D01*
X167603112Y-76542646D01*
X167716465Y-76579477D01*
X167817557Y-76595488D01*
X167918648Y-76611500D01*
X167918649Y-76611500D01*
X168123351Y-76611500D01*
X168123352Y-76611500D01*
X168325534Y-76579477D01*
X168520219Y-76516220D01*
X168702610Y-76423287D01*
X168823877Y-76335181D01*
X168889683Y-76311702D01*
X168896762Y-76311500D01*
X185776330Y-76311500D01*
X185843369Y-76331185D01*
X185889124Y-76383989D01*
X185899068Y-76453147D01*
X185897947Y-76459692D01*
X185889500Y-76502155D01*
X185889500Y-76659846D01*
X185920261Y-76814489D01*
X185920264Y-76814501D01*
X185980602Y-76960172D01*
X185980609Y-76960185D01*
X186068210Y-77091288D01*
X186068213Y-77091292D01*
X186179707Y-77202786D01*
X186179711Y-77202789D01*
X186310814Y-77290390D01*
X186310827Y-77290397D01*
X186413155Y-77332782D01*
X186456503Y-77350737D01*
X186611153Y-77381499D01*
X186611156Y-77381500D01*
X186611158Y-77381500D01*
X186768844Y-77381500D01*
X186768845Y-77381499D01*
X186923497Y-77350737D01*
X187069179Y-77290394D01*
X187200289Y-77202789D01*
X187311789Y-77091289D01*
X187399394Y-76960179D01*
X187459737Y-76814497D01*
X187490500Y-76659842D01*
X187490500Y-76502158D01*
X187490500Y-76502155D01*
X187482053Y-76459692D01*
X187488280Y-76390101D01*
X187531142Y-76334923D01*
X187597032Y-76311678D01*
X187603670Y-76311500D01*
X201807500Y-76311500D01*
X201874539Y-76331185D01*
X201920294Y-76383989D01*
X201931500Y-76435500D01*
X201931500Y-81799023D01*
X201911815Y-81866062D01*
X201859011Y-81911817D01*
X201831865Y-81919266D01*
X201832068Y-81920124D01*
X201824520Y-81921907D01*
X201689671Y-81972202D01*
X201689664Y-81972206D01*
X201574455Y-82058452D01*
X201574452Y-82058455D01*
X201488206Y-82173664D01*
X201488202Y-82173671D01*
X201437908Y-82308517D01*
X201431501Y-82368116D01*
X201431501Y-82368123D01*
X201431500Y-82368135D01*
X201431500Y-82786000D01*
X201411815Y-82853039D01*
X201359011Y-82898794D01*
X201307500Y-82910000D01*
X200870052Y-82910000D01*
X200803013Y-82890315D01*
X200782371Y-82873681D01*
X200686351Y-82777661D01*
X200686350Y-82777660D01*
X200539516Y-82687092D01*
X200375753Y-82632826D01*
X200375751Y-82632825D01*
X200274678Y-82622500D01*
X199701330Y-82622500D01*
X199701312Y-82622501D01*
X199600247Y-82632825D01*
X199436484Y-82687092D01*
X199436481Y-82687093D01*
X199289648Y-82777661D01*
X199167661Y-82899648D01*
X199077093Y-83046481D01*
X199077091Y-83046486D01*
X199067133Y-83076537D01*
X199022826Y-83210247D01*
X199022826Y-83210248D01*
X199022825Y-83210248D01*
X199012500Y-83311315D01*
X199012500Y-84009669D01*
X199012501Y-84009687D01*
X199022825Y-84110752D01*
X199059109Y-84220249D01*
X199075932Y-84271016D01*
X199077092Y-84274515D01*
X199077093Y-84274518D01*
X199105500Y-84320573D01*
X199165501Y-84417850D01*
X199167661Y-84421351D01*
X199181982Y-84435672D01*
X199215467Y-84496995D01*
X199210483Y-84566687D01*
X199181985Y-84611032D01*
X199168052Y-84624965D01*
X199077551Y-84771688D01*
X199077546Y-84771699D01*
X199023319Y-84935347D01*
X199013000Y-85036345D01*
X199013000Y-85135500D01*
X200962999Y-85135500D01*
X200962999Y-85036360D01*
X200962998Y-85036345D01*
X200952680Y-84935347D01*
X200898453Y-84771699D01*
X200898448Y-84771688D01*
X200807947Y-84624965D01*
X200807944Y-84624961D01*
X200805664Y-84622681D01*
X200804598Y-84620730D01*
X200803467Y-84619299D01*
X200803711Y-84619105D01*
X200772179Y-84561358D01*
X200777163Y-84491666D01*
X200819035Y-84435733D01*
X200884499Y-84411316D01*
X200893345Y-84411000D01*
X201307501Y-84411000D01*
X201374540Y-84430685D01*
X201420295Y-84483489D01*
X201431501Y-84535000D01*
X201431501Y-84963872D01*
X201437908Y-85023483D01*
X201488202Y-85158328D01*
X201488206Y-85158335D01*
X201574452Y-85273544D01*
X201574455Y-85273547D01*
X201689664Y-85359793D01*
X201689671Y-85359797D01*
X201824517Y-85410091D01*
X201824516Y-85410091D01*
X201831444Y-85410835D01*
X201884127Y-85416500D01*
X203979872Y-85416499D01*
X204039483Y-85410091D01*
X204174331Y-85359796D01*
X204289546Y-85273546D01*
X204375796Y-85158331D01*
X204426091Y-85023483D01*
X204432500Y-84963873D01*
X204432499Y-82368128D01*
X204426091Y-82308517D01*
X204384669Y-82197460D01*
X204375797Y-82173671D01*
X204375793Y-82173664D01*
X204289547Y-82058455D01*
X204289544Y-82058452D01*
X204174335Y-81972206D01*
X204174328Y-81972202D01*
X204039482Y-81921908D01*
X204031938Y-81920126D01*
X204032474Y-81917853D01*
X203978688Y-81895571D01*
X203938843Y-81838177D01*
X203932500Y-81799024D01*
X203932500Y-79256902D01*
X204620500Y-79256902D01*
X204620500Y-79493097D01*
X204657446Y-79726368D01*
X204730433Y-79950996D01*
X204813672Y-80114360D01*
X204837657Y-80161433D01*
X204976483Y-80352510D01*
X205143490Y-80519517D01*
X205334567Y-80658343D01*
X205433991Y-80709002D01*
X205545003Y-80765566D01*
X205545005Y-80765566D01*
X205545008Y-80765568D01*
X205665412Y-80804689D01*
X205769631Y-80838553D01*
X206002903Y-80875500D01*
X206002908Y-80875500D01*
X206239097Y-80875500D01*
X206472368Y-80838553D01*
X206696992Y-80765568D01*
X206907433Y-80658343D01*
X207098510Y-80519517D01*
X207265517Y-80352510D01*
X207404343Y-80161433D01*
X207511568Y-79950992D01*
X207584553Y-79726368D01*
X207599612Y-79631289D01*
X207621500Y-79493097D01*
X207621500Y-79256902D01*
X207584553Y-79023631D01*
X207532457Y-78863299D01*
X207511568Y-78799008D01*
X207511566Y-78799005D01*
X207511566Y-78799003D01*
X207420734Y-78620737D01*
X207404343Y-78588567D01*
X207265517Y-78397490D01*
X207098510Y-78230483D01*
X206907433Y-78091657D01*
X206893365Y-78084489D01*
X206696996Y-77984433D01*
X206472368Y-77911446D01*
X206239097Y-77874500D01*
X206239092Y-77874500D01*
X206002908Y-77874500D01*
X206002903Y-77874500D01*
X205769631Y-77911446D01*
X205545003Y-77984433D01*
X205334566Y-78091657D01*
X205274971Y-78134956D01*
X205143490Y-78230483D01*
X205143488Y-78230485D01*
X205143487Y-78230485D01*
X204976485Y-78397487D01*
X204976485Y-78397488D01*
X204976483Y-78397490D01*
X204921775Y-78472789D01*
X204837657Y-78588566D01*
X204730433Y-78799003D01*
X204657446Y-79023631D01*
X204620500Y-79256902D01*
X203932500Y-79256902D01*
X203932500Y-76435500D01*
X203952185Y-76368461D01*
X204004989Y-76322706D01*
X204056500Y-76311500D01*
X210644397Y-76311500D01*
X210711436Y-76331185D01*
X210757191Y-76383989D01*
X210767135Y-76453147D01*
X210738110Y-76516703D01*
X210713447Y-76536578D01*
X210714011Y-76537331D01*
X210591812Y-76628809D01*
X210591809Y-76628812D01*
X210505649Y-76743906D01*
X210505645Y-76743913D01*
X210455403Y-76878620D01*
X210455401Y-76878627D01*
X210449000Y-76938155D01*
X210449000Y-77586000D01*
X211365988Y-77586000D01*
X211333075Y-77643007D01*
X211299000Y-77770174D01*
X211299000Y-77901826D01*
X211333075Y-78028993D01*
X211365988Y-78086000D01*
X210449000Y-78086000D01*
X210449000Y-78733844D01*
X210455401Y-78793372D01*
X210455403Y-78793379D01*
X210505645Y-78928086D01*
X210505649Y-78928093D01*
X210591809Y-79043187D01*
X210591812Y-79043190D01*
X210706906Y-79129350D01*
X210706913Y-79129354D01*
X210841620Y-79179596D01*
X210841627Y-79179598D01*
X210901155Y-79185999D01*
X210901172Y-79186000D01*
X211549000Y-79186000D01*
X211549000Y-78269012D01*
X211606007Y-78301925D01*
X211733174Y-78336000D01*
X211864826Y-78336000D01*
X211991993Y-78301925D01*
X212049000Y-78269012D01*
X212049000Y-79186000D01*
X212696828Y-79186000D01*
X212696844Y-79185999D01*
X212756372Y-79179598D01*
X212756379Y-79179596D01*
X212891086Y-79129354D01*
X212891093Y-79129350D01*
X213006187Y-79043190D01*
X213006190Y-79043187D01*
X213092350Y-78928093D01*
X213092354Y-78928086D01*
X213114529Y-78868632D01*
X213153319Y-78695390D01*
X213153682Y-78694734D01*
X213153642Y-78693984D01*
X213186642Y-78634802D01*
X213856037Y-77965408D01*
X213873075Y-78028993D01*
X213938901Y-78143007D01*
X214031993Y-78236099D01*
X214146007Y-78301925D01*
X214209590Y-78318962D01*
X213577282Y-78951269D01*
X213577282Y-78951270D01*
X213631449Y-78990624D01*
X213820782Y-79087095D01*
X214022870Y-79152757D01*
X214232754Y-79186000D01*
X214445246Y-79186000D01*
X214655127Y-79152757D01*
X214655130Y-79152757D01*
X214857217Y-79087095D01*
X215046554Y-78990622D01*
X215100716Y-78951270D01*
X215100717Y-78951270D01*
X214468408Y-78318962D01*
X214531993Y-78301925D01*
X214646007Y-78236099D01*
X214739099Y-78143007D01*
X214804925Y-78028993D01*
X214821962Y-77965408D01*
X215454270Y-78597717D01*
X215454270Y-78597716D01*
X215493622Y-78543554D01*
X215590095Y-78354217D01*
X215655757Y-78152130D01*
X215655757Y-78152127D01*
X215689000Y-77942246D01*
X215689000Y-77729753D01*
X215655757Y-77519872D01*
X215655757Y-77519869D01*
X215590095Y-77317782D01*
X215493624Y-77128449D01*
X215454270Y-77074282D01*
X215454269Y-77074282D01*
X214821962Y-77706590D01*
X214804925Y-77643007D01*
X214739099Y-77528993D01*
X214646007Y-77435901D01*
X214531993Y-77370075D01*
X214468409Y-77353037D01*
X215100716Y-76720728D01*
X215046547Y-76681373D01*
X215046547Y-76681372D01*
X215037500Y-76676763D01*
X214986706Y-76628788D01*
X214969912Y-76560966D01*
X214992451Y-76494832D01*
X215037508Y-76455793D01*
X215046816Y-76451051D01*
X215150014Y-76376074D01*
X215218786Y-76326109D01*
X215218788Y-76326106D01*
X215218792Y-76326104D01*
X215369104Y-76175792D01*
X215369106Y-76175788D01*
X215369109Y-76175786D01*
X215494048Y-76003820D01*
X215494047Y-76003820D01*
X215494051Y-76003816D01*
X215590557Y-75814412D01*
X215656246Y-75612243D01*
X215689500Y-75402287D01*
X215689500Y-75189713D01*
X215656246Y-74979757D01*
X215590557Y-74777588D01*
X215494051Y-74588184D01*
X215494049Y-74588181D01*
X215494048Y-74588179D01*
X215369109Y-74416213D01*
X215218786Y-74265890D01*
X215046820Y-74140951D01*
X215046115Y-74140591D01*
X215038054Y-74136485D01*
X214987259Y-74088512D01*
X214970463Y-74020692D01*
X214992999Y-73954556D01*
X215038054Y-73915515D01*
X215046816Y-73911051D01*
X215061769Y-73900186D01*
X215222734Y-73783241D01*
X215223364Y-73784108D01*
X215282419Y-73757641D01*
X215299200Y-73756500D01*
X218975218Y-73756500D01*
X219042257Y-73776185D01*
X219062899Y-73792819D01*
X220197181Y-74927101D01*
X220230666Y-74988424D01*
X220233500Y-75014782D01*
X220233500Y-81830217D01*
X220213815Y-81897256D01*
X220197181Y-81917898D01*
X219491399Y-82623681D01*
X219430076Y-82657166D01*
X219403718Y-82660000D01*
X211399768Y-82660000D01*
X211360764Y-82653706D01*
X211297753Y-82632826D01*
X211297751Y-82632825D01*
X211196678Y-82622500D01*
X210623330Y-82622500D01*
X210623312Y-82622501D01*
X210522247Y-82632825D01*
X210358484Y-82687092D01*
X210358481Y-82687093D01*
X210211651Y-82777659D01*
X210110128Y-82879182D01*
X210048805Y-82912666D01*
X210022447Y-82915500D01*
X209156499Y-82915500D01*
X209089460Y-82895815D01*
X209043705Y-82843011D01*
X209032499Y-82791500D01*
X209032499Y-82368129D01*
X209032498Y-82368123D01*
X209032497Y-82368116D01*
X209026091Y-82308517D01*
X208984669Y-82197460D01*
X208975797Y-82173671D01*
X208975793Y-82173664D01*
X208889547Y-82058455D01*
X208889544Y-82058452D01*
X208774335Y-81972206D01*
X208774328Y-81972202D01*
X208639482Y-81921908D01*
X208639483Y-81921908D01*
X208579883Y-81915501D01*
X208579881Y-81915500D01*
X208579873Y-81915500D01*
X208579864Y-81915500D01*
X206484129Y-81915500D01*
X206484123Y-81915501D01*
X206424516Y-81921908D01*
X206289671Y-81972202D01*
X206289664Y-81972206D01*
X206174455Y-82058452D01*
X206174452Y-82058455D01*
X206088206Y-82173664D01*
X206088202Y-82173671D01*
X206037908Y-82308517D01*
X206031501Y-82368116D01*
X206031501Y-82368123D01*
X206031500Y-82368135D01*
X206031500Y-84963870D01*
X206031501Y-84963872D01*
X206037908Y-85023483D01*
X206088202Y-85158328D01*
X206088206Y-85158335D01*
X206174452Y-85273544D01*
X206174455Y-85273547D01*
X206289664Y-85359793D01*
X206289671Y-85359797D01*
X206424517Y-85410091D01*
X206424516Y-85410091D01*
X206431444Y-85410835D01*
X206484127Y-85416500D01*
X208579872Y-85416499D01*
X208639483Y-85410091D01*
X208774331Y-85359796D01*
X208889546Y-85273546D01*
X208975796Y-85158331D01*
X209026091Y-85023483D01*
X209032500Y-84963873D01*
X209032500Y-84540500D01*
X209052185Y-84473461D01*
X209104989Y-84427706D01*
X209156500Y-84416500D01*
X209999155Y-84416500D01*
X210066194Y-84436185D01*
X210111949Y-84488989D01*
X210121893Y-84558147D01*
X210094116Y-84618969D01*
X210094533Y-84619299D01*
X210093190Y-84620996D01*
X210092868Y-84621703D01*
X210091303Y-84623383D01*
X210090052Y-84624965D01*
X209999551Y-84771688D01*
X209999546Y-84771699D01*
X209945319Y-84935347D01*
X209935000Y-85036345D01*
X209935000Y-85135500D01*
X211884999Y-85135500D01*
X211884999Y-85036360D01*
X211884998Y-85036345D01*
X211874680Y-84935347D01*
X211837785Y-84824004D01*
X211835383Y-84754176D01*
X211871115Y-84694134D01*
X211933635Y-84662941D01*
X211955491Y-84661000D01*
X215918500Y-84661000D01*
X215985539Y-84680685D01*
X216031294Y-84733489D01*
X216042500Y-84785000D01*
X216042500Y-90085218D01*
X216022815Y-90152257D01*
X216006181Y-90172899D01*
X210568899Y-95610181D01*
X210507576Y-95643666D01*
X210481218Y-95646500D01*
X201154762Y-95646500D01*
X201087723Y-95626815D01*
X201081877Y-95622818D01*
X200960613Y-95534715D01*
X200960612Y-95534714D01*
X200960610Y-95534713D01*
X200903653Y-95505691D01*
X200778223Y-95441781D01*
X200583535Y-95378523D01*
X200435483Y-95355073D01*
X200372349Y-95325143D01*
X200367201Y-95320281D01*
X198010764Y-92963844D01*
X201732000Y-92963844D01*
X201738401Y-93023372D01*
X201738403Y-93023379D01*
X201788645Y-93158086D01*
X201788649Y-93158093D01*
X201874809Y-93273187D01*
X201874812Y-93273190D01*
X201989906Y-93359350D01*
X201989913Y-93359354D01*
X202124620Y-93409596D01*
X202124627Y-93409598D01*
X202184155Y-93415999D01*
X202184172Y-93416000D01*
X204982000Y-93416000D01*
X205482000Y-93416000D01*
X208279828Y-93416000D01*
X208279844Y-93415999D01*
X208339372Y-93409598D01*
X208339379Y-93409596D01*
X208474086Y-93359354D01*
X208474093Y-93359350D01*
X208589187Y-93273190D01*
X208589190Y-93273187D01*
X208675350Y-93158093D01*
X208675354Y-93158086D01*
X208725596Y-93023379D01*
X208725598Y-93023372D01*
X208731999Y-92963844D01*
X208732000Y-92963827D01*
X208732000Y-90166000D01*
X205482000Y-90166000D01*
X205482000Y-93416000D01*
X204982000Y-93416000D01*
X204982000Y-90166000D01*
X201732000Y-90166000D01*
X201732000Y-92963844D01*
X198010764Y-92963844D01*
X196997819Y-91950899D01*
X196964334Y-91889576D01*
X196961500Y-91863218D01*
X196961500Y-86868155D01*
X201732000Y-86868155D01*
X201732000Y-89666000D01*
X204982000Y-89666000D01*
X205482000Y-89666000D01*
X208732000Y-89666000D01*
X208732000Y-86868172D01*
X208731999Y-86868155D01*
X208725598Y-86808627D01*
X208725596Y-86808620D01*
X208675354Y-86673913D01*
X208675350Y-86673906D01*
X208589190Y-86558812D01*
X208589187Y-86558809D01*
X208474093Y-86472649D01*
X208474086Y-86472645D01*
X208339379Y-86422403D01*
X208339372Y-86422401D01*
X208279844Y-86416000D01*
X205482000Y-86416000D01*
X205482000Y-89666000D01*
X204982000Y-89666000D01*
X204982000Y-86416000D01*
X202184155Y-86416000D01*
X202124627Y-86422401D01*
X202124620Y-86422403D01*
X201989913Y-86472645D01*
X201989906Y-86472649D01*
X201874812Y-86558809D01*
X201874809Y-86558812D01*
X201788649Y-86673906D01*
X201788645Y-86673913D01*
X201738403Y-86808620D01*
X201738401Y-86808627D01*
X201732000Y-86868155D01*
X196961500Y-86868155D01*
X196961500Y-85734654D01*
X199013001Y-85734654D01*
X199023319Y-85835652D01*
X199077546Y-85999300D01*
X199077551Y-85999311D01*
X199168052Y-86146034D01*
X199168055Y-86146038D01*
X199289961Y-86267944D01*
X199289965Y-86267947D01*
X199436688Y-86358448D01*
X199436699Y-86358453D01*
X199600347Y-86412680D01*
X199701352Y-86422999D01*
X199738000Y-86422999D01*
X200238000Y-86422999D01*
X200274640Y-86422999D01*
X200274654Y-86422998D01*
X200375652Y-86412680D01*
X200539300Y-86358453D01*
X200539311Y-86358448D01*
X200686034Y-86267947D01*
X200686038Y-86267944D01*
X200807944Y-86146038D01*
X200807947Y-86146034D01*
X200898448Y-85999311D01*
X200898453Y-85999300D01*
X200952680Y-85835652D01*
X200962999Y-85734654D01*
X209935001Y-85734654D01*
X209945319Y-85835652D01*
X209999546Y-85999300D01*
X209999551Y-85999311D01*
X210090052Y-86146034D01*
X210090055Y-86146038D01*
X210211961Y-86267944D01*
X210211965Y-86267947D01*
X210358688Y-86358448D01*
X210358699Y-86358453D01*
X210522347Y-86412680D01*
X210623352Y-86422999D01*
X210660000Y-86422999D01*
X211160000Y-86422999D01*
X211196640Y-86422999D01*
X211196654Y-86422998D01*
X211297652Y-86412680D01*
X211461300Y-86358453D01*
X211461311Y-86358448D01*
X211608034Y-86267947D01*
X211608038Y-86267944D01*
X211729944Y-86146038D01*
X211729947Y-86146034D01*
X211820448Y-85999311D01*
X211820453Y-85999300D01*
X211874680Y-85835652D01*
X211884999Y-85734654D01*
X211885000Y-85734641D01*
X211885000Y-85635500D01*
X211160000Y-85635500D01*
X211160000Y-86422999D01*
X210660000Y-86422999D01*
X210660000Y-85635500D01*
X209935001Y-85635500D01*
X209935001Y-85734654D01*
X200962999Y-85734654D01*
X200963000Y-85734641D01*
X200963000Y-85635500D01*
X200238000Y-85635500D01*
X200238000Y-86422999D01*
X199738000Y-86422999D01*
X199738000Y-85635500D01*
X199013001Y-85635500D01*
X199013001Y-85734654D01*
X196961500Y-85734654D01*
X196961500Y-85118458D01*
X196961499Y-85118455D01*
X196955015Y-85085860D01*
X196930751Y-84963873D01*
X196923051Y-84925164D01*
X196894697Y-84856713D01*
X196858034Y-84768199D01*
X196847635Y-84743092D01*
X196847633Y-84743088D01*
X196847632Y-84743086D01*
X196844016Y-84737674D01*
X196738139Y-84579217D01*
X196595686Y-84436764D01*
X196595655Y-84436735D01*
X195235479Y-83076559D01*
X195235459Y-83076537D01*
X195091785Y-82932863D01*
X195091781Y-82932860D01*
X194927920Y-82823371D01*
X194927907Y-82823364D01*
X194805784Y-82772780D01*
X194805781Y-82772779D01*
X194798864Y-82769914D01*
X194745836Y-82747949D01*
X194649188Y-82728724D01*
X194644578Y-82727807D01*
X194552544Y-82709500D01*
X194552541Y-82709500D01*
X191116768Y-82709500D01*
X191077764Y-82703206D01*
X191014753Y-82682326D01*
X191014751Y-82682325D01*
X190913678Y-82672000D01*
X190340330Y-82672000D01*
X190340312Y-82672001D01*
X190239247Y-82682325D01*
X190075484Y-82736592D01*
X190075481Y-82736593D01*
X189928648Y-82827161D01*
X189832629Y-82923181D01*
X189771306Y-82956666D01*
X189744948Y-82959500D01*
X187947499Y-82959500D01*
X187880460Y-82939815D01*
X187834705Y-82887011D01*
X187823499Y-82835500D01*
X187823499Y-82368129D01*
X187823498Y-82368123D01*
X187823497Y-82368116D01*
X187817091Y-82308517D01*
X187775669Y-82197460D01*
X187766797Y-82173671D01*
X187766793Y-82173664D01*
X187680547Y-82058455D01*
X187680544Y-82058452D01*
X187565335Y-81972206D01*
X187565328Y-81972202D01*
X187430482Y-81921908D01*
X187430483Y-81921908D01*
X187370883Y-81915501D01*
X187370881Y-81915500D01*
X187370873Y-81915500D01*
X187370864Y-81915500D01*
X185275129Y-81915500D01*
X185275123Y-81915501D01*
X185215516Y-81921908D01*
X185080671Y-81972202D01*
X185080664Y-81972206D01*
X184965455Y-82058452D01*
X184965452Y-82058455D01*
X184879206Y-82173664D01*
X184879202Y-82173671D01*
X184828908Y-82308517D01*
X184822501Y-82368116D01*
X184822501Y-82368123D01*
X184822500Y-82368135D01*
X184822500Y-84963870D01*
X184822501Y-84963872D01*
X184828908Y-85023483D01*
X184879202Y-85158328D01*
X184879206Y-85158335D01*
X184965452Y-85273544D01*
X184965455Y-85273547D01*
X185080664Y-85359793D01*
X185080671Y-85359797D01*
X185215517Y-85410091D01*
X185215516Y-85410091D01*
X185222444Y-85410835D01*
X185275127Y-85416500D01*
X187370872Y-85416499D01*
X187430483Y-85410091D01*
X187565331Y-85359796D01*
X187680546Y-85273546D01*
X187766796Y-85158331D01*
X187817091Y-85023483D01*
X187823500Y-84963873D01*
X187823500Y-84584500D01*
X187843185Y-84517461D01*
X187895989Y-84471706D01*
X187947500Y-84460500D01*
X189721655Y-84460500D01*
X189788694Y-84480185D01*
X189834449Y-84532989D01*
X189844393Y-84602147D01*
X189815368Y-84665703D01*
X189809336Y-84672181D01*
X189807055Y-84674461D01*
X189807052Y-84674465D01*
X189716551Y-84821188D01*
X189716546Y-84821199D01*
X189662319Y-84984847D01*
X189652000Y-85085845D01*
X189652000Y-85185000D01*
X191601999Y-85185000D01*
X191601999Y-85085860D01*
X191601998Y-85085845D01*
X191591680Y-84984847D01*
X191554785Y-84873504D01*
X191552383Y-84803676D01*
X191588115Y-84743634D01*
X191650635Y-84712441D01*
X191672491Y-84710500D01*
X193988218Y-84710500D01*
X194055257Y-84730185D01*
X194075899Y-84746819D01*
X194924181Y-85595101D01*
X194957666Y-85656424D01*
X194960500Y-85682782D01*
X194960500Y-92427541D01*
X194960500Y-92427543D01*
X194960499Y-92427543D01*
X194998947Y-92620829D01*
X194998950Y-92620839D01*
X195074364Y-92802907D01*
X195074371Y-92802920D01*
X195183860Y-92966781D01*
X195183863Y-92966785D01*
X195327537Y-93110459D01*
X195327559Y-93110479D01*
X198952281Y-96735201D01*
X198985766Y-96796524D01*
X198987073Y-96803483D01*
X199010523Y-96951535D01*
X199073781Y-97146223D01*
X199135011Y-97266392D01*
X199144381Y-97284782D01*
X199166715Y-97328613D01*
X199287028Y-97494213D01*
X199431786Y-97638971D01*
X199586749Y-97751556D01*
X199597390Y-97759287D01*
X199713607Y-97818503D01*
X199779776Y-97852218D01*
X199779778Y-97852218D01*
X199779781Y-97852220D01*
X199884137Y-97886127D01*
X199974465Y-97915477D01*
X200075557Y-97931488D01*
X200176648Y-97947500D01*
X200176649Y-97947500D01*
X200381351Y-97947500D01*
X200381352Y-97947500D01*
X200583534Y-97915477D01*
X200778219Y-97852220D01*
X200960610Y-97759287D01*
X201081877Y-97671181D01*
X201147683Y-97647702D01*
X201154762Y-97647500D01*
X211045542Y-97647500D01*
X211060577Y-97644509D01*
X211142188Y-97628275D01*
X211238836Y-97609051D01*
X211321462Y-97574826D01*
X211420914Y-97533632D01*
X211584782Y-97424139D01*
X211724139Y-97284782D01*
X211724140Y-97284780D01*
X211731206Y-97277714D01*
X211731209Y-97277710D01*
X217680778Y-91328141D01*
X217680782Y-91328139D01*
X217820139Y-91188782D01*
X217929632Y-91024914D01*
X218005051Y-90842835D01*
X218023355Y-90750814D01*
X218043500Y-90649543D01*
X218043500Y-84817500D01*
X218063185Y-84750461D01*
X218115989Y-84704706D01*
X218167500Y-84693500D01*
X219935543Y-84693500D01*
X219967228Y-84687196D01*
X220043371Y-84672051D01*
X220128836Y-84655051D01*
X220194019Y-84628051D01*
X220310914Y-84579632D01*
X220474782Y-84470139D01*
X220614139Y-84330782D01*
X220614139Y-84330780D01*
X220624347Y-84320573D01*
X220624348Y-84320570D01*
X222011139Y-82933782D01*
X222082381Y-82827160D01*
X222120632Y-82769914D01*
X222181692Y-82622501D01*
X222196051Y-82587836D01*
X222234500Y-82394541D01*
X222234500Y-82197460D01*
X222234500Y-74450459D01*
X222234500Y-74450456D01*
X222215444Y-74354660D01*
X222214308Y-74348949D01*
X222196051Y-74257164D01*
X222163661Y-74178969D01*
X222152277Y-74151486D01*
X222120635Y-74075093D01*
X222120634Y-74075092D01*
X222120632Y-74075086D01*
X222118797Y-74072340D01*
X222011139Y-73911217D01*
X221868686Y-73768764D01*
X221868655Y-73768735D01*
X220222479Y-72122559D01*
X220222459Y-72122537D01*
X220078785Y-71978863D01*
X220078781Y-71978860D01*
X219914920Y-71869371D01*
X219914911Y-71869366D01*
X219793540Y-71819093D01*
X219793541Y-71819093D01*
X219786165Y-71816038D01*
X219732836Y-71793949D01*
X219614950Y-71770500D01*
X219600703Y-71767666D01*
X219539543Y-71755500D01*
X219539541Y-71755500D01*
X215299200Y-71755500D01*
X215232161Y-71735815D01*
X215219634Y-71726506D01*
X215046820Y-71600951D01*
X214857414Y-71504444D01*
X214857413Y-71504443D01*
X214857412Y-71504443D01*
X214655243Y-71438754D01*
X214655241Y-71438753D01*
X214655240Y-71438753D01*
X214493957Y-71413208D01*
X214445287Y-71405500D01*
X214232713Y-71405500D01*
X214184042Y-71413208D01*
X214022760Y-71438753D01*
X213820585Y-71504444D01*
X213631179Y-71600951D01*
X213459213Y-71725890D01*
X213459209Y-71725894D01*
X213450923Y-71734181D01*
X213389600Y-71767666D01*
X213363242Y-71770500D01*
X212774758Y-71770500D01*
X212707719Y-71750815D01*
X212687077Y-71734181D01*
X212678786Y-71725890D01*
X212506820Y-71600951D01*
X212317414Y-71504444D01*
X212317413Y-71504443D01*
X212317412Y-71504443D01*
X212115243Y-71438754D01*
X212115241Y-71438753D01*
X212115240Y-71438753D01*
X211953957Y-71413208D01*
X211905287Y-71405500D01*
X211692713Y-71405500D01*
X211644042Y-71413208D01*
X211482760Y-71438753D01*
X211280585Y-71504444D01*
X211091179Y-71600951D01*
X210919213Y-71725890D01*
X210919209Y-71725894D01*
X210910923Y-71734181D01*
X210849600Y-71767666D01*
X210823242Y-71770500D01*
X190051845Y-71770500D01*
X189984806Y-71750815D01*
X189939051Y-71698011D01*
X189929107Y-71628853D01*
X189958132Y-71565297D01*
X189964164Y-71558819D01*
X190049944Y-71473038D01*
X190049947Y-71473034D01*
X190140448Y-71326311D01*
X190140453Y-71326300D01*
X190194680Y-71162652D01*
X190204999Y-71061654D01*
X190205000Y-71061641D01*
X190205000Y-70962500D01*
X188255001Y-70962500D01*
X188255001Y-71061654D01*
X188265319Y-71162652D01*
X188319546Y-71326300D01*
X188319551Y-71326311D01*
X188410052Y-71473034D01*
X188410055Y-71473038D01*
X188495836Y-71558819D01*
X188529321Y-71620142D01*
X188524337Y-71689834D01*
X188482465Y-71745767D01*
X188417001Y-71770184D01*
X188408155Y-71770500D01*
X156132520Y-71770500D01*
X156065481Y-71750815D01*
X156019726Y-71698011D01*
X156009782Y-71628853D01*
X156038807Y-71565297D01*
X156097585Y-71527523D01*
X156108329Y-71524883D01*
X156148231Y-71516945D01*
X156189497Y-71508737D01*
X156335179Y-71448394D01*
X156349608Y-71438753D01*
X156466875Y-71360398D01*
X156533553Y-71339520D01*
X156535766Y-71339500D01*
X181396331Y-71339500D01*
X181396347Y-71339501D01*
X181403943Y-71339501D01*
X181562054Y-71339501D01*
X181562057Y-71339501D01*
X181714785Y-71298577D01*
X181764904Y-71269639D01*
X181851716Y-71219520D01*
X181963520Y-71107716D01*
X181963520Y-71107714D01*
X181973728Y-71097507D01*
X181973729Y-71097504D01*
X184630520Y-68440716D01*
X184709577Y-68303784D01*
X184750501Y-68151057D01*
X184750501Y-67992942D01*
X184750501Y-67985347D01*
X184750500Y-67985329D01*
X184750500Y-67741718D01*
X184770185Y-67674679D01*
X184818207Y-67631233D01*
X184857815Y-67611052D01*
X184857815Y-67611051D01*
X184857816Y-67611051D01*
X184949193Y-67544661D01*
X185029786Y-67486109D01*
X185029788Y-67486106D01*
X185029792Y-67486104D01*
X185180104Y-67335792D01*
X185180106Y-67335788D01*
X185180109Y-67335786D01*
X185305048Y-67163820D01*
X185305047Y-67163820D01*
X185305051Y-67163816D01*
X185309514Y-67155054D01*
X185357488Y-67104259D01*
X185425308Y-67087463D01*
X185491444Y-67109999D01*
X185530486Y-67155056D01*
X185534951Y-67163820D01*
X185659890Y-67335786D01*
X185810213Y-67486109D01*
X185982179Y-67611048D01*
X185982181Y-67611049D01*
X185982184Y-67611051D01*
X186171588Y-67707557D01*
X186373757Y-67773246D01*
X186583713Y-67806500D01*
X186583714Y-67806500D01*
X186796286Y-67806500D01*
X186796287Y-67806500D01*
X187006243Y-67773246D01*
X187208412Y-67707557D01*
X187397816Y-67611051D01*
X187478723Y-67552269D01*
X187569786Y-67486109D01*
X187569788Y-67486106D01*
X187569792Y-67486104D01*
X187720104Y-67335792D01*
X187720106Y-67335788D01*
X187720109Y-67335786D01*
X187845048Y-67163820D01*
X187845047Y-67163820D01*
X187845051Y-67163816D01*
X187849514Y-67155054D01*
X187897488Y-67104259D01*
X187965308Y-67087463D01*
X188031444Y-67109999D01*
X188070486Y-67155056D01*
X188074951Y-67163820D01*
X188199890Y-67335786D01*
X188199896Y-67335792D01*
X188350208Y-67486104D01*
X188522184Y-67611051D01*
X188522188Y-67611053D01*
X188526126Y-67613914D01*
X188525146Y-67615262D01*
X188567160Y-67661690D01*
X188579500Y-67715617D01*
X188579500Y-68006792D01*
X188559815Y-68073831D01*
X188536619Y-68099415D01*
X188536757Y-68099553D01*
X188533941Y-68102368D01*
X188532407Y-68104061D01*
X188531652Y-68104657D01*
X188409659Y-68226651D01*
X188319093Y-68373481D01*
X188319091Y-68373486D01*
X188301990Y-68425094D01*
X188264826Y-68537247D01*
X188264826Y-68537248D01*
X188264825Y-68537248D01*
X188254500Y-68638315D01*
X188254500Y-69336669D01*
X188254501Y-69336687D01*
X188264825Y-69437752D01*
X188301109Y-69547249D01*
X188319092Y-69601516D01*
X188409659Y-69748349D01*
X188409661Y-69748351D01*
X188423982Y-69762672D01*
X188457467Y-69823995D01*
X188452483Y-69893687D01*
X188423985Y-69938032D01*
X188410052Y-69951965D01*
X188319551Y-70098688D01*
X188319546Y-70098699D01*
X188265319Y-70262347D01*
X188255000Y-70363345D01*
X188255000Y-70462500D01*
X190204999Y-70462500D01*
X190204999Y-70363360D01*
X190204998Y-70363345D01*
X190194680Y-70262347D01*
X190140453Y-70098699D01*
X190140448Y-70098688D01*
X190049947Y-69951965D01*
X190049944Y-69951961D01*
X190036017Y-69938034D01*
X190002532Y-69876711D01*
X190007516Y-69807019D01*
X190036017Y-69762672D01*
X190050340Y-69748350D01*
X190140908Y-69601516D01*
X190195174Y-69437753D01*
X190205500Y-69336677D01*
X190205499Y-68638324D01*
X190197776Y-68562724D01*
X190195174Y-68537247D01*
X190140908Y-68373484D01*
X190050340Y-68226650D01*
X189928350Y-68104660D01*
X189928349Y-68104659D01*
X189928347Y-68104657D01*
X189927593Y-68104061D01*
X189927209Y-68103519D01*
X189923243Y-68099553D01*
X189923920Y-68098875D01*
X189887214Y-68047041D01*
X189880500Y-68006792D01*
X189880500Y-67715617D01*
X189900185Y-67648578D01*
X189934592Y-67614902D01*
X189933874Y-67613914D01*
X189937811Y-67611053D01*
X189937816Y-67611051D01*
X190109792Y-67486104D01*
X190260104Y-67335792D01*
X190260106Y-67335788D01*
X190260109Y-67335786D01*
X190345890Y-67217717D01*
X190385051Y-67163816D01*
X190389793Y-67154508D01*
X190437763Y-67103711D01*
X190505583Y-67086911D01*
X190571719Y-67109445D01*
X190610763Y-67154500D01*
X190615373Y-67163547D01*
X190654728Y-67217716D01*
X191287037Y-66585408D01*
X191304075Y-66648993D01*
X191369901Y-66763007D01*
X191462993Y-66856099D01*
X191577007Y-66921925D01*
X191640590Y-66938962D01*
X191008282Y-67571269D01*
X191008282Y-67571270D01*
X191062449Y-67610624D01*
X191251782Y-67707095D01*
X191453870Y-67772757D01*
X191663754Y-67806000D01*
X191876246Y-67806000D01*
X192086127Y-67772757D01*
X192086130Y-67772757D01*
X192288217Y-67707095D01*
X192477554Y-67610622D01*
X192531716Y-67571270D01*
X192531717Y-67571270D01*
X191899408Y-66938962D01*
X191962993Y-66921925D01*
X192077007Y-66856099D01*
X192170099Y-66763007D01*
X192235925Y-66648993D01*
X192252962Y-66585409D01*
X192885270Y-67217717D01*
X192885270Y-67217716D01*
X192924622Y-67163554D01*
X193021095Y-66974217D01*
X193086757Y-66772130D01*
X193086757Y-66772127D01*
X193120000Y-66562246D01*
X193120000Y-66349753D01*
X193086757Y-66139872D01*
X193086757Y-66139869D01*
X193021095Y-65937782D01*
X192924624Y-65748449D01*
X192885270Y-65694282D01*
X192885269Y-65694282D01*
X192252962Y-66326590D01*
X192235925Y-66263007D01*
X192170099Y-66148993D01*
X192077007Y-66055901D01*
X191962993Y-65990075D01*
X191899409Y-65973037D01*
X192535701Y-65336743D01*
X192546937Y-65283254D01*
X192595988Y-65233496D01*
X192617188Y-65224194D01*
X192689119Y-65200358D01*
X192689124Y-65200356D01*
X192838345Y-65108315D01*
X192962315Y-64984345D01*
X193054356Y-64835124D01*
X193054358Y-64835119D01*
X193109505Y-64668697D01*
X193109506Y-64668690D01*
X193119999Y-64565986D01*
X193120000Y-64565973D01*
X193120000Y-64166000D01*
X192203012Y-64166000D01*
X192235925Y-64108993D01*
X192270000Y-63981826D01*
X192270000Y-63850174D01*
X192235925Y-63723007D01*
X192203012Y-63666000D01*
X193119999Y-63666000D01*
X193119999Y-63266028D01*
X193119998Y-63266013D01*
X193109505Y-63163302D01*
X193054358Y-62996880D01*
X193054356Y-62996875D01*
X192962315Y-62847654D01*
X192838345Y-62723684D01*
X192689124Y-62631643D01*
X192689119Y-62631641D01*
X192522697Y-62576494D01*
X192522690Y-62576493D01*
X192419986Y-62566000D01*
X192020000Y-62566000D01*
X192020000Y-63482988D01*
X191962993Y-63450075D01*
X191835826Y-63416000D01*
X191704174Y-63416000D01*
X191577007Y-63450075D01*
X191520000Y-63482988D01*
X191520000Y-62566000D01*
X191120028Y-62566000D01*
X191120012Y-62566001D01*
X191017302Y-62576494D01*
X190850880Y-62631641D01*
X190850875Y-62631643D01*
X190701654Y-62723684D01*
X190577684Y-62847654D01*
X190485643Y-62996875D01*
X190485641Y-62996881D01*
X190482046Y-63007729D01*
X190442270Y-63065171D01*
X190377753Y-63091991D01*
X190308977Y-63079672D01*
X190264020Y-63041598D01*
X190260105Y-63036209D01*
X190109786Y-62885890D01*
X189937820Y-62760951D01*
X189748414Y-62664444D01*
X189748413Y-62664443D01*
X189748412Y-62664443D01*
X189546243Y-62598754D01*
X189546241Y-62598753D01*
X189546240Y-62598753D01*
X189384957Y-62573208D01*
X189336287Y-62565500D01*
X189123713Y-62565500D01*
X189075042Y-62573208D01*
X188913760Y-62598753D01*
X188711585Y-62664444D01*
X188522179Y-62760951D01*
X188350213Y-62885890D01*
X188199890Y-63036213D01*
X188074949Y-63208182D01*
X188070484Y-63216946D01*
X188022509Y-63267742D01*
X187954688Y-63284536D01*
X187888553Y-63261998D01*
X187849516Y-63216946D01*
X187845050Y-63208182D01*
X187720109Y-63036213D01*
X187569786Y-62885890D01*
X187397819Y-62760951D01*
X187397818Y-62760950D01*
X187397816Y-62760949D01*
X187287390Y-62704684D01*
X187221121Y-62670918D01*
X187187972Y-62646315D01*
X187177550Y-62635460D01*
X187170520Y-62623284D01*
X187058716Y-62511480D01*
X187058713Y-62511478D01*
X185907590Y-61360355D01*
X185907588Y-61360352D01*
X185788717Y-61241481D01*
X185788716Y-61241480D01*
X185701904Y-61191360D01*
X185701904Y-61191359D01*
X185701902Y-61191359D01*
X185688959Y-61183886D01*
X185640745Y-61133321D01*
X185627521Y-61064714D01*
X185653489Y-60999849D01*
X185710403Y-60959320D01*
X185750960Y-60952500D01*
X223922500Y-60952500D01*
X223989539Y-60972185D01*
X224035294Y-61024989D01*
X224046500Y-61076500D01*
X224046500Y-116850500D01*
X224026815Y-116917539D01*
X223974011Y-116963294D01*
X223922500Y-116974500D01*
X145277500Y-116974500D01*
X145210461Y-116954815D01*
X145164706Y-116902011D01*
X145153500Y-116850500D01*
X145153500Y-113305311D01*
X166813500Y-113305311D01*
X166813500Y-113547888D01*
X166845161Y-113788385D01*
X166907947Y-114022704D01*
X167000773Y-114246805D01*
X167000776Y-114246812D01*
X167122064Y-114456889D01*
X167122066Y-114456892D01*
X167122067Y-114456893D01*
X167269733Y-114649336D01*
X167269739Y-114649343D01*
X167441256Y-114820860D01*
X167441262Y-114820865D01*
X167633711Y-114968536D01*
X167843788Y-115089824D01*
X168067900Y-115182654D01*
X168302211Y-115245438D01*
X168482586Y-115269184D01*
X168542711Y-115277100D01*
X168542712Y-115277100D01*
X168785289Y-115277100D01*
X168833388Y-115270767D01*
X169025789Y-115245438D01*
X169260100Y-115182654D01*
X169484212Y-115089824D01*
X169694289Y-114968536D01*
X169886738Y-114820865D01*
X170058265Y-114649338D01*
X170205936Y-114456889D01*
X170327224Y-114246812D01*
X170420054Y-114022700D01*
X170482838Y-113788389D01*
X170514500Y-113547888D01*
X170514500Y-113305312D01*
X170514500Y-113305311D01*
X174759300Y-113305311D01*
X174759300Y-113547888D01*
X174790961Y-113788385D01*
X174853747Y-114022704D01*
X174946573Y-114246805D01*
X174946576Y-114246812D01*
X175067864Y-114456889D01*
X175067866Y-114456892D01*
X175067867Y-114456893D01*
X175215533Y-114649336D01*
X175215539Y-114649343D01*
X175387056Y-114820860D01*
X175387062Y-114820865D01*
X175579511Y-114968536D01*
X175789588Y-115089824D01*
X176013700Y-115182654D01*
X176248011Y-115245438D01*
X176428386Y-115269184D01*
X176488511Y-115277100D01*
X176488512Y-115277100D01*
X176731089Y-115277100D01*
X176779188Y-115270767D01*
X176971589Y-115245438D01*
X177205900Y-115182654D01*
X177430012Y-115089824D01*
X177640089Y-114968536D01*
X177832538Y-114820865D01*
X178004065Y-114649338D01*
X178151736Y-114456889D01*
X178273024Y-114246812D01*
X178365854Y-114022700D01*
X178428638Y-113788389D01*
X178460300Y-113547888D01*
X178460300Y-113305312D01*
X178428638Y-113064811D01*
X178365854Y-112830500D01*
X178273024Y-112606388D01*
X178151736Y-112396311D01*
X178004065Y-112203862D01*
X178004060Y-112203856D01*
X177832543Y-112032339D01*
X177832536Y-112032333D01*
X177640093Y-111884667D01*
X177640092Y-111884666D01*
X177640089Y-111884664D01*
X177430012Y-111763376D01*
X177430005Y-111763373D01*
X177205904Y-111670547D01*
X176971585Y-111607761D01*
X176731089Y-111576100D01*
X176731088Y-111576100D01*
X176488512Y-111576100D01*
X176488511Y-111576100D01*
X176248014Y-111607761D01*
X176013695Y-111670547D01*
X175789594Y-111763373D01*
X175789585Y-111763377D01*
X175579506Y-111884667D01*
X175387063Y-112032333D01*
X175387056Y-112032339D01*
X175215539Y-112203856D01*
X175215533Y-112203863D01*
X175067867Y-112396306D01*
X174946577Y-112606385D01*
X174946573Y-112606394D01*
X174853747Y-112830495D01*
X174790961Y-113064814D01*
X174759300Y-113305311D01*
X170514500Y-113305311D01*
X170482838Y-113064811D01*
X170420054Y-112830500D01*
X170327224Y-112606388D01*
X170205936Y-112396311D01*
X170058265Y-112203862D01*
X170058260Y-112203856D01*
X169886743Y-112032339D01*
X169886736Y-112032333D01*
X169694293Y-111884667D01*
X169694292Y-111884666D01*
X169694289Y-111884664D01*
X169484212Y-111763376D01*
X169484205Y-111763373D01*
X169260104Y-111670547D01*
X169025785Y-111607761D01*
X168785289Y-111576100D01*
X168785288Y-111576100D01*
X168542712Y-111576100D01*
X168542711Y-111576100D01*
X168302214Y-111607761D01*
X168067895Y-111670547D01*
X167843794Y-111763373D01*
X167843785Y-111763377D01*
X167633706Y-111884667D01*
X167441263Y-112032333D01*
X167441256Y-112032339D01*
X167269739Y-112203856D01*
X167269733Y-112203863D01*
X167122067Y-112396306D01*
X167000777Y-112606385D01*
X167000773Y-112606394D01*
X166907947Y-112830495D01*
X166845161Y-113064814D01*
X166813500Y-113305311D01*
X145153500Y-113305311D01*
X145153500Y-61076500D01*
X145173185Y-61009461D01*
X145225989Y-60963706D01*
X145277500Y-60952500D01*
X158038038Y-60952500D01*
X158105077Y-60972185D01*
G37*
%TD.AperFunction*%
%TA.AperFunction,Conductor*%
G36*
X150974075Y-92775993D02*
G01*
X151039901Y-92890007D01*
X151132993Y-92983099D01*
X151247007Y-93048925D01*
X151310590Y-93065962D01*
X150640370Y-93736181D01*
X150579047Y-93769666D01*
X150552698Y-93772500D01*
X150542134Y-93772500D01*
X150542123Y-93772501D01*
X150482516Y-93778908D01*
X150347671Y-93829202D01*
X150347664Y-93829206D01*
X150232455Y-93915452D01*
X150232452Y-93915455D01*
X150146206Y-94030664D01*
X150146204Y-94030668D01*
X150146204Y-94030669D01*
X150142039Y-94041834D01*
X150128771Y-94059558D01*
X150119572Y-94079703D01*
X150108241Y-94086984D01*
X150100171Y-94097766D01*
X150079422Y-94105504D01*
X150060794Y-94117477D01*
X150038878Y-94120628D01*
X150034707Y-94122184D01*
X150025859Y-94122500D01*
X149860200Y-94122500D01*
X149793161Y-94102815D01*
X149780634Y-94093506D01*
X149607817Y-93967949D01*
X149598504Y-93963204D01*
X149547707Y-93915230D01*
X149530912Y-93847409D01*
X149553449Y-93781274D01*
X149598507Y-93742232D01*
X149607555Y-93737622D01*
X149661716Y-93698270D01*
X149661717Y-93698270D01*
X149029408Y-93065962D01*
X149092993Y-93048925D01*
X149207007Y-92983099D01*
X149300099Y-92890007D01*
X149365925Y-92775993D01*
X149382962Y-92712408D01*
X150015270Y-93344717D01*
X150015270Y-93344716D01*
X150054622Y-93290554D01*
X150059514Y-93280954D01*
X150107488Y-93230157D01*
X150175308Y-93213361D01*
X150241444Y-93235897D01*
X150280486Y-93280954D01*
X150285375Y-93290550D01*
X150324728Y-93344716D01*
X150957037Y-92712408D01*
X150974075Y-92775993D01*
G37*
%TD.AperFunction*%
%TA.AperFunction,Conductor*%
G36*
X150241444Y-90696999D02*
G01*
X150280486Y-90742056D01*
X150284951Y-90750820D01*
X150409890Y-90922786D01*
X150560213Y-91073109D01*
X150732179Y-91198048D01*
X150732181Y-91198049D01*
X150732184Y-91198051D01*
X150741493Y-91202794D01*
X150792290Y-91250766D01*
X150809087Y-91318587D01*
X150786552Y-91384722D01*
X150741505Y-91423760D01*
X150732446Y-91428376D01*
X150732440Y-91428380D01*
X150678282Y-91467727D01*
X150678282Y-91467728D01*
X151310591Y-92100037D01*
X151247007Y-92117075D01*
X151132993Y-92182901D01*
X151039901Y-92275993D01*
X150974075Y-92390007D01*
X150957037Y-92453591D01*
X150324728Y-91821282D01*
X150324727Y-91821282D01*
X150285380Y-91875440D01*
X150280483Y-91885051D01*
X150232506Y-91935845D01*
X150164684Y-91952638D01*
X150098550Y-91930098D01*
X150059516Y-91885048D01*
X150054626Y-91875452D01*
X150015270Y-91821282D01*
X150015269Y-91821282D01*
X149382962Y-92453590D01*
X149365925Y-92390007D01*
X149300099Y-92275993D01*
X149207007Y-92182901D01*
X149092993Y-92117075D01*
X149029409Y-92100037D01*
X149661716Y-91467728D01*
X149607547Y-91428373D01*
X149607547Y-91428372D01*
X149598500Y-91423763D01*
X149547706Y-91375788D01*
X149530912Y-91307966D01*
X149553451Y-91241832D01*
X149598508Y-91202793D01*
X149607816Y-91198051D01*
X149687007Y-91140515D01*
X149779786Y-91073109D01*
X149779788Y-91073106D01*
X149779792Y-91073104D01*
X149930104Y-90922792D01*
X149930106Y-90922788D01*
X149930109Y-90922786D01*
X150055048Y-90750820D01*
X150055047Y-90750820D01*
X150055051Y-90750816D01*
X150059514Y-90742054D01*
X150107488Y-90691259D01*
X150175308Y-90674463D01*
X150241444Y-90696999D01*
G37*
%TD.AperFunction*%
%TA.AperFunction,Conductor*%
G36*
X176639176Y-78807344D02*
G01*
X176651521Y-78808227D01*
X176670102Y-78822137D01*
X176691043Y-78832154D01*
X176697548Y-78842683D01*
X176707454Y-78850099D01*
X176715565Y-78871847D01*
X176727766Y-78891595D01*
X176727546Y-78903967D01*
X176731871Y-78915563D01*
X176726936Y-78938245D01*
X176726524Y-78961453D01*
X176718021Y-78979228D01*
X176717019Y-78983836D01*
X176711294Y-78993292D01*
X176709613Y-78995808D01*
X176709602Y-78995827D01*
X176649264Y-79141498D01*
X176649261Y-79141508D01*
X176618361Y-79296850D01*
X176585976Y-79358761D01*
X176584425Y-79360339D01*
X166538584Y-89406181D01*
X166477261Y-89439666D01*
X166450903Y-89442500D01*
X152725719Y-89442500D01*
X152658680Y-89422815D01*
X152615235Y-89374795D01*
X152595052Y-89335185D01*
X152595051Y-89335184D01*
X152470109Y-89163213D01*
X152319786Y-89012890D01*
X152147820Y-88887951D01*
X152147115Y-88887591D01*
X152139054Y-88883485D01*
X152088259Y-88835512D01*
X152071463Y-88767692D01*
X152093999Y-88701556D01*
X152139054Y-88662515D01*
X152147816Y-88658051D01*
X152169789Y-88642086D01*
X152319786Y-88533109D01*
X152319788Y-88533106D01*
X152319792Y-88533104D01*
X152470104Y-88382792D01*
X152470106Y-88382788D01*
X152470109Y-88382786D01*
X152595048Y-88210820D01*
X152595047Y-88210820D01*
X152595051Y-88210816D01*
X152691557Y-88021412D01*
X152757246Y-87819243D01*
X152790500Y-87609287D01*
X152790500Y-87396713D01*
X152757246Y-87186757D01*
X152691557Y-86984588D01*
X152595051Y-86795184D01*
X152595049Y-86795181D01*
X152595048Y-86795179D01*
X152470109Y-86623213D01*
X152319786Y-86472890D01*
X152147820Y-86347951D01*
X152147115Y-86347591D01*
X152139054Y-86343485D01*
X152088259Y-86295512D01*
X152071463Y-86227692D01*
X152093999Y-86161556D01*
X152139054Y-86122515D01*
X152147816Y-86118051D01*
X152169789Y-86102086D01*
X152319786Y-85993109D01*
X152319788Y-85993106D01*
X152319792Y-85993104D01*
X152470104Y-85842792D01*
X152470106Y-85842788D01*
X152470109Y-85842786D01*
X152551213Y-85731154D01*
X152595051Y-85670816D01*
X152595349Y-85670230D01*
X152615235Y-85631205D01*
X152663209Y-85580409D01*
X152725719Y-85563500D01*
X169458331Y-85563500D01*
X169458347Y-85563501D01*
X169465943Y-85563501D01*
X169624054Y-85563501D01*
X169624057Y-85563501D01*
X169776785Y-85522577D01*
X169826904Y-85493639D01*
X169913716Y-85443520D01*
X170025520Y-85331716D01*
X170025520Y-85331714D01*
X170035728Y-85321507D01*
X170035729Y-85321504D01*
X176520508Y-78836726D01*
X176540878Y-78825603D01*
X176558689Y-78810717D01*
X176570967Y-78809173D01*
X176581829Y-78803243D01*
X176604981Y-78804898D01*
X176628013Y-78802004D01*
X176639176Y-78807344D01*
G37*
%TD.AperFunction*%
%TA.AperFunction,Conductor*%
G36*
X150185444Y-75964999D02*
G01*
X150224486Y-76010056D01*
X150228951Y-76018820D01*
X150353890Y-76190786D01*
X150467818Y-76304714D01*
X150501303Y-76366037D01*
X150496319Y-76435729D01*
X150454447Y-76491662D01*
X150423471Y-76508577D01*
X150291912Y-76557646D01*
X150291906Y-76557649D01*
X150176812Y-76643809D01*
X150176809Y-76643812D01*
X150090649Y-76758906D01*
X150090645Y-76758913D01*
X150040403Y-76893619D01*
X150040401Y-76893626D01*
X150031497Y-76976444D01*
X150028434Y-76976114D01*
X150029336Y-76993094D01*
X149996356Y-77052195D01*
X149326962Y-77721590D01*
X149309925Y-77658007D01*
X149244099Y-77543993D01*
X149151007Y-77450901D01*
X149036993Y-77385075D01*
X148973409Y-77368037D01*
X149605716Y-76735728D01*
X149551547Y-76696373D01*
X149551547Y-76696372D01*
X149542500Y-76691763D01*
X149491706Y-76643788D01*
X149474912Y-76575966D01*
X149497451Y-76509832D01*
X149542508Y-76470793D01*
X149551816Y-76466051D01*
X149631007Y-76408515D01*
X149723786Y-76341109D01*
X149723788Y-76341106D01*
X149723792Y-76341104D01*
X149874104Y-76190792D01*
X149874106Y-76190788D01*
X149874109Y-76190786D01*
X149999048Y-76018820D01*
X149999047Y-76018820D01*
X149999051Y-76018816D01*
X150003514Y-76010054D01*
X150051488Y-75959259D01*
X150119308Y-75942463D01*
X150185444Y-75964999D01*
G37*
%TD.AperFunction*%
%TA.AperFunction,Conductor*%
G36*
X213140444Y-75949999D02*
G01*
X213179486Y-75995056D01*
X213183951Y-76003820D01*
X213308890Y-76175786D01*
X213459213Y-76326109D01*
X213631179Y-76451048D01*
X213631181Y-76451049D01*
X213631184Y-76451051D01*
X213640493Y-76455794D01*
X213691290Y-76503766D01*
X213708087Y-76571587D01*
X213685552Y-76637722D01*
X213640505Y-76676760D01*
X213631446Y-76681376D01*
X213631440Y-76681380D01*
X213577282Y-76720727D01*
X213577282Y-76720728D01*
X214209591Y-77353037D01*
X214146007Y-77370075D01*
X214031993Y-77435901D01*
X213938901Y-77528993D01*
X213873075Y-77643007D01*
X213856037Y-77706591D01*
X213186642Y-77037196D01*
X213153157Y-76975873D01*
X213154077Y-76961166D01*
X213151501Y-76961444D01*
X213142596Y-76878619D01*
X213092354Y-76743913D01*
X213092350Y-76743906D01*
X213006190Y-76628812D01*
X213006187Y-76628809D01*
X212891093Y-76542649D01*
X212891088Y-76542646D01*
X212759528Y-76493577D01*
X212703595Y-76451705D01*
X212679178Y-76386241D01*
X212694030Y-76317968D01*
X212715175Y-76289720D01*
X212829104Y-76175792D01*
X212954051Y-76003816D01*
X212958514Y-75995054D01*
X213006488Y-75944259D01*
X213074308Y-75927463D01*
X213140444Y-75949999D01*
G37*
%TD.AperFunction*%
%TA.AperFunction,Conductor*%
G36*
X181529427Y-62342185D02*
G01*
X181575182Y-62394989D01*
X181585126Y-62464147D01*
X181556101Y-62527703D01*
X181497323Y-62565477D01*
X181481787Y-62568972D01*
X181457002Y-62572898D01*
X181293760Y-62598753D01*
X181091585Y-62664444D01*
X180902179Y-62760951D01*
X180730213Y-62885890D01*
X180579890Y-63036213D01*
X180454951Y-63208179D01*
X180358444Y-63397585D01*
X180292753Y-63599760D01*
X180262509Y-63790713D01*
X180259500Y-63809713D01*
X180259500Y-64022287D01*
X180261092Y-64032339D01*
X180289744Y-64213243D01*
X180292754Y-64232243D01*
X180352269Y-64415412D01*
X180358444Y-64434414D01*
X180454951Y-64623820D01*
X180579890Y-64795786D01*
X180730213Y-64946109D01*
X180902182Y-65071050D01*
X180910946Y-65075516D01*
X180961742Y-65123491D01*
X180978536Y-65191312D01*
X180955998Y-65257447D01*
X180910946Y-65296484D01*
X180902182Y-65300949D01*
X180730213Y-65425890D01*
X180579890Y-65576213D01*
X180454951Y-65748179D01*
X180358444Y-65937585D01*
X180292753Y-66139760D01*
X180259500Y-66349713D01*
X180259500Y-66562286D01*
X180292735Y-66772127D01*
X180292754Y-66772243D01*
X180356532Y-66968532D01*
X180358444Y-66974414D01*
X180454951Y-67163820D01*
X180579890Y-67335786D01*
X180730213Y-67486109D01*
X180902184Y-67611051D01*
X180902184Y-67611052D01*
X180941793Y-67631233D01*
X180952856Y-67641681D01*
X180966703Y-67648005D01*
X180977744Y-67665185D01*
X180992590Y-67679206D01*
X180996831Y-67694886D01*
X181004477Y-67706783D01*
X181009500Y-67741718D01*
X181009500Y-67771903D01*
X180989815Y-67838942D01*
X180973181Y-67859584D01*
X179873584Y-68959181D01*
X179812261Y-68992666D01*
X179785903Y-68995500D01*
X153718924Y-68995500D01*
X153651885Y-68975815D01*
X153631243Y-68959181D01*
X152936819Y-68264757D01*
X152903334Y-68203434D01*
X152900500Y-68177076D01*
X152900500Y-67722718D01*
X152920185Y-67655679D01*
X152968207Y-67612233D01*
X153007815Y-67592052D01*
X153007815Y-67592051D01*
X153007816Y-67592051D01*
X153153641Y-67486104D01*
X153179786Y-67467109D01*
X153179788Y-67467106D01*
X153179792Y-67467104D01*
X153330104Y-67316792D01*
X153330106Y-67316788D01*
X153330109Y-67316786D01*
X153455048Y-67144820D01*
X153455047Y-67144820D01*
X153455051Y-67144816D01*
X153459514Y-67136054D01*
X153507488Y-67085259D01*
X153575308Y-67068463D01*
X153641444Y-67090999D01*
X153680486Y-67136056D01*
X153684951Y-67144820D01*
X153809890Y-67316786D01*
X153960213Y-67467109D01*
X154132179Y-67592048D01*
X154132181Y-67592049D01*
X154132184Y-67592051D01*
X154321588Y-67688557D01*
X154523757Y-67754246D01*
X154733713Y-67787500D01*
X154733714Y-67787500D01*
X154946286Y-67787500D01*
X154946287Y-67787500D01*
X155156243Y-67754246D01*
X155358412Y-67688557D01*
X155547816Y-67592051D01*
X155693641Y-67486104D01*
X155719786Y-67467109D01*
X155719788Y-67467106D01*
X155719792Y-67467104D01*
X155870104Y-67316792D01*
X155870106Y-67316788D01*
X155870109Y-67316786D01*
X155995048Y-67144820D01*
X155995047Y-67144820D01*
X155995051Y-67144816D01*
X155999514Y-67136054D01*
X156047488Y-67085259D01*
X156115308Y-67068463D01*
X156181444Y-67090999D01*
X156220486Y-67136056D01*
X156224951Y-67144820D01*
X156349890Y-67316786D01*
X156500213Y-67467109D01*
X156672179Y-67592048D01*
X156672181Y-67592049D01*
X156672184Y-67592051D01*
X156861588Y-67688557D01*
X157063757Y-67754246D01*
X157273713Y-67787500D01*
X157273714Y-67787500D01*
X157486286Y-67787500D01*
X157486287Y-67787500D01*
X157696243Y-67754246D01*
X157898412Y-67688557D01*
X158087816Y-67592051D01*
X158233641Y-67486104D01*
X158259786Y-67467109D01*
X158259788Y-67467106D01*
X158259792Y-67467104D01*
X158410104Y-67316792D01*
X158410106Y-67316788D01*
X158410109Y-67316786D01*
X158535048Y-67144820D01*
X158535047Y-67144820D01*
X158535051Y-67144816D01*
X158539514Y-67136054D01*
X158587488Y-67085259D01*
X158655308Y-67068463D01*
X158721444Y-67090999D01*
X158760486Y-67136056D01*
X158764951Y-67144820D01*
X158889890Y-67316786D01*
X159040213Y-67467109D01*
X159212179Y-67592048D01*
X159212181Y-67592049D01*
X159212184Y-67592051D01*
X159401588Y-67688557D01*
X159603757Y-67754246D01*
X159813713Y-67787500D01*
X159813714Y-67787500D01*
X160026286Y-67787500D01*
X160026287Y-67787500D01*
X160236243Y-67754246D01*
X160438412Y-67688557D01*
X160627816Y-67592051D01*
X160773641Y-67486104D01*
X160799786Y-67467109D01*
X160799788Y-67467106D01*
X160799792Y-67467104D01*
X160950104Y-67316792D01*
X160950106Y-67316788D01*
X160950109Y-67316786D01*
X161035890Y-67198717D01*
X161075051Y-67144816D01*
X161079793Y-67135508D01*
X161127763Y-67084711D01*
X161195583Y-67067911D01*
X161261719Y-67090445D01*
X161300763Y-67135500D01*
X161305373Y-67144547D01*
X161344728Y-67198716D01*
X161977037Y-66566408D01*
X161994075Y-66629993D01*
X162059901Y-66744007D01*
X162152993Y-66837099D01*
X162267007Y-66902925D01*
X162330590Y-66919962D01*
X161698282Y-67552269D01*
X161698282Y-67552270D01*
X161752449Y-67591624D01*
X161941782Y-67688095D01*
X162143870Y-67753757D01*
X162353754Y-67787000D01*
X162566246Y-67787000D01*
X162776127Y-67753757D01*
X162776130Y-67753757D01*
X162978217Y-67688095D01*
X163167554Y-67591622D01*
X163221716Y-67552270D01*
X163221717Y-67552270D01*
X162589408Y-66919962D01*
X162652993Y-66902925D01*
X162767007Y-66837099D01*
X162860099Y-66744007D01*
X162925925Y-66629993D01*
X162942962Y-66566408D01*
X163575270Y-67198717D01*
X163575270Y-67198716D01*
X163614622Y-67144554D01*
X163711095Y-66955217D01*
X163776757Y-66753130D01*
X163776757Y-66753127D01*
X163810000Y-66543246D01*
X163810000Y-66330753D01*
X163776757Y-66120872D01*
X163776757Y-66120869D01*
X163711095Y-65918782D01*
X163614624Y-65729449D01*
X163575270Y-65675282D01*
X163575269Y-65675282D01*
X162942962Y-66307590D01*
X162925925Y-66244007D01*
X162860099Y-66129993D01*
X162767007Y-66036901D01*
X162652993Y-65971075D01*
X162589409Y-65954037D01*
X163225701Y-65317743D01*
X163228312Y-65305311D01*
X166813500Y-65305311D01*
X166813500Y-65547888D01*
X166845161Y-65788385D01*
X166907947Y-66022704D01*
X166956479Y-66139869D01*
X167000776Y-66246812D01*
X167122064Y-66456889D01*
X167122066Y-66456892D01*
X167122067Y-66456893D01*
X167269733Y-66649336D01*
X167269739Y-66649343D01*
X167441256Y-66820860D01*
X167441263Y-66820866D01*
X167487180Y-66856099D01*
X167633711Y-66968536D01*
X167843788Y-67089824D01*
X168067900Y-67182654D01*
X168302211Y-67245438D01*
X168482586Y-67269184D01*
X168542711Y-67277100D01*
X168542712Y-67277100D01*
X168785289Y-67277100D01*
X168833388Y-67270767D01*
X169025789Y-67245438D01*
X169260100Y-67182654D01*
X169484212Y-67089824D01*
X169694289Y-66968536D01*
X169886738Y-66820865D01*
X170058265Y-66649338D01*
X170205936Y-66456889D01*
X170327224Y-66246812D01*
X170420054Y-66022700D01*
X170482838Y-65788389D01*
X170514500Y-65547888D01*
X170514500Y-65305312D01*
X170514500Y-65305311D01*
X174759300Y-65305311D01*
X174759300Y-65547888D01*
X174790961Y-65788385D01*
X174853747Y-66022704D01*
X174902279Y-66139869D01*
X174946576Y-66246812D01*
X175067864Y-66456889D01*
X175067866Y-66456892D01*
X175067867Y-66456893D01*
X175215533Y-66649336D01*
X175215539Y-66649343D01*
X175387056Y-66820860D01*
X175387063Y-66820866D01*
X175432980Y-66856099D01*
X175579511Y-66968536D01*
X175789588Y-67089824D01*
X176013700Y-67182654D01*
X176248011Y-67245438D01*
X176428386Y-67269184D01*
X176488511Y-67277100D01*
X176488512Y-67277100D01*
X176731089Y-67277100D01*
X176779188Y-67270767D01*
X176971589Y-67245438D01*
X177205900Y-67182654D01*
X177430012Y-67089824D01*
X177640089Y-66968536D01*
X177832538Y-66820865D01*
X178004065Y-66649338D01*
X178151736Y-66456889D01*
X178273024Y-66246812D01*
X178365854Y-66022700D01*
X178428638Y-65788389D01*
X178460300Y-65547888D01*
X178460300Y-65305312D01*
X178460151Y-65304184D01*
X178447119Y-65205193D01*
X178428638Y-65064811D01*
X178365854Y-64830500D01*
X178273024Y-64606388D01*
X178151736Y-64396311D01*
X178075608Y-64297099D01*
X178004066Y-64203863D01*
X178004060Y-64203856D01*
X177832543Y-64032339D01*
X177832536Y-64032333D01*
X177640093Y-63884667D01*
X177640092Y-63884666D01*
X177640089Y-63884664D01*
X177430012Y-63763376D01*
X177430005Y-63763373D01*
X177205904Y-63670547D01*
X176971585Y-63607761D01*
X176731089Y-63576100D01*
X176731088Y-63576100D01*
X176488512Y-63576100D01*
X176488511Y-63576100D01*
X176248014Y-63607761D01*
X176013695Y-63670547D01*
X175789594Y-63763373D01*
X175789585Y-63763377D01*
X175579506Y-63884667D01*
X175387063Y-64032333D01*
X175387056Y-64032339D01*
X175215539Y-64203856D01*
X175215533Y-64203863D01*
X175067867Y-64396306D01*
X174946577Y-64606385D01*
X174946573Y-64606394D01*
X174853747Y-64830495D01*
X174790961Y-65064814D01*
X174759300Y-65305311D01*
X170514500Y-65305311D01*
X170514351Y-65304184D01*
X170501319Y-65205193D01*
X170482838Y-65064811D01*
X170420054Y-64830500D01*
X170327224Y-64606388D01*
X170205936Y-64396311D01*
X170129808Y-64297099D01*
X170058266Y-64203863D01*
X170058260Y-64203856D01*
X169886743Y-64032339D01*
X169886736Y-64032333D01*
X169694293Y-63884667D01*
X169694292Y-63884666D01*
X169694289Y-63884664D01*
X169484212Y-63763376D01*
X169484205Y-63763373D01*
X169260104Y-63670547D01*
X169025785Y-63607761D01*
X168785289Y-63576100D01*
X168785288Y-63576100D01*
X168542712Y-63576100D01*
X168542711Y-63576100D01*
X168302214Y-63607761D01*
X168067895Y-63670547D01*
X167843794Y-63763373D01*
X167843785Y-63763377D01*
X167633706Y-63884667D01*
X167441263Y-64032333D01*
X167441256Y-64032339D01*
X167269739Y-64203856D01*
X167269733Y-64203863D01*
X167122067Y-64396306D01*
X167000777Y-64606385D01*
X167000773Y-64606394D01*
X166907947Y-64830495D01*
X166845161Y-65064814D01*
X166813500Y-65305311D01*
X163228312Y-65305311D01*
X163228549Y-65304184D01*
X163231694Y-65275296D01*
X163235644Y-65270406D01*
X163236937Y-65264254D01*
X163257340Y-65243556D01*
X163275607Y-65220950D01*
X163283515Y-65217004D01*
X163285988Y-65214496D01*
X163307188Y-65205194D01*
X163372513Y-65183547D01*
X163372514Y-65183547D01*
X163379121Y-65181357D01*
X163379124Y-65181356D01*
X163528345Y-65089315D01*
X163652315Y-64965345D01*
X163744356Y-64816124D01*
X163744358Y-64816119D01*
X163799505Y-64649697D01*
X163799506Y-64649690D01*
X163809999Y-64546986D01*
X163810000Y-64546973D01*
X163810000Y-64147000D01*
X162893012Y-64147000D01*
X162925925Y-64089993D01*
X162960000Y-63962826D01*
X162960000Y-63831174D01*
X162925925Y-63704007D01*
X162893012Y-63647000D01*
X163809999Y-63647000D01*
X163809999Y-63247028D01*
X163809998Y-63247013D01*
X163799505Y-63144302D01*
X163744358Y-62977880D01*
X163744356Y-62977875D01*
X163652315Y-62828654D01*
X163528345Y-62704684D01*
X163379124Y-62612643D01*
X163379119Y-62612641D01*
X163232950Y-62564206D01*
X163175505Y-62524434D01*
X163148682Y-62459918D01*
X163160997Y-62391142D01*
X163208540Y-62339942D01*
X163271954Y-62322500D01*
X181462388Y-62322500D01*
X181529427Y-62342185D01*
G37*
%TD.AperFunction*%
%TA.AperFunction,Conductor*%
G36*
X190450753Y-64774348D02*
G01*
X190482046Y-64824272D01*
X190485639Y-64835114D01*
X190485643Y-64835124D01*
X190577684Y-64984345D01*
X190701654Y-65108315D01*
X190850875Y-65200356D01*
X190850882Y-65200359D01*
X190922809Y-65224193D01*
X190980254Y-65263965D01*
X191007078Y-65328481D01*
X191007245Y-65339691D01*
X191640591Y-65973037D01*
X191577007Y-65990075D01*
X191462993Y-66055901D01*
X191369901Y-66148993D01*
X191304075Y-66263007D01*
X191287037Y-66326590D01*
X190654728Y-65694282D01*
X190654727Y-65694282D01*
X190615380Y-65748440D01*
X190615376Y-65748446D01*
X190610760Y-65757505D01*
X190562781Y-65808297D01*
X190494959Y-65825087D01*
X190428826Y-65802543D01*
X190389794Y-65757493D01*
X190385051Y-65748184D01*
X190385049Y-65748181D01*
X190385048Y-65748179D01*
X190260109Y-65576213D01*
X190109786Y-65425890D01*
X189937820Y-65300951D01*
X189937115Y-65300591D01*
X189929054Y-65296485D01*
X189878259Y-65248512D01*
X189861463Y-65180692D01*
X189883999Y-65114556D01*
X189929054Y-65075515D01*
X189937816Y-65071051D01*
X189963972Y-65052048D01*
X190109786Y-64946109D01*
X190109788Y-64946106D01*
X190109792Y-64946104D01*
X190260104Y-64795792D01*
X190264018Y-64790404D01*
X190319342Y-64747734D01*
X190388955Y-64741748D01*
X190450753Y-64774348D01*
G37*
%TD.AperFunction*%
%TA.AperFunction,Conductor*%
G36*
X161140753Y-64755348D02*
G01*
X161172046Y-64805272D01*
X161175639Y-64816114D01*
X161175643Y-64816124D01*
X161267684Y-64965345D01*
X161391654Y-65089315D01*
X161540875Y-65181356D01*
X161540882Y-65181359D01*
X161612809Y-65205193D01*
X161670254Y-65244965D01*
X161697078Y-65309481D01*
X161697245Y-65320691D01*
X162330591Y-65954037D01*
X162267007Y-65971075D01*
X162152993Y-66036901D01*
X162059901Y-66129993D01*
X161994075Y-66244007D01*
X161977037Y-66307591D01*
X161344728Y-65675282D01*
X161344727Y-65675282D01*
X161305380Y-65729440D01*
X161305376Y-65729446D01*
X161300760Y-65738505D01*
X161252781Y-65789297D01*
X161184959Y-65806087D01*
X161118826Y-65783543D01*
X161079794Y-65738493D01*
X161075051Y-65729184D01*
X161075049Y-65729181D01*
X161075048Y-65729179D01*
X160950109Y-65557213D01*
X160799786Y-65406890D01*
X160627820Y-65281951D01*
X160627115Y-65281591D01*
X160619054Y-65277485D01*
X160568259Y-65229512D01*
X160551463Y-65161692D01*
X160573999Y-65095556D01*
X160619054Y-65056515D01*
X160627816Y-65052051D01*
X160721006Y-64984345D01*
X160799786Y-64927109D01*
X160799788Y-64927106D01*
X160799792Y-64927104D01*
X160950104Y-64776792D01*
X160954018Y-64771404D01*
X161009342Y-64728734D01*
X161078955Y-64722748D01*
X161140753Y-64755348D01*
G37*
%TD.AperFunction*%
%TD*%
M02*
