M48
; DRILL file {KiCad 9.0.2} date 2026-04-16T01:13:01+0900
; FORMAT={-:-/ absolute / metric / decimal}
; #@! TF.CreationDate,2026-04-16T01:13:01+09:00
; #@! TF.GenerationSoftware,Kicad,Pcbnew,9.0.2
; #@! TF.FileFunction,Plated,1,2,PTH
FMAT,2
METRIC
; #@! TA.AperFunction,Plated,PTH,ViaDrill
T1C0.300
; #@! TA.AperFunction,Plated,PTH,ViaDrill
T2C0.600
; #@! TA.AperFunction,Plated,PTH,ViaDrill
T3C0.800
; #@! TA.AperFunction,Plated,PTH,ComponentDrill
T4C1.000
%
G90
G05
T1
X149.098Y-69.342
X149.606Y-64.262
X155.956Y-70.739
X157.734Y-88.011
X164.084Y-79.375
X165.735Y-87.503
X171.323Y-77.851
X171.323Y-80.01
X172.085Y-89.662
X172.593Y-67.691
X174.752Y-89.662
X175.768Y-103.759
X176.657Y-77.851
X177.292Y-89.662
X177.419Y-79.375
X179.324Y-103.759
X183.642Y-77.343
X186.69Y-76.581
X191.516Y-89.916
X191.897Y-103.759
X193.167Y-89.916
X194.183Y-103.759
X194.31Y-80.899
X198.501Y-80.772
X198.882Y-62.738
X199.644Y-89.916
X203.2Y-62.738
X208.28Y-62.738
X211.328Y-89.789
X213.487Y-89.789
T2
X186.309Y-79.121
T3
X168.021Y-75.311
X200.279Y-96.647
T4
X148.844Y-72.771
X148.844Y-75.311
X148.844Y-77.851
X148.9Y-82.423
X148.9Y-84.963
X148.9Y-87.503
X148.9Y-90.043
X148.9Y-92.583
X148.9Y-95.123
X151.384Y-72.771
X151.384Y-75.311
X151.384Y-77.851
X151.44Y-82.423
X151.44Y-84.963
X151.44Y-87.503
X151.44Y-90.043
X151.44Y-92.583
X151.44Y-95.123
X152.3Y-63.897
X152.3Y-66.437
X154.84Y-63.897
X154.84Y-66.437
X157.38Y-63.897
X157.38Y-66.437
X159.385Y-99.695
X159.385Y-102.235
X159.385Y-104.775
X159.385Y-107.315
X159.92Y-63.897
X159.92Y-66.437
X161.925Y-99.695
X161.925Y-102.235
X161.925Y-104.775
X161.925Y-107.315
X162.46Y-63.897
X162.46Y-66.437
X164.465Y-99.695
X164.465Y-102.235
X164.465Y-104.775
X164.465Y-107.315
X167.005Y-99.695
X167.005Y-102.235
X167.005Y-104.775
X167.005Y-107.315
X169.545Y-99.695
X169.545Y-102.235
X169.545Y-104.775
X169.545Y-107.315
X172.085Y-99.695
X172.085Y-102.235
X172.085Y-104.775
X172.085Y-107.315
X181.61Y-63.916
X181.61Y-66.456
X184.15Y-63.916
X184.15Y-66.456
X186.69Y-63.916
X186.69Y-66.456
X189.23Y-63.916
X189.23Y-66.456
X191.77Y-63.916
X191.77Y-66.456
X206.121Y-79.375
X211.799Y-72.756
X211.799Y-75.296
X211.799Y-77.836
X214.339Y-72.756
X214.339Y-75.296
X214.339Y-77.836
M30
